<svg id="maneki" xmlns="http://www.w3.org/2000/svg" xmlns:xlink="http://www.w3.org/1999/xlink" width="210px" height="300px" viewBox="0 0 210 270" shape-rendering="geometricPrecision" text-rendering="geometricPrecision"><g id="maneki-u-kato" transform="translate(2.939461 6.530728)"><g id="maneki-u-head"><path id="maneki-s-path1" d="M161.56,119.47c-.22,1.63-.5,3.26-.64,4.91-.11,1.47-.89,1.62-2.1,1.35-2.17-.49-11.52-1.73-13.69-2.18s-4,.53-4.41,2.42.68,3.55,2.92,4.08s11.39,1.78,13.53,2.13c1.35.22,1.56.74,1.05,1.95-3.213772,7.935489-8.717609,14.734346-15.81,19.53-8.78,6.06-18.67,9.15-29.08,10.87-6.41049,1.056157-12.904419,1.521444-19.4,1.39-11.53.17-22.54-1-33.23-4.5C50.23,158,41,152.69,34.24,143.75c-2.253843-3.014083-4.099799-6.312595-5.49-9.81-.45-1.1-.18-1.55,1-1.76c2.13-.38,9.82-1.64,11.94-2.13s3.32-2.15,3-3.91c-.43-2-2.12-3-4.44-2.59s-10,1.7-12.27,2.19c-1,.22-1.66,0-1.78-1.15-.18-1.65-.5-3.28-.64-4.93-.13-1.84,0-1.92,1.76-1.44c2.52.68,12.22,3,14.76,3.67.840338.30174,1.766792.252283,2.57023-.137206s1.41613-1.086176,1.69977-1.932794c.30425-.883443.217283-1.854711-.239077-2.670048s-1.238789-1.397343-2.150923-1.599952c-3.33-1-13.86-3.49-17.22-4.39-.91-.26-1.42-.5-1.36-1.71.492507-7.530822,1.762598-14.99051,3.79-22.26.119774.010404.240226.010404.36,0l1.76.3l1.28.07c.35,0,.72,0,1.08,0c.246995-.086704.508608-.124078.77-.11c9.41.1,18.69-1.46,28-2.57c12-1.45,24.06-2.68,36.19-2.41c10.49.23,20.89,1.5,31.29,2.72c7.65.88,15.26,2.1,23,2.25c1.38,0,1.83.63,1.94,1.84.34063,4.554086,1.867963,8.939565,4.43,12.72.14.21.27.42.39.64s.29.32.44.48.32.39.45.59c.228694.153027.437027.334479.62.54.041483.039017.078388.082631.11.13.18,1.72.34,3.45.47,5.17.07,1.11-.45,1.37-1.29,1.61-3.46.94-12.51,2.68-15.94,3.7-1.499845.375749-2.537703,1.742499-2.496901,3.288156s1.149321,2.855748,2.666901,3.151844c.671222.108415,1.358923.046522,2-.18c2.59-.71,10.76-2.17,13.33-2.92c1.28-.4,1.71.02,1.54,1.27Z" transform="translate(-1.32-25)" fill="#eee8c4"/><path id="maneki-s-path2" d="M55.26,39.94c-5.847024,2.098249-11.468561,4.778362-16.78,8-3.501975,2.079171-6.642891,4.713489-9.3,7.8-.143594-6.331632.335375-12.662053,1.43-18.9.87-4.66,3.45-6.42,8.08-5.39c5.57,1.24,10.27,4.28,14.93,7.35.55.35,1.1.74,1.64,1.14Z" transform="translate(-1.32-25)" fill="#eee8c4"/><path id="maneki-s-path3" d="M157.76,54.44c-5.67-5.25-12.37-9.93-19.6-12.21-2.27-.71-4.55-1.41-6.85-2.06c5.07-3.69,10.32-7.08,16.54-8.65c4.86-1.24,7.5.38,8.36,5.34c1.054901,5.800039,1.573756,11.684858,1.55,17.58Z" transform="translate(-1.32-25)" fill="#eee8c4"/><path id="maneki-s-path4" d="M53.56,37.17c-12.49,4.64-15.05,6-24.56,14.24c1,2.05-.64,5,.24,7.11l3.37-2.29c6.26-4.21,12.47-8.48,19-12.32L58.23,40c-.99-2-2.77-1.24-4.67-2.83Z" transform="translate(-1.32-25)" opacity="0.5" fill="#d69d38"/><path id="maneki-s-path5" d="M162,114.47c-3.68-2.22-5.78-5.8-8-9.29-1.36229-2.234994-2.399367-4.652596-3.08-7.18-.56-1.93-1.69-2.69-3.81-2.84q-7.26-.56-14.47-1.66c-3.69-.56-7.42-.9-11.13-1.27-6.32-.64-12.64-1.41-19-1.8-4.88-.29-9.78-.13-14.68-.08-6.43,0-12.81.76-19.2,1.38-5,.48-9.9,1.16-14.86,1.65s-9.63,1.22-14.45,1.78c-1.921297.24305-3.853878.386575-5.79.43-3.67,0-7.34.57-11,0c.504798-2.648065,1.401306-5.206146,2.66-7.59.35-.74.91-.72,1.55-.73c12.19-.15,24.2-2.19,36.28-3.58c16.1-1.85,32.21-2.72,48.42-1.09c13.65,1.38,27.24,3.4,40.92,4.5c1.31.1,2.63.18,3.95.16.94,0,1.31.28,1.38,1.26.311291,5.362526,2.154158,10.523248,5.31,14.87c1.37,1.91.33,3.9.26,5.81-.117327,1.815526-.543436,3.597745-1.26,5.27Z" transform="translate(-1.32-25)" opacity="0.4" fill="#d69d38"/><path id="maneki-s-path6" d="M158.39,50.38c-10.29-8-12.73-9.39-24.62-12.62-1.24,2.12-4.59,2.45-6,4.49l3.67,1.52c6.78,2.87,13.58,5.66,20.17,9c2.23,1.12,4.48,2.22,6.71,3.35c1.24-2.12-.32-3.12.07-5.74Z" transform="translate(-1.32-25)" opacity="0.5" fill="#d69d38"/><path id="maneki-u-shape" d="M196.63,76.85c-5.9-8.44-17.66-12.65-27.57-9.78-1.61.46-2.34.19-3-1.39-.667961-1.603578-1.491923-3.13762-2.46-4.58.245144-3.925234.285198-7.86059.12-11.79-.064133-5.246457-.735265-10.467862-2-15.56-1.23-4.47-3.94-7.53-8.65-8.49-3.174138-.499061-6.424294-.122181-9.4,1.09-7.39,2.53-13.72,6.91-19.78,11.71l-.19.13c-4.189913-1.002115-8.428927-1.786499-12.7-2.35-5.929576-1.536313-12.034832-2.289384-18.16-2.24-5.595056.074161-11.162485.799034-16.59,2.16-3.3.31-6.61.73-9.89,1.28-1.26.22-2.51.47-3.75.76-2.849357-2.343687-5.856444-4.488742-9-6.42-4.41-2.67-9-5-14.08-6-6-1.19-10.87.86-13.38,5.7-.879219,1.800549-1.472985,3.726915-1.76,5.71-1.556765,9.307663-1.859458,18.781947-.9,28.17-1.910798,4.565143-2.906308,9.46115-2.93,14.41-.196862,2.295672.828811,4.525561,2.7,5.87l-.33,1.32c-1.745933,6.550048-2.900563,13.243557-3.45,20-.19,2.51-.22,2.51-2.58,1.86-1.92-.52-3.84-1.08-5.77-1.57-1.52-.39-3-.34-4.07,1-.721725.88317-.932842,2.077856-.557512,3.15489s1.283214,1.881766,2.397512,2.12511c3,.91,5.92,1.71,8.9,2.49.873733.109578,1.502477.893293,1.42,1.77.100608,2.734209.418274,5.456105.95,8.14.25,1.23.18,2.15-1.43,2.17-.393498.042427-.781972.122801-1.16.24-3,.63-6,1.21-9,1.93-1.65275.297499-2.813839,1.795261-2.69,3.47.068738,1.552434,1.255988,2.824488,2.8,3c.740526.056085,1.485275.002166,2.21-.16c3.13-.61,6.27-1.19,9.36-2c1.48-.38,2.11,0,2.64,1.41c3.041747,8.240566,8.319012,15.470834,15.24,20.88C50.19,166,64.39,170,79.42,171.55c7.379375.689801,14.799814.830188,22.2.42c8.668543-.312741,17.258557-1.76178,25.55-4.31c17.2-5.45,30.63-15.26,37.27-32.74.38-1,1-1,1.9-.82c3.23.71,6.48,1.31,9.71,2c2.2.51,3.95.12,5.09-2v-2.06c-.752549-1.437912-2.175685-2.402941-3.79-2.57-3-.53-5.9-1.32-8.87-1.81-1.61-.27-1.77-1.07-1.51-2.38.531056-2.63558.832188-5.312305.9-8-.087952-.878339.543487-1.665413,1.42-1.77q4.14-1.06,8.25-2.26c2.22-.66,3.35-2.35,2.86-4.17-.417433-1.626926-1.999543-2.673021-3.66-2.42c2.416465-4.480989,3.298107-9.630342,2.51-14.66-.14-1.09.18-1.44,1.28-1.39c1.663119.153795,3.336881.153795,5,0c5.15-.66,10.07-1.87,13.13-6.68v-3.45c-.66-1.21-1.23-2.48-2.03-3.63Zm-35-7.4c.28.73-.12,1.19-.63,1.62-2.819888,2.441455-4.776821,5.72756-5.58,9.37-.34,1.35-1,1.81-2.31,1.64s-1.67-.61-1.31-1.93c1.280557-4.633823,1.85038-9.435167,1.69-14.24-.09-2.62-.33-6.94-.71-9.64c4.05,3.01,7.02,8.47,8.82,13.18h.03ZM147.85,31.52c4.86-1.24,7.5.38,8.36,5.34c1.056535,5.799679,1.572083,11.684958,1.54,17.58-5.67-5.25-12.37-9.93-19.59-12.21-2.27-.71-4.56-1.41-6.85-2.06c5.07-3.7,10.32-7.08,16.54-8.65ZM123.26,43.05c.45-.56,1.19-.1,1.79,0c6.47,1.17,12.73,4.64,18.73,7.36c1.017813.400357,1.788193,1.255923,2.08,2.31c1.246096,4.483587,1.918132,9.107193,2,13.76.035735,4.534448-.546281,9.052637-1.73,13.43-.32,1.16-.83,1.58-2.09,1.41-5.56-.71-11.13-1.35-16.7-2-.92-.11-1.9-.1-1.47-1.59c2.95-10.11,1.58-23.27-2.2-32.89-.25-.58-.85-1.22-.41-1.79Zm-23.83-2.4c4.92,0,9.81.48,14.72.82.950086-.055539,1.845142.448663,2.29,1.29c4.7,9.26,6.73,22.26,4.25,32.55-.77,3.21-.78,3.08-4.09,2.78-5.54-.49-11.09-.84-16.62-1.17-2.41-.15-2.42,0-2.42-2.55v-14.06c0-4.8,0-13,0-17.76-.03-1.44.44-1.9,1.87-1.9ZM69.89,52c.784276-2.969238,1.739195-5.890759,2.86-8.75.39074-1.053251,1.38679-1.759614,2.51-1.78c5-.3,9.92-.86,14.9-.81c1.29,0,1.73.46,1.73,1.73c0,4.92,0,13.19,0,18.11s0,9.62,0,14.42c0,1.5-.41,2-2,2-6.072242.107895-12.134307.541853-18.16,1.3-.579074.198731-1.217273.121289-1.732011-.210171s-.849307-.880422-.907989-1.489829c-2.19-7.7-1.58-16.97.8-24.52Zm-4.61-9.12c1.31-.25,1.38.29.92,1.31-1.76,3.81-2.86,11.16-3.53,15.28-1.066972,5.946788-.762575,12.058657.89,17.87.43,1.39.06,1.84-1.34,2q-8.36.91-16.7,2c-.460935.146024-.962818.081206-1.37153-.177131s-.6826-.683865-.74847-1.162869c-1.08233-4.086244-1.686377-8.284374-1.8-12.51.21-4.4.7-10.43,2-14.67.259862-1.010928.972217-1.845084,1.93-2.26c6.31-3.02,12.96-6.38,19.75-7.69v.01Zm-34.67-6c.87-4.66,3.45-6.42,8.07-5.39c5.57,1.24,10.27,4.28,14.94,7.35.55.37,1.1.76,1.64,1.16-5.851143,2.096007-11.476217,4.77621-16.79,8-3.497904,2.084906-6.637953,4.718496-9.3,7.8-.145879-6.358642.336461-12.716151,1.44-18.98v.06Zm4,22.66c.618951-.773267,1.44929-1.349988,2.39-1.66-.630038,3.483364-.911428,7.020838-.84,10.56-.01878,3.882006.496036,7.748177,1.53,11.49.43,1.54-.1,2-1.48,2.1-2.716655.167842-5.443413-.047605-8.1-.64-.60216-.022363-1.168791-.290737-1.567592-.74246s-.594864-1.047253-.542408-1.64754c.058256-7.406735,3.156783-14.46429,8.57-19.52l.04.06ZM142,118.3c.104535,1.487179,1.196029,2.718188,2.66,3c.671281.10671,1.35856.044855,2-.18c2.59-.71,10.76-2.17,13.32-2.92c1.28-.38,1.71,0,1.54,1.29-.22,1.63-.5,3.26-.64,4.91-.11,1.47-.9,1.62-2.1,1.35-2.17-.49-11.52-1.73-13.69-2.18s-4,.53-4.41,2.42.68,3.55,2.92,4.08s11.39,1.78,13.53,2.13c1.34.22,1.55.74,1.05,1.95-3.214352,7.938062-8.722247,14.737632-15.82,19.53-8.77,6.06-18.66,9.15-29.07,10.87-6.410576,1.05543-12.904438,1.520712-19.4,1.39-11.54.17-22.54-1-33.23-4.5C50.23,158,41,152.69,34.24,143.75c-2.253357-3.016117-4.102385-6.31411-5.5-9.81-.44-1.1-.17-1.55,1-1.76c2.14-.38,9.83-1.64,11.94-2.13s3.33-2.15,3-3.91c-.43-2-2.12-3-4.44-2.59s-10,1.7-12.27,2.19c-1,.22-1.66,0-1.78-1.16-.19-1.64-.51-3.27-.64-4.92-.14-1.84,0-1.92,1.75-1.44c2.53.68,12.23,3,14.77,3.67.840338.30174,1.766792.252283,2.57023-.137206s1.41613-1.086176,1.69977-1.932794c.300729-.884889.21092-1.85592-.247004-2.670642s-1.240741-1.39624-2.152996-1.599358c-3.32-1-13.85-3.49-17.21-4.39-.91-.26-1.43-.5-1.37-1.71.490979-7.531738,1.764506-14.991926,3.8-22.26.116465.009693.233535.009693.35,0q.89.14,1.77.3l1.28.07c.35,0,.72,0,1.08,0c.245896-.091118.508427-.128622.77-.11c9.41.1,18.69-1.46,28-2.57c12-1.45,24-2.69,36.19-2.42c10.49.24,20.89,1.51,31.29,2.73c7.65.88,15.26,2.1,23,2.24c1.39,0,1.83.64,1.94,1.85.347028,4.552754,1.873804,8.936634,4.43,12.72.15.21.27.42.4.64s.29.32.44.48.32.39.45.59c.224666.158226.43243.339181.62.54l.11.13c.18,1.72.34,3.45.46,5.17.08,1.11-.44,1.37-1.29,1.61-3.46.94-12.5,2.68-15.94,3.7-1.55871.388435-2.615732,1.837103-2.51,3.44Zm49.15-34.95c-4.16882,2.005947-8.926296,2.42196-13.38,1.17-.56-.14-1.13-.26-1.67-.44-1.112273-.452173-2.389095-.14203-3.17.77-.768719.838848-.958022,2.057484-.48,3.09c1.47,4.19,2.08,8.47.71,12.78-1.61,5-1.93,5.36-6,1.78-6.15-5.38-8.1-12.44-6.4-20.31c1.27-6,6.52-10,13-10.3.58,0,1.17,0,1.73,0c6.73.21,12.45,2.5,16.5,8.12c1.46,1.99,1.34,2.27-.82,3.34h-.02Z" transform="translate(-1.32-25)"/><path id="maneki-s-path7" d="M161,71.07c-2.819888,2.441455-4.776821,5.72756-5.58,9.37-.34,1.35-1,1.81-2.31,1.64s-1.67-.61-1.31-1.93c1.280557-4.633823,1.85038-9.435167,1.69-14.24-.09-2.62-.33-6.94-.71-9.64c4.08,3,7.05,8.47,8.85,13.18.25.73-.15,1.19-.63,1.62Z" transform="translate(-1.32-25)" fill="#f2c32f"/><path id="maneki-s-path8" d="M120.69,75.31c-.77,3.21-.78,3.08-4.09,2.78-5.54-.49-11.09-.84-16.62-1.17-2.41-.15-2.42,0-2.42-2.55v-14.06c0-4.8,0-13,0-17.76c0-1.44.44-1.9,1.89-1.9c4.92,0,9.81.48,14.72.82.950086-.055539,1.845142.448663,2.29,1.29c4.68,9.24,6.71,22.24,4.23,32.55Z" transform="translate(-1.32-25)" fill="#f2c32f"/><path id="maneki-s-path9" d="M62.67,59.47c-1.066972,5.946788-.762575,12.058657.89,17.87.43,1.39.06,1.84-1.34,2q-8.36.91-16.7,2c-.460935.146024-.962818.081206-1.37153-.177131s-.6826-.683865-.74847-1.162869c-1.08233-4.086244-1.686377-8.284374-1.8-12.51.21-4.4.7-10.43,2-14.67.259862-1.010928.972217-1.845084,1.93-2.26c6.28-3,12.93-6.33,19.72-7.64c1.31-.25,1.38.29.92,1.31-1.73,3.77-2.83,11.12-3.5,15.24Z" transform="translate(-1.32-25)" fill="#f2c32f"/><path id="maneki-s-path10" d="M191.17,83.35c-4.165946,2.00346-8.919396,2.419431-13.37,1.17-.57-.14-1.13-.26-1.67-.44-1.1153-.453777-2.395822-.143713-3.18.77-.758776.843597-.947106,2.055974-.48,3.09c1.47,4.19,2.09,8.47.71,12.78-1.61,5-1.92,5.36-6,1.78-6.14-5.38-8.09-12.43-6.4-20.31c1.28-6,6.53-10,13.06-10.3.57,0,1.16,0,1.73,0C182.25,72.1,188,74.39,192,80c1.46,2,1.33,2.29-.83,3.35Z" transform="translate(-1.32-25)" fill="#f4580d"/><path id="maneki-s-path11" d="M147.83,66.49c.035735,4.534448-.546281,9.052637-1.73,13.43-.32,1.16-.82,1.58-2.09,1.41-5.56-.71-11.13-1.35-16.7-2-.92-.11-1.9-.09-1.47-1.59c3-10.11,1.58-23.27-2.2-32.89-.22-.56-.82-1.2-.38-1.77s1.19-.1,1.79,0c6.47,1.16,12.73,4.63,18.73,7.35c1.023067.401163,1.797439,1.260752,2.09,2.32c1.228179,4.479428,1.886705,9.095829,1.96,13.74Z" transform="translate(-1.32-25)" fill="#f4580d"/><path id="maneki-s-path12" d="M91.9,74.91c0,1.5-.42,2-2,2-6.071986.113601-12.133747.547538-18.16,1.3-.579074.198731-1.217273.121289-1.732011-.210171s-.849307-.880422-.907989-1.489829c-2.23-7.73-1.62-17,.76-24.56.784276-2.969238,1.739195-5.890759,2.86-8.75.392063-1.056611,1.393113-1.763701,2.52-1.78c5-.3,9.91-.86,14.9-.81c1.28,0,1.73.46,1.73,1.73-.05,4.92,0,13.19,0,18.11s-.04,9.66.03,14.46Z" transform="translate(-1.32-25)" fill="#f4580d"/><path id="maneki-s-path13" d="M36.16,82c-2.716655.167842-5.443413-.047605-8.1-.64-.582532-.050778-1.120883-.331375-1.496146-.779815s-.556563-1.027825-.503854-1.610185c.045282-7.399244,3.125239-14.455672,8.52-19.52.63877-.745316,1.479054-1.290459,2.42-1.57-.638131,3.482406-.92291,7.02036-.85,10.56-.014388,3.881724.500349,7.747299,1.53,11.49.39,1.55-.14,2-1.52,2.07Z" transform="translate(-1.32-25)" fill="#f4580d"/><path id="maneki-u-mouth" d="M110.19,121.29c-2.13-.3-3.69,1-4.14,3.36-.071639.585953-.205735,1.162565-.4,1.72-.531446,1.285876-1.637349,2.246453-2.984949,2.592697s-2.779575.037737-3.865051-.832697c-.972713-.923971-1.582803-2.165433-1.72-3.5-.55-2.43-1.68-3.46-3.69-3.34s-3.09,1.38-3.42,3.4c-.49,3-1.87,4.32-4.4,4.35s-4-1.31-4.62-4.41c-.46-2.37-1.81-3.54-3.89-3.34s-3.06,1.57-3.06,3.89c-.055721,4.038792,2.184488,7.759554,5.78,9.6c3.626789,2.267952,8.250346,2.181677,11.79-.22c1.168469-1.032506,2.933112-.997734,4.06.08c1.709176,1.224311,3.793042,1.811614,5.89,1.66c6.050688.062538,11.138406-4.525106,11.7-10.55.22-2.34-1.03-4.18-3.03-4.46Z" transform="translate(-1.32-25)"/><path id="maneki-u-browr" d="M130.21,94.34c-4.35286.33685-8.666778,1.063088-12.89,2.17-.889857.204173-1.652275.774304-2.099693,1.570137s-.538307,1.743498-.250307,2.609863c.339143,1.786323,2.048455,2.970377,3.84,2.66c4.1-.6,8.18-1.37,12.23-2.23c1.690129-.416652,2.802647-2.030177,2.591128-3.758007s-1.680403-3.025342-3.421128-3.021993Z" transform="translate(-1.32-25)"/><path id="maneki-u-browl" d="M69.69,96.47c-4.095308-.999186-8.255445-1.71092-12.45-2.13-.898985-.139618-1.815166.106358-2.523336.677463s-1.142659,1.414379-1.196664,2.322537c-.287462,1.857834.982895,3.597865,2.84,3.89c3.92.8,7.85,1.52,11.79,2.13c1.058471.143677,2.126759-.18352,2.923211-.895326s1.241128-1.736774,1.216789-2.804674c-.055032-1.525398-1.117055-2.828419-2.6-3.19Z" transform="translate(-1.32-25)"/><path id="maneki-u-eyel" d="M65.73,111.64c.060051-1.182571.060051-2.367429,0-3.55.001155-1.809806-1.431348-3.295364-3.24-3.36-.866464-.113164-1.742265.124091-2.433129.659135s-1.139674,1.323643-1.246871,2.190865c-.489934,2.623993-.489934,5.316007,0,7.94.209443,1.807592,1.804953,3.129838,3.62,3c1.855362-.121145,3.298684-1.660687,3.3-3.52.09-1.11,0-2.22,0-3.33v-.03Z" transform="translate(-1.32-25)"/><path id="maneki-u-eyer" d="M125,104.73c-1.813777-.155887-3.41119,1.186477-3.57,3-.379967,2.56601-.379967,5.17399,0,7.74.161974,1.725388,1.627355,3.033764,3.36,3c1.801452.117633,3.37563-1.205206,3.57-3c.165521-1.246407.245708-2.502664.24-3.76.00323-1.337336-.080279-2.673473-.25-4-.171439-1.713545-1.628151-3.009366-3.35-2.98Z" transform="translate(-1.32-25)"/></g></g><g id="maneki-u-body" transform="translate(0 9)"><path id="maneki-s-path14" d="M183.44,264.06c-.08-1.05,0-2.11,0-3.16.108187-5.716953-2.664906-11.105322-7.38-14.34-1.029284-.632103-1.604744-1.798576-1.48-3c.06-4.87,0-9.74,0-14.62c0-5.11-1.28-9.78-4.69-13.71-.598204-.656606-.843838-1.560987-.66-2.43.634496-4.835943.634496-9.734057,0-14.57-.190004-.944634.085289-1.923042.74-2.63c3.105639-3.706819,4.739358-8.426451,4.59-13.26c0-5.2,0-10.4,0-15.59-.111459-1.441487.471846-2.849592,1.57-3.79c6.82-6.27,8.77-15.36,5.13-23.26-2.486585-5.340027-6.850212-9.57908-12.26-11.91-.367325-.163575-.705185-.386562-1-.66l-2.22-.76q-1-.3-1.92-.57c-.78-.21-1.55-.41-2.33-.6-.988458-.193328-1.992833-.293765-3-.3-.086356.010373-.173644.010373-.26,0-4.585568-.478415-9.22047.019155-13.6,1.46-3.2,1.09-3.76,1.92-3.44,5.39c1.47,2.11,3.35,2.43,5.72,1.58c2.176847-.894765,4.533697-1.264736,6.88-1.08c7-.56,13.17,1.4,18.08,6.48c5.12,5.28,5.27,12.54.32,17.94s-11.23,7.33-18.44,6.8c-7.51-.17-13.75-2.88-17.79-9.42-2.372049-3.728561-2.410862-8.483211-.1-12.25c1.21-2.16,1.09-4-.64-5.68-3.1-1.05-4.39-.57-5.9,2.34-3.291648,5.922725-3.223267,13.140701.18,19c.54,1,1.05,1.64-.42,2.37-12.404016,6.256562-26.257083,9.077588-40.12,8.17-.317969-.042636-.632216-.109497-.94-.2-2.69.34-4.55-.22-6-3.07-2.28-4.54-6.4-7.23-11.34-8.48-.94433-.134366-1.768488-.709791-2.22-1.55-5.1-8.78-13.13-12.7-22.85-13.7-1.404677-.149997-2.818227-.200123-4.23-.15-1.15.23-2.32.33-3.47.57s-2.53.47-3.8.73c-1.245976.265272-2.469612.626345-3.66,1.08-.79.29-1.54.67-2.32,1-.300298.263685-.637109.482612-1,.65-4.226274,2.151618-7.684113,5.557066-9.9,9.75-.498191.914128-1.391979,1.545689-2.42,1.71-8.08,2.37-13.45,9-13.48,17.35q-.18,41.54,0,83.08c0,8.23,5.06,14.69,12.87,17.35.55.19,1.35,0,1.61.84h53.64c3.21-1.15,6.5-2.15,9.08-4.56.71-.66,1.56-.29,2.32-.18c14.634008,2.228734,29.595174.662029,43.45-4.55.53-.2,1.06-.4,1.6-.58.229501-.021435.460499-.021435.69,0-.43,4.82,2.19,7.8,6.21,9.87h43.86c5.09-1.85,7.16-5.6,6.74-10.9Zm-40.66-95.33c7.872956,3.005269,16.577044,3.005269,24.45,0-.09,5.9.6,11.63-.4,17.27s-6.49,9.53-12.08,9.35c-5.912377-.133746-10.871238-4.501763-11.75-10.35-.119993-.801546-.190128-1.609766-.21-2.42-.02-4.51-.01-9.03-.01-13.85Zm0,59.32c.18-7.17,5.44-12.48,12.21-12.48s12,5.32,12.22,12.49c.11,4.53,0,9.07,0,13.61c0,1.45-.5,1.75-1.82,1.72-3.48-.08-7,0-10.45,0s-7-.05-10.45,0c-1.33,0-1.85-.28-1.82-1.72.17-4.54.02-9.08.14-13.62h-.03ZM85.19,175.43c1-1.05,3.23,0,4.92.06c14.873036.63514,29.65501-2.614896,42.89-9.43.7-.37,1.42-.71,2.15-1.07.723662,2.333353-.039658,4.872477-1.93,6.42-3.785216,3.445298-8.246658,6.064266-13.1,7.69-10.7,3.87-21.76,4.77-33,4.12-1.84-.11-2.59-.75-2.34-2.63s-.73-4.03.41-5.16Zm-59-20.71c4.086815-4.150683,9.695819-6.445605,15.52-6.35c6.71-.43,12.71,1.37,17.58,6.09c5.92,5.73,5.78,14-.33,19.55-4.555936,4.14904-10.613588,6.248977-16.76,5.81-6.16-.07-11.63-2-16-6.4-5.42-5.48-5.41-13.22,0-18.7h-.01ZM127.87,254c-.19,2-1.48,2.93-3.27,3.68-12.812974,5.377389-26.805647,7.324645-40.6,5.65c1.53-11.12.47-22.2.75-33.23c0-2.35-1.4-3.49-3.57-3.9-3,.81-3.73,1.74-3.73,4.78c0,8.2,0,16.41,0,24.61c0,7.7-4.39,12.09-12.07,12.09q-22.31,0-44.59,0c-7.48,0-12-4.5-12-11.93q0-40.34,0-80.65c0-4.64,1.66-8.3,6.06-10.86.289267,6.649814,3.604765,12.801905,9,16.7c5.928834,4.534465,13.302187,6.762461,20.75,6.27c11.78-.5,25.36-7.7,26.64-22.77c3.733501,1.379474,6.219961,4.929853,6.24,8.91.15,5.44.08,10.88.08,16.32c0,8.2,0,16.41,0,24.61c0,3,.78,4,3.73,4.77c2.61-.43,3.63-2,3.61-4.6-.06-7.28,0-14.56,0-21.85c0-1.64.31-2.24,2.14-2.06c4.92446.300033,9.86132.340089,14.79.12c5.59-.87,11.21-1.57,16.67-3.22c6.147183-1.769933,11.956662-4.551319,17.19-8.23-.5,7.64,1.2,14.13,7,18.89s12.36,5.7,19.58,3.32c.425265,2.689963.425265,5.430037,0,8.12-7.38-2.4-14-1.41-19.82,3.51-4.76,4-6.84,9.32-6.85,15.49q0,7.66,0,15.34c0,.89.07,1.72-.9,2.31-3.008498,1.859332-5.388237,4.580527-6.83,7.81Zm48.21,12c0,1.37-.87,1.72-2.1,1.71q-12-.07-24.08-.09c-4.62,0-9.24,0-13.85.1-1.62,0-2.17-.74-2.13-2.22s0-3.25,0-4.87c-.006113-2.672102,1.067115-5.233438,2.976247-7.103032s4.492364-2.888992,7.163753-2.826968c3.07-.05,6.15.05,9.23.09c4.37,0,8.75-.18,13.12-.06c4.843316.024731,8.902903,3.667619,9.45,8.48.228839,2.255618.302345,4.524299.22,6.79Z" transform="translate(-1.32-25)" fill="#040403"/><path id="maneki-s-path15" d="M81.16,226.2c-3,.81-3.73,1.74-3.73,4.78c0,8.2,0,16.41,0,24.61c0,7.7-4.39,12.09-12.07,12.09q-22.31,0-44.59,0c-7.48,0-12-4.5-12-11.93q0-40.34,0-80.65c0-4.64,1.66-8.3,6.06-10.86.289267,6.649814,3.604765,12.801905,9,16.7c5.928834,4.534465,13.302187,6.762461,20.75,6.27c11.78-.5,25.36-7.7,26.64-22.77c3.733501,1.379474,6.219961,4.929853,6.24,8.91.15,5.44.08,10.88.08,16.32c0,8.2,0,16.41,0,24.61c0,3,.78,4,3.73,4.77l-.11,7.15ZM42.93,245.81h18.5c3,0,4.71-1.45,4.63-3.77s-1.74-3.56-4.6-3.56q-18.63,0-37.25,0c-2.85,0-4.46,1.37-4.47,3.67s1.59,3.66,4.45,3.67c6.24.01,12.49-.01,18.74-.01Zm.25-46.36v0c-6.33,0-12.66,0-19,0-2.85,0-4.46,1.38-4.45,3.68s1.62,3.66,4.46,3.66q18.63,0,37.25,0c2.87,0,4.53-1.31,4.61-3.55s-1.66-3.76-4.62-3.77c-6.08-.04-12.17-.02-18.25-.02Zm0,19.51v0c-6.33,0-12.66,0-19,0-2.83,0-4.44,1.41-4.42,3.71s1.61,3.63,4.49,3.63q18.63,0,37.25,0c2.86,0,4.53-1.33,4.58-3.57s-1.7-3.73-4.67-3.73c-6.09-.06-12.17,0-18.26,0l.03-.04Z" transform="translate(-1.32-25)" fill="#f2c32f"/><path id="maneki-s-path16" d="M101.65,190.65c5.59-.87,11.21-1.57,16.67-3.22c6.147183-1.769933,11.956662-4.551319,17.19-8.23-.5,7.64,1.2,14.13,7,18.89s12.36,5.7,19.58,3.32c.425265,2.689963.425265,5.430037,0,8.12-7.38-2.4-14-1.41-19.82,3.51-4.76,4-6.84,9.32-6.85,15.49q0,7.66,0,15.34c0,.89.07,1.72-.9,2.31-2.96048,1.895441-5.286737,4.632624-6.68,7.86-2,.16-3-1.47-4.3-2.46-7.88326-5.883086-14.22689-13.58533-18.49-22.45-5.797234-11.980301-7.006716-25.668788-3.4-38.48Z" transform="translate(-1.32-25)" fill="#eee8c4"/><path id="maneki-s-path17" d="M101.65,190.65c-3.597402,12.814845-2.377237,26.503459,3.43,38.48c4.26311,8.86467,10.60674,16.566914,18.49,22.45c1.31,1,2.31,2.62,4.3,2.46-.19,2-1.48,2.93-3.27,3.68-12.816579,5.363802-26.809125,7.297254-40.6,5.61c1.53-11.12.47-22.2.75-33.23c0-2.35-1.4-3.49-3.57-3.9v-7.2c2.61-.43,3.63-2,3.61-4.6-.06-7.28,0-14.56,0-21.85c0-1.64.31-2.24,2.14-2.06c4.900485.310906,9.813914.364313,14.72.16Z" transform="translate(-1.32-25)" fill="#e4ca8c"/><path id="maneki-s-path18" d="M41.72,148.37c6.71-.43,12.71,1.37,17.58,6.09c5.92,5.73,5.78,14-.33,19.55-4.555936,4.14904-10.613588,6.248977-16.76,5.81-2.1-2.2-4.58-4.16-6.24-6.65-5.27-7.88-3-17.13,4.22-22.71.69-.53,1.46-1.07,1.53-2.09Z" transform="translate(-1.32-25)" fill="#eee8c4"/><path id="maneki-s-path19" d="M153.79,132.21c7-.56,13.17,1.4,18.08,6.48c5.12,5.28,5.27,12.54.32,17.94s-11.19,7.37-18.4,6.84c0-.86-.59-1.2-1.18-1.67-2.749227-2.011027-4.871411-4.760851-6.12-7.93-2.66-7.38-.42-14.93,5.87-19.9.64-.49,1.47-.76,1.43-1.76Z" transform="translate(-1.32-25)" fill="#eee8c4"/><path id="maneki-s-path20" d="M155,243.36c-3.49,0-7-.05-10.45,0-1.33,0-1.85-.28-1.82-1.72.09-4.54-.06-9.08.06-13.62.18-7.17,5.44-12.48,12.21-12.48s12,5.32,12.22,12.49c.11,4.53,0,9.07,0,13.61c0,1.45-.5,1.75-1.82,1.72-3.4-.05-6.9,0-10.4,0Z" transform="translate(-1.32-25)" fill="#e4ca8c"/><path id="maneki-s-path21" d="M142.78,168.73c7.872956,3.005269,16.577044,3.005269,24.45,0-.09,5.9.6,11.63-.4,17.27s-6.49,9.53-12.08,9.35c-5.912377-.133746-10.871238-4.501763-11.75-10.35-.119993-.801546-.190128-1.609766-.21-2.42-.02-4.51-.01-9.03-.01-13.85Z" transform="translate(-1.32-25)" fill="#e4ca8c"/><path id="maneki-s-path22" d="M153.32,250.78c4.37,0,8.75-.18,13.12-.06c4.843316.024731,8.902903,3.667619,9.45,8.48.21883,2.256307.282313,4.524987.19,6.79c0,1.37-.87,1.72-2.1,1.71q-12-.07-24.08-.09c0-1.05,0-2.1,0-3.15.1-3-.38-6.1.9-9.06.7-1.63,2.2-2.81,2.52-4.62Z" transform="translate(-1.32-25)" fill="#eee8c4"/><path id="maneki-s-path23" d="M135.18,165c.723662,2.333353-.039658,4.872477-1.93,6.42-3.785216,3.445298-8.246658,6.064266-13.1,7.69-10.7,3.87-21.76,4.77-33,4.12-1.84-.11-2.59-.75-2.34-2.63s-.73-4,.41-5.16s3.23,0,4.92.06c14.86386.626808,29.634874-2.626537,42.86-9.44.73-.37,1.45-.71,2.18-1.06Z" transform="translate(-1.32-25)" fill="#f4580d"/><path id="maneki-s-path24" d="M153.79,132.21c0,1-.8,1.27-1.43,1.76-6.29,5-8.53,12.52-5.87,19.9c1.248589,3.169149,3.370773,5.918973,6.12,7.93.59.47,1.21.81,1.18,1.67-7.51-.17-13.75-2.88-17.79-9.42-2.372049-3.728561-2.410862-8.483211-.1-12.25c1.21-2.16,1.09-4-.64-5.68c1.833836-1.652906,3.81927-3.129426,5.93-4.41c1.47,2.11,3.35,2.43,5.72,1.58c2.176847-.894765,4.533697-1.264736,6.88-1.08Z" transform="translate(-1.32-25)" fill="#e4ca8c"/><path id="maneki-s-path25" d="M41.72,148.37c-.07,1-.84,1.56-1.53,2.09C32.94,156,30.7,165.29,36,173.17c1.66,2.49,4.14,4.45,6.24,6.65-6.16-.07-11.63-2-16-6.4-5.41-5.48-5.4-13.22,0-18.7c4.07717-4.140555,9.669634-6.434621,15.48-6.35Z" transform="translate(-1.32-25)" fill="#e4ca8c"/><path id="maneki-s-path26" d="M153.32,250.78c-.33,1.81-1.82,3-2.52,4.62-1.28,3-.8,6-.9,9.06c0,1.05,0,2.1,0,3.15-4.62,0-9.24,0-13.85.1-1.62,0-2.17-.74-2.13-2.22s0-3.25,0-4.87c-.006113-2.672102,1.067115-5.233438,2.976247-7.103032s4.492364-2.888992,7.163753-2.826968c3.1-.05,6.18.05,9.26.09Z" transform="translate(-1.32-25)" fill="#e7e7e7"/><path id="maneki-s-path27" d="M42.93,245.81c-6.25,0-12.5,0-18.74,0-2.86,0-4.46-1.36-4.45-3.67s1.62-3.66,4.47-3.67q18.61,0,37.25,0c2.86,0,4.52,1.32,4.6,3.56s-1.66,3.76-4.63,3.77h-18.5v.01Z" transform="translate(-1.32-25)" fill="#040403"/><path id="maneki-s-path28" d="M43.18,199.45c6.08,0,12.17,0,18.26,0c3,0,4.7,1.45,4.62,3.77s-1.74,3.55-4.61,3.55q-18.62,0-37.25,0c-2.84,0-4.46-1.37-4.46-3.66s1.6-3.67,4.45-3.68c6.33,0,12.66,0,19,0l-.01.02Z" transform="translate(-1.32-25)" fill="#040403"/><path id="maneki-s-path29" d="M43.15,219c6.09,0,12.17,0,18.26,0c3,0,4.71,1.43,4.65,3.75s-1.72,3.57-4.58,3.57q-18.63,0-37.25,0c-2.88,0-4.47-1.32-4.49-3.63s1.59-3.7,4.42-3.71c6.33,0,12.66,0,19,0l-.01.02Z" transform="translate(-1.32-25)" fill="#040403"/></g><path id="maneki-s-path30" d="M95.009461,108.97v.1" transform="matrix(0 0 0 0 95.009461 115.71)" fill="none" stroke="#f4580d" stroke-width="12" stroke-linecap="round"/>
<script><![CDATA[
!function(t,n){"object"==typeof exports&&"undefined"!=typeof module?module.exports=n():"function"==typeof __SVGATOR_DEFINE__&&__SVGATOR_DEFINE__.amd?__SVGATOR_DEFINE__(n):((t="undefined"!=typeof globalThis?globalThis:t||self).__SVGATOR_PLAYER__=t.__SVGATOR_PLAYER__||{},t.__SVGATOR_PLAYER__["5c7f360c"]=n())}(this,(function(){"use strict";function t(t,n){var e=Object.keys(t);if(Object.getOwnPropertySymbols){var r=Object.getOwnPropertySymbols(t);n&&(r=r.filter((function(n){return Object.getOwnPropertyDescriptor(t,n).enumerable}))),e.push.apply(e,r)}return e}function n(n){for(var e=1;e<arguments.length;e++){var r=null!=arguments[e]?arguments[e]:{};e%2?t(Object(r),!0).forEach((function(t){u(n,t,r[t])})):Object.getOwnPropertyDescriptors?Object.defineProperties(n,Object.getOwnPropertyDescriptors(r)):t(Object(r)).forEach((function(t){Object.defineProperty(n,t,Object.getOwnPropertyDescriptor(r,t))}))}return n}function e(t){return(e="function"==typeof Symbol&&"symbol"==typeof Symbol.iterator?function(t){return typeof t}:function(t){return t&&"function"==typeof Symbol&&t.constructor===Symbol&&t!==Symbol.prototype?"symbol":typeof t})(t)}function r(t,n){if(!(t instanceof n))throw new TypeError("Cannot call a class as a function")}function i(t,n){for(var e=0;e<n.length;e++){var r=n[e];r.enumerable=r.enumerable||!1,r.configurable=!0,"value"in r&&(r.writable=!0),Object.defineProperty(t,r.key,r)}}function o(t,n,e){return n&&i(t.prototype,n),e&&i(t,e),t}function u(t,n,e){return n in t?Object.defineProperty(t,n,{value:e,enumerable:!0,configurable:!0,writable:!0}):t[n]=e,t}function a(t){return(a=Object.setPrototypeOf?Object.getPrototypeOf:function(t){return t.__proto__||Object.getPrototypeOf(t)})(t)}function l(t,n){return(l=Object.setPrototypeOf||function(t,n){return t.__proto__=n,t})(t,n)}function s(){if("undefined"==typeof Reflect||!Reflect.construct)return!1;if(Reflect.construct.sham)return!1;if("function"==typeof Proxy)return!0;try{return Boolean.prototype.valueOf.call(Reflect.construct(Boolean,[],(function(){}))),!0}catch(t){return!1}}function f(t,n,e){return(f=s()?Reflect.construct:function(t,n,e){var r=[null];r.push.apply(r,n);var i=new(Function.bind.apply(t,r));return e&&l(i,e.prototype),i}).apply(null,arguments)}function c(t,n){if(n&&("object"==typeof n||"function"==typeof n))return n;if(void 0!==n)throw new TypeError("Derived constructors may only return object or undefined");return function(t){if(void 0===t)throw new ReferenceError("this hasn't been initialised - super() hasn't been called");return t}(t)}function h(t,n,e){return(h="undefined"!=typeof Reflect&&Reflect.get?Reflect.get:function(t,n,e){var r=function(t,n){for(;!Object.prototype.hasOwnProperty.call(t,n)&&null!==(t=a(t)););return t}(t,n);if(r){var i=Object.getOwnPropertyDescriptor(r,n);return i.get?i.get.call(e):i.value}})(t,n,e||t)}function v(t){return function(t){if(Array.isArray(t))return y(t)}(t)||function(t){if("undefined"!=typeof Symbol&&null!=t[Symbol.iterator]||null!=t["@@iterator"])return Array.from(t)}(t)||function(t,n){if(!t)return;if("string"==typeof t)return y(t,n);var e=Object.prototype.toString.call(t).slice(8,-1);"Object"===e&&t.constructor&&(e=t.constructor.name);if("Map"===e||"Set"===e)return Array.from(t);if("Arguments"===e||/^(?:Ui|I)nt(?:8|16|32)(?:Clamped)?Array$/.test(e))return y(t,n)}(t)||function(){throw new TypeError("Invalid attempt to spread non-iterable instance.\nIn order to be iterable, non-array objects must have a [Symbol.iterator]() method.")}()}function y(t,n){(null==n||n>t.length)&&(n=t.length);for(var e=0,r=new Array(n);e<n;e++)r[e]=t[e];return r}function g(t,n,e){if(Number.isInteger(t))return t;var r=Math.pow(10,n);return Math[e]((+t+Number.EPSILON)*r)/r}Number.isInteger||(Number.isInteger=function(t){return"number"==typeof t&&isFinite(t)&&Math.floor(t)===t}),Number.EPSILON||(Number.EPSILON=2220446049250313e-31);var d=p(Math.pow(10,-6));function p(t){var n=arguments.length>1&&void 0!==arguments[1]?arguments[1]:6;return g(t,n,"round")}function m(t,n){var e=arguments.length>2&&void 0!==arguments[2]?arguments[2]:d;return Math.abs(t-n)<e}p(Math.pow(10,-2)),p(Math.pow(10,-4));var b=Math.PI/180;function w(t){return t}function A(t,n,e){var r=1-e;return 3*e*r*(t*r+n*e)+e*e*e}function _(){var t=arguments.length>0&&void 0!==arguments[0]?arguments[0]:0,n=arguments.length>1&&void 0!==arguments[1]?arguments[1]:0,e=arguments.length>2&&void 0!==arguments[2]?arguments[2]:1,r=arguments.length>3&&void 0!==arguments[3]?arguments[3]:1;return t<0||t>1||e<0||e>1?null:m(t,n)&&m(e,r)?w:function(i){if(i<=0)return t>0?i*n/t:0===n&&e>0?i*r/e:0;if(i>=1)return e<1?1+(i-1)*(r-1)/(e-1):1===e&&t<1?1+(i-1)*(n-1)/(t-1):1;for(var o,u=0,a=1;u<a;){var l=A(t,e,o=(u+a)/2);if(m(i,l))break;l<i?u=o:a=o}return A(n,r,o)}}function x(){return 1}function k(t){return 1===t?1:0}function S(){var t=arguments.length>0&&void 0!==arguments[0]?arguments[0]:1,n=arguments.length>1&&void 0!==arguments[1]?arguments[1]:0;if(1===t){if(0===n)return k;if(1===n)return x}var e=1/t;return function(t){return t>=1?1:(t+=n*e)-t%e}}var O=Math.sin,j=Math.cos,M=Math.acos,E=Math.asin,P=Math.tan,I=Math.atan2,R=Math.PI/180,F=180/Math.PI,N=Math.sqrt,T=function(){function t(){var n=arguments.length>0&&void 0!==arguments[0]?arguments[0]:1,e=arguments.length>1&&void 0!==arguments[1]?arguments[1]:0,i=arguments.length>2&&void 0!==arguments[2]?arguments[2]:0,o=arguments.length>3&&void 0!==arguments[3]?arguments[3]:1,u=arguments.length>4&&void 0!==arguments[4]?arguments[4]:0,a=arguments.length>5&&void 0!==arguments[5]?arguments[5]:0;r(this,t),this.m=[n,e,i,o,u,a],this.i=null,this.w=null,this.s=null}return o(t,[{key:"determinant",get:function(){var t=this.m;return t[0]*t[3]-t[1]*t[2]}},{key:"isIdentity",get:function(){if(null===this.i){var t=this.m;this.i=1===t[0]&&0===t[1]&&0===t[2]&&1===t[3]&&0===t[4]&&0===t[5]}return this.i}},{key:"point",value:function(t,n){var e=this.m;return{x:e[0]*t+e[2]*n+e[4],y:e[1]*t+e[3]*n+e[5]}}},{key:"translateSelf",value:function(){var t=arguments.length>0&&void 0!==arguments[0]?arguments[0]:0,n=arguments.length>1&&void 0!==arguments[1]?arguments[1]:0;if(!t&&!n)return this;var e=this.m;return e[4]+=e[0]*t+e[2]*n,e[5]+=e[1]*t+e[3]*n,this.w=this.s=this.i=null,this}},{key:"rotateSelf",value:function(){var t=arguments.length>0&&void 0!==arguments[0]?arguments[0]:0;if(t%=360){var n=O(t*=R),e=j(t),r=this.m,i=r[0],o=r[1];r[0]=i*e+r[2]*n,r[1]=o*e+r[3]*n,r[2]=r[2]*e-i*n,r[3]=r[3]*e-o*n,this.w=this.s=this.i=null}return this}},{key:"scaleSelf",value:function(){var t=arguments.length>0&&void 0!==arguments[0]?arguments[0]:1,n=arguments.length>1&&void 0!==arguments[1]?arguments[1]:1;if(1!==t||1!==n){var e=this.m;e[0]*=t,e[1]*=t,e[2]*=n,e[3]*=n,this.w=this.s=this.i=null}return this}},{key:"skewSelf",value:function(t,n){if(n%=360,(t%=360)||n){var e=this.m,r=e[0],i=e[1],o=e[2],u=e[3];t&&(t=P(t*R),e[2]+=r*t,e[3]+=i*t),n&&(n=P(n*R),e[0]+=o*n,e[1]+=u*n),this.w=this.s=this.i=null}return this}},{key:"resetSelf",value:function(){var t=arguments.length>0&&void 0!==arguments[0]?arguments[0]:1,n=arguments.length>1&&void 0!==arguments[1]?arguments[1]:0,e=arguments.length>2&&void 0!==arguments[2]?arguments[2]:0,r=arguments.length>3&&void 0!==arguments[3]?arguments[3]:1,i=arguments.length>4&&void 0!==arguments[4]?arguments[4]:0,o=arguments.length>5&&void 0!==arguments[5]?arguments[5]:0,u=this.m;return u[0]=t,u[1]=n,u[2]=e,u[3]=r,u[4]=i,u[5]=o,this.w=this.s=this.i=null,this}},{key:"recomposeSelf",value:function(){var t=arguments.length>0&&void 0!==arguments[0]?arguments[0]:null,n=arguments.length>1&&void 0!==arguments[1]?arguments[1]:null,e=arguments.length>2&&void 0!==arguments[2]?arguments[2]:null,r=arguments.length>3&&void 0!==arguments[3]?arguments[3]:null,i=arguments.length>4&&void 0!==arguments[4]?arguments[4]:null;return this.isIdentity||this.resetSelf(),t&&(t.x||t.y)&&this.translateSelf(t.x,t.y),n&&this.rotateSelf(n),e&&(e.x&&this.skewSelf(e.x,0),e.y&&this.skewSelf(0,e.y)),!r||1===r.x&&1===r.y||this.scaleSelf(r.x,r.y),i&&(i.x||i.y)&&this.translateSelf(i.x,i.y),this}},{key:"decompose",value:function(){var t=arguments.length>0&&void 0!==arguments[0]?arguments[0]:0,n=arguments.length>1&&void 0!==arguments[1]?arguments[1]:0,e=this.m,r=e[0]*e[0]+e[1]*e[1],i=[[e[0],e[1]],[e[2],e[3]]],o=N(r);if(0===o)return{origin:{x:p(e[4]),y:p(e[5])},translate:{x:p(t),y:p(n)},scale:{x:0,y:0},skew:{x:0,y:0},rotate:0};i[0][0]/=o,i[0][1]/=o;var u=e[0]*e[3]-e[1]*e[2]<0;u&&(o=-o);var a=i[0][0]*i[1][0]+i[0][1]*i[1][1];i[1][0]-=i[0][0]*a,i[1][1]-=i[0][1]*a;var l=N(i[1][0]*i[1][0]+i[1][1]*i[1][1]);if(0===l)return{origin:{x:p(e[4]),y:p(e[5])},translate:{x:p(t),y:p(n)},scale:{x:p(o),y:0},skew:{x:0,y:0},rotate:0};i[1][0]/=l,i[1][1]/=l,a/=l;var s=0;return i[1][1]<0?(s=M(i[1][1])*F,i[0][1]<0&&(s=360-s)):s=E(i[0][1])*F,u&&(s=-s),a=I(a,N(i[0][0]*i[0][0]+i[0][1]*i[0][1]))*F,u&&(a=-a),{origin:{x:p(e[4]),y:p(e[5])},translate:{x:p(t),y:p(n)},scale:{x:p(o),y:p(l)},skew:{x:p(a),y:0},rotate:p(s)}}},{key:"clone",value:function(){var t=this.m;return new this.constructor(t[0],t[1],t[2],t[3],t[4],t[5])}},{key:"toString",value:function(){var t=arguments.length>0&&void 0!==arguments[0]?arguments[0]:" ";if(null===this.s){var n=this.m.map((function(t){return p(t)}));1===n[0]&&0===n[1]&&0===n[2]&&1===n[3]?this.s="translate("+n[4]+t+n[5]+")":this.s="matrix("+n.join(t)+")"}return this.s}}],[{key:"create",value:function(t){return t?Array.isArray(t)?f(this,v(t)):t instanceof this?t.clone():(new this).recomposeSelf(t.origin,t.rotate,t.skew,t.scale,t.translate):new this}}]),t}();function q(t,n,e){return t>=.5?e:n}function B(t,n,e){return 0===t||n===e?n:t*(e-n)+n}function D(t,n,e){var r=B(t,n,e);return r<=0?0:r}function L(t,n,e){var r=B(t,n,e);return r<=0?0:r>=1?1:r}function C(t,n,e){return 0===t?n:1===t?e:{x:B(t,n.x,e.x),y:B(t,n.y,e.y)}}function V(t,n,e){var r=function(t,n,e){return Math.round(B(t,n,e))}(t,n,e);return r<=0?0:r>=255?255:r}function G(t,n,e){return 0===t?n:1===t?e:{r:V(t,n.r,e.r),g:V(t,n.g,e.g),b:V(t,n.b,e.b),a:B(t,null==n.a?1:n.a,null==e.a?1:e.a)}}function z(t,n){for(var e=[],r=0;r<t;r++)e.push(n);return e}function Y(t,n){if(--n<=0)return t;var e=(t=Object.assign([],t)).length;do{for(var r=0;r<e;r++)t.push(t[r])}while(--n>0);return t}var $,U=function(){function t(n){r(this,t),this.list=n,this.length=n.length}return o(t,[{key:"setAttribute",value:function(t,n){for(var e=this.list,r=0;r<this.length;r++)e[r].setAttribute(t,n)}},{key:"removeAttribute",value:function(t){for(var n=this.list,e=0;e<this.length;e++)n[e].removeAttribute(t)}},{key:"style",value:function(t,n){for(var e=this.list,r=0;r<this.length;r++)e[r].style[t]=n}}]),t}(),Q=/-./g,H=function(t,n){return n.toUpperCase()};function J(t){return"function"==typeof t?t:q}function Z(t){return t?"function"==typeof t?t:Array.isArray(t)?function(t){var n=arguments.length>1&&void 0!==arguments[1]?arguments[1]:w;if(!Array.isArray(t))return n;switch(t.length){case 1:return S(t[0])||n;case 2:return S(t[0],t[1])||n;case 4:return _(t[0],t[1],t[2],t[3])||n}return n}(t,null):function(t,n){var e=arguments.length>2&&void 0!==arguments[2]?arguments[2]:w;switch(t){case"linear":return w;case"steps":return S(n.steps||1,n.jump||0)||e;case"bezier":case"cubic-bezier":return _(n.x1||0,n.y1||0,n.x2||0,n.y2||0)||e}return e}(t.type,t.value,null):null}function K(t,n,e){var r=arguments.length>3&&void 0!==arguments[3]&&arguments[3],i=n.length-1;if(t<=n[0].t)return r?[0,0,n[0].v]:n[0].v;if(t>=n[i].t)return r?[i,1,n[i].v]:n[i].v;var o,u=n[0],a=null;for(o=1;o<=i;o++){if(!(t>n[o].t)){a=n[o];break}u=n[o]}return null==a?r?[i,1,n[i].v]:n[i].v:u.t===a.t?r?[o,1,a.v]:a.v:(t=(t-u.t)/(a.t-u.t),u.e&&(t=u.e(t)),r?[o,t,e(t,u.v,a.v)]:e(t,u.v,a.v))}function W(t,n){var e=arguments.length>2&&void 0!==arguments[2]?arguments[2]:null;return t&&t.length?"function"!=typeof n?null:("function"!=typeof e&&(e=null),function(r){var i=K(r,t,n);return null!=i&&e&&(i=e(i)),i}):null}function X(t,n){return t.t-n.t}function tt(t,n,r,i,o){var u,a="@"===r[0],l="#"===r[0],s=$[r],f=q;switch(a?(u=r.substr(1),r=u.replace(Q,H)):l&&(r=r.substr(1)),e(s)){case"function":if(f=s(i,o,K,Z,r,a,n,t),l)return f;break;case"string":f=W(i,J(s));break;case"object":if((f=W(i,J(s.i),s.f))&&"function"==typeof s.u)return s.u(n,f,r,a,t)}return f?function(t,n,e){if(arguments.length>3&&void 0!==arguments[3]&&arguments[3])return t instanceof U?function(r){return t.style(n,e(r))}:function(r){return t.style[n]=e(r)};if(Array.isArray(n)){var r=n.length;return function(i){var o=e(i);if(null==o)for(var u=0;u<r;u++)t[u].removeAttribute(n);else for(var a=0;a<r;a++)t[a].setAttribute(n,o)}}return function(r){var i=e(r);null==i?t.removeAttribute(n):t.setAttribute(n,i)}}(n,r,f,a):null}function nt(t,n,r,i){if(!i||"object"!==e(i))return null;var o=null,u=null;return Array.isArray(i)?u=function(t){if(!t||!t.length)return null;for(var n=0;n<t.length;n++)t[n].e&&(t[n].e=Z(t[n].e));return t.sort(X)}(i):(u=i.keys,o=i.data||null),u?tt(t,n,r,u,o):null}function et(t,n,e){if(!e)return null;var r=[];for(var i in e)if(e.hasOwnProperty(i)){var o=nt(t,n,i,e[i]);o&&r.push(o)}return r.length?r:null}function rt(t,n){if(!n.settings.duration||n.settings.duration<0)return null;var e,r,i,o,u,a=function(t,n){if(!n)return null;var e=[];if(Array.isArray(n))for(var r=n.length,i=0;i<r;i++){var o=n[i];if(2===o.length){var u=null;if("string"==typeof o[0])u=t.getElementById(o[0]);else if(Array.isArray(o[0])){u=[];for(var a=0;a<o[0].length;a++)if("string"==typeof o[0][a]){var l=t.getElementById(o[0][a]);l&&u.push(l)}u=u.length?1===u.length?u[0]:new U(u):null}if(u){var s=et(t,u,o[1]);s&&(e=e.concat(s))}}}else for(var f in n)if(n.hasOwnProperty(f)){var c=t.getElementById(f);if(c){var h=et(t,c,n[f]);h&&(e=e.concat(h))}}return e.length?e:null}(t,n.elements);return a?(e=a,r=n.settings,i=r.duration,o=e.length,u=null,function(t,n){var a=r.iterations||1/0,l=(r.alternate&&a%2==0)^r.direction>0?i:0,s=t%i,f=1+(t-s)/i;n*=r.direction,r.alternate&&f%2==0&&(n=-n);var c=!1;if(f>a)s=l,c=!0,-1===r.fill&&(s=r.direction>0?0:i);else if(n<0&&(s=i-s),s===u)return!1;u=s;for(var h=0;h<o;h++)e[h](s);return c}):null}function it(t,n){for(var e=n.querySelectorAll("svg"),r=0;r<e.length;r++)if(e[r].id===t.root&&!e[r].svgatorAnimation)return e[r].svgatorAnimation=!0,e[r];return null}function ot(t){var n=function(t){return t.shadowRoot};return document?Array.from(t.querySelectorAll(":not("+["a","area","audio","br","canvas","circle","datalist","embed","g","head","hr","iframe","img","input","link","object","path","polygon","rect","script","source","style","svg","title","track","video"].join()+")")).filter(n).map(n):[]}function ut(t){var n=arguments.length>1&&void 0!==arguments[1]?arguments[1]:document,e=arguments.length>2&&void 0!==arguments[2]?arguments[2]:0,r=it(t,n);if(r)return r;if(e>=20)return null;for(var i=ot(n),o=0;o<i.length;o++){var u=ut(t,i[o],e+1);if(u)return u}return null}function at(t,n){if($=n,!t||!t.root||!Array.isArray(t.animations))return null;var e=ut(t);if(!e)return null;var r=t.animations.map((function(t){return rt(e,t)})).filter((function(t){return!!t}));return r.length?{svg:e,animations:r,animationSettings:t.animationSettings,options:t.options||void 0}:null}function lt(t){var n=arguments.length>1&&void 0!==arguments[1]?arguments[1]:null,e=arguments.length>2&&void 0!==arguments[2]?arguments[2]:Number,r=arguments.length>3&&void 0!==arguments[3]?arguments[3]:"undefined"!=typeof BigInt&&BigInt,i="0x"+(t.replace(/[^0-9a-fA-F]+/g,"")||27);return n&&r&&e.isSafeInteger&&!e.isSafeInteger(+i)?e(r(i))%n+n:+i}function st(t,n,e){return!t||!e||n>t.length?t:t.substring(0,n)+st(t.substring(n+1),e,e)}function ft(t){var n=arguments.length>1&&void 0!==arguments[1]?arguments[1]:27;return!t||t%n?t%n:[0,1].includes(n)?n:ft(t/n,n)}function ct(t,n,e){if(t&&t.length){var r=lt(e),i=ft(r)+5,o=st(t,ft(r,5),i);return o=o.replace(/\x7c$/g,"==").replace(/\x2f$/g,"="),o=function(t,n,e){var r=+("0x"+t.substring(0,4));t=t.substring(4);for(var i=lt(n,r)%r+e%27,o=[],u=0;u<t.length;u+=2)if("|"!==t[u]){var a=+("0x"+t[u]+t[u+1])-i;o.push(a)}else{var l=+("0x"+t.substring(u+1,u+1+4))-i;u+=3,o.push(l)}return String.fromCharCode.apply(String,o)}(o=(o=atob(o)).replace(/[\x41-\x5A]/g,""),n,r),o=JSON.parse(o)}}var ht=[{key:"alternate",def:!1},{key:"fill",def:1},{key:"iterations",def:0},{key:"direction",def:1},{key:"speed",def:1},{key:"fps",def:100}],vt=function(){function t(n,e){var i=this,o=arguments.length>2&&void 0!==arguments[2]?arguments[2]:null;r(this,t),this._id=0,this._running=!1,this._rollingBack=!1,this._animations=n,this._settings=e,(!o||o<"2022-05-02")&&delete this._settings.speed,ht.forEach((function(t){i._settings[t.key]=i._settings[t.key]||t.def})),this.duration=e.duration,this.offset=e.offset||0,this.rollbackStartOffset=0}return o(t,[{key:"alternate",get:function(){return this._settings.alternate}},{key:"fill",get:function(){return this._settings.fill}},{key:"iterations",get:function(){return this._settings.iterations}},{key:"direction",get:function(){return this._settings.direction}},{key:"speed",get:function(){return this._settings.speed}},{key:"fps",get:function(){return this._settings.fps}},{key:"maxFiniteDuration",get:function(){return this.iterations>0?this.iterations*this.duration:this.duration}},{key:"_apply",value:function(t){for(var n=arguments.length>1&&void 0!==arguments[1]?arguments[1]:{},e=this._animations,r=e.length,i=0,o=0;o<r;o++)n[o]?i++:(n[o]=e[o](t,1),n[o]&&i++);return i}},{key:"_rollback",value:function(t){var n=this,e=1/0,r=null;this.rollbackStartOffset=t,this._rollingBack=!0,this._running=!0;this._id=window.requestAnimationFrame((function i(o){if(n._rollingBack){null==r&&(r=o);var u=Math.round(t-(o-r)*n.speed);if(u>n.duration&&e!==1/0){var a=!!n.alternate&&u/n.duration%2>1,l=u%n.duration;u=(l+=a?n.duration:0)||n.duration}var s=(n.fps?1e3/n.fps:0)*n.speed,f=Math.max(0,u);f<=e-s&&(n.offset=f,e=f,n._apply(f));var c=n.iterations>0&&-1===n.fill&&u>=n.maxFiniteDuration;(u<=0||n.offset<u||c)&&n.stop(),n._id=window.requestAnimationFrame(i)}}))}},{key:"_start",value:function(){var t=this,n=arguments.length>0&&void 0!==arguments[0]?arguments[0]:0,e=-1/0,r=null,i={};this._running=!0;var o=function o(u){null==r&&(r=u);var a=Math.round((u-r)*t.speed+n),l=(t.fps?1e3/t.fps:0)*t.speed;if(a>=e+l&&!t._rollingBack&&(t.offset=a,e=a,t._apply(a,i)===t._animations.length))return void t.pause(!0);t._id=window.requestAnimationFrame(o)};this._id=window.requestAnimationFrame(o)}},{key:"_pause",value:function(){this._id&&window.cancelAnimationFrame(this._id),this._running=!1}},{key:"play",value:function(){if(!this._running)return this._rollingBack?this._rollback(this.offset):this._start(this.offset)}},{key:"stop",value:function(){this._pause(),this.offset=0,this.rollbackStartOffset=0,this._rollingBack=!1,this._apply(0)}},{key:"reachedToEnd",value:function(){return this.iterations>0&&this.offset>=this.iterations*this.duration}},{key:"restart",value:function(){var t=arguments.length>0&&void 0!==arguments[0]&&arguments[0];this.stop(t),this.play(t)}},{key:"pause",value:function(){this._pause()}},{key:"reverse",value:function(){this.direction=-this.direction}}],[{key:"build",value:function(t,n){delete t.animationSettings,t.options=ct(t.options,t.root,"5c7f360c"),t.animations.map((function(n){n.settings=ct(n.s,t.root,"5c7f360c"),delete n.s,t.animationSettings||(t.animationSettings=n.settings)}));var e=t.version;if(!(t=at(t,n)))return null;var r=t.options||{},i=new this(t.animations,t.animationSettings,e);return{el:t.svg,options:r,player:i}}},{key:"push",value:function(t){return this.build(t)}},{key:"init",value:function(){var t=this,n=window.__SVGATOR_PLAYER__&&window.__SVGATOR_PLAYER__["5c7f360c"];Array.isArray(n)&&n.splice(0).forEach((function(n){return t.build(n)}))}}]),t}();function yt(t){return p(t)+""}function gt(t){var n=arguments.length>1&&void 0!==arguments[1]?arguments[1]:" ";return t&&t.length?t.map(yt).join(n):""}function dt(t){if(!t)return"transparent";if(null==t.a||t.a>=1){var n=function(t){return 1===(t=parseInt(t).toString(16)).length?"0"+t:t},e=function(t){return t.charAt(0)===t.charAt(1)},r=n(t.r),i=n(t.g),o=n(t.b);return e(r)&&e(i)&&e(o)&&(r=r.charAt(0),i=i.charAt(0),o=o.charAt(0)),"#"+r+i+o}return"rgba("+t.r+","+t.g+","+t.b+","+t.a+")"}function pt(t){return t?"url(#"+t+")":"none"}!function(){for(var t=0,n=["ms","moz","webkit","o"],e=0;e<n.length&&!window.requestAnimationFrame;++e)window.requestAnimationFrame=window[n[e]+"RequestAnimationFrame"],window.cancelAnimationFrame=window[n[e]+"CancelAnimationFrame"]||window[n[e]+"CancelRequestAnimationFrame"];window.requestAnimationFrame||(window.requestAnimationFrame=function(n){var e=Date.now(),r=Math.max(0,16-(e-t)),i=window.setTimeout((function(){n(e+r)}),r);return t=e+r,i},window.cancelAnimationFrame=window.clearTimeout)}();var mt={f:null,i:function(t,n,e){return 0===t?n:1===t?e:{x:D(t,n.x,e.x),y:D(t,n.y,e.y)}},u:function(t,n){return function(e){var r=n(e);t.setAttribute("rx",yt(r.x)),t.setAttribute("ry",yt(r.y))}}},bt={f:null,i:function(t,n,e){return 0===t?n:1===t?e:{width:D(t,n.width,e.width),height:D(t,n.height,e.height)}},u:function(t,n){return function(e){var r=n(e);t.setAttribute("width",yt(r.width)),t.setAttribute("height",yt(r.height))}}};Object.freeze({M:2,L:2,Z:0,H:1,V:1,C:6,Q:4,T:2,S:4,A:7});var wt={},At=null;function _t(t){var n=function(){if(At)return At;if("object"!==("undefined"==typeof document?"undefined":e(document))||!document.createElementNS)return{};var t=document.createElementNS("http://www.w3.org/2000/svg","svg");return t&&t.style?(t.style.position="absolute",t.style.opacity="0.01",t.style.zIndex="-9999",t.style.left="-9999px",t.style.width="1px",t.style.height="1px",At={svg:t}):{}}().svg;if(!n)return function(t){return null};var r=document.createElementNS(n.namespaceURI,"path");r.setAttributeNS(null,"d",t),r.setAttributeNS(null,"fill","none"),r.setAttributeNS(null,"stroke","none"),n.appendChild(r);var i=r.getTotalLength();return function(t){var n=r.getPointAtLength(i*t);return{x:n.x,y:n.y}}}function xt(t){return wt[t]?wt[t]:wt[t]=_t(t)}function kt(t,n,e,r){if(!t||!r)return!1;var i=["M",t.x,t.y];if(n&&e&&(i.push("C"),i.push(n.x),i.push(n.y),i.push(e.x),i.push(e.y)),n?!e:e){var o=n||e;i.push("Q"),i.push(o.x),i.push(o.y)}return n||e||i.push("L"),i.push(r.x),i.push(r.y),i.join(" ")}function St(t,n,e,r){var i=arguments.length>4&&void 0!==arguments[4]?arguments[4]:1,o=kt(t,n,e,r),u=xt(o);try{return u(i)}catch(t){return null}}function Ot(t,n,e){return t+(n-t)*e}function jt(t,n,e){var r=arguments.length>3&&void 0!==arguments[3]&&arguments[3],i={x:Ot(t.x,n.x,e),y:Ot(t.y,n.y,e)};return r&&(i.a=Mt(t,n)),i}function Mt(t,n){return Math.atan2(n.y-t.y,n.x-t.x)}function Et(t,n,e,r){var i=1-r;return i*i*t+2*i*r*n+r*r*e}function Pt(t,n,e,r){return 2*(1-r)*(n-t)+2*r*(e-n)}function It(t,n,e,r){var i=arguments.length>4&&void 0!==arguments[4]&&arguments[4],o=St(t,n,null,e,r);return o||(o={x:Et(t.x,n.x,e.x,r),y:Et(t.y,n.y,e.y,r)}),i&&(o.a=Rt(t,n,e,r)),o}function Rt(t,n,e,r){return Math.atan2(Pt(t.y,n.y,e.y,r),Pt(t.x,n.x,e.x,r))}function Ft(t,n,e,r,i){var o=i*i;return i*o*(r-t+3*(n-e))+3*o*(t+e-2*n)+3*i*(n-t)+t}function Nt(t,n,e,r,i){var o=1-i;return 3*(o*o*(n-t)+2*o*i*(e-n)+i*i*(r-e))}function Tt(t,n,e,r,i){var o=arguments.length>5&&void 0!==arguments[5]&&arguments[5],u=St(t,n,e,r,i);return u||(u={x:Ft(t.x,n.x,e.x,r.x,i),y:Ft(t.y,n.y,e.y,r.y,i)}),o&&(u.a=qt(t,n,e,r,i)),u}function qt(t,n,e,r,i){return Math.atan2(Nt(t.y,n.y,e.y,r.y,i),Nt(t.x,n.x,e.x,r.x,i))}function Bt(t,n,e){var r=arguments.length>3&&void 0!==arguments[3]&&arguments[3];if(Lt(n)){if(Ct(e))return It(n,e.start,e,t,r)}else if(Lt(e)){if(Vt(n))return It(n,n.end,e,t,r)}else{if(Vt(n))return Ct(e)?Tt(n,n.end,e.start,e,t,r):It(n,n.end,e,t,r);if(Ct(e))return It(n,e.start,e,t,r)}return jt(n,e,t,r)}function Dt(t,n,e){var r=Bt(t,n,e,!0);return r.a=function(t){return arguments.length>1&&void 0!==arguments[1]&&arguments[1]?t+Math.PI:t}(r.a)/b,r}function Lt(t){return!t.type||"corner"===t.type}function Ct(t){return null!=t.start&&!Lt(t)}function Vt(t){return null!=t.end&&!Lt(t)}var Gt=new T;var zt={f:yt,i:B},Yt={f:yt,i:L};function $t(t,n,e){return t.map((function(t){return function(t,n,e){var r=t.v;if(!r||"g"!==r.t||r.s||!r.v||!r.r)return t;var i=e.getElementById(r.r),o=i&&i.querySelectorAll("stop")||[];return r.s=r.v.map((function(t,n){var e=o[n]&&o[n].getAttribute("offset");return{c:t,o:e=p(parseInt(e)/100)}})),delete r.v,t}(t,0,e)}))}var Ut={gt:"gradientTransform",c:{x:"cx",y:"cy"},rd:"r",f:{x:"x1",y:"y1"},to:{x:"x2",y:"y2"}};function Qt(t,n,r,i,o,u,a,l){return $t(t,0,l),n=function(t,n,e){for(var r,i,o,u=t.length-1,a={},l=0;l<=u;l++)(r=t[l]).e&&(r.e=n(r.e)),r.v&&"g"===(i=r.v).t&&i.r&&(o=e.getElementById(i.r))&&(a[i.r]={e:o,s:o.querySelectorAll("stop")});return a}(t,i,l),function(i){var o=r(i,t,Ht);if(!o)return"none";if("c"===o.t)return dt(o.v);if("g"===o.t){if(!n[o.r])return pt(o.r);var u=n[o.r];return function(t,n){for(var e=t.s,r=e.length;r<n.length;r++){var i=e[e.length-1].cloneNode();i.id=Kt(i.id),t.e.appendChild(i),e=t.s=t.e.querySelectorAll("stop")}for(var o=0,u=e.length,a=n.length-1;o<u;o++)e[o].setAttribute("stop-color",dt(n[Math.min(o,a)].c)),e[o].setAttribute("offset",n[Math.min(o,a)].o)}(u,o.s),Object.keys(Ut).forEach((function(t){if(void 0!==o[t])if("object"!==e(Ut[t])){var n,r="gt"===t?(n=o[t],Array.isArray(n)?"matrix("+n.join(" ")+")":""):o[t],i=Ut[t];u.e.setAttribute(i,r)}else Object.keys(Ut[t]).forEach((function(n){if(void 0!==o[t][n]){var e=o[t][n],r=Ut[t][n];u.e.setAttribute(r,e)}}))})),pt(o.r)}return"none"}}function Ht(t,e,r){if(0===t)return e;if(1===t)return r;if(e&&r){var i=e.t;if(i===r.t)switch(e.t){case"c":return{t:i,v:G(t,e.v,r.v)};case"g":if(e.r===r.r){var o={t:i,s:Jt(t,e.s,r.s),r:e.r};return e.gt&&r.gt&&(o.gt=function(t,n,e){var r=n.length;if(r!==e.length)return q(t,n,e);for(var i=new Array(r),o=0;o<r;o++)i[o]=B(t,n[o],e[o]);return i}(t,e.gt,r.gt)),e.c?(o.c=C(t,e.c,r.c),o.rd=D(t,e.rd,r.rd)):e.f&&(o.f=C(t,e.f,r.f),o.to=C(t,e.to,r.to)),o}}if("c"===e.t&&"g"===r.t||"c"===r.t&&"g"===e.t){var u="c"===e.t?e:r,a="g"===e.t?n({},e):n({},r),l=a.s.map((function(t){return{c:u.v,o:t.o}}));return a.s="c"===e.t?Jt(t,l,a.s):Jt(t,a.s,l),a}}return q(t,e,r)}function Jt(t,n,e){if(n.length===e.length)return n.map((function(n,r){return Zt(t,n,e[r])}));for(var r=Math.max(n.length,e.length),i=[],o=0;o<r;o++){var u=Zt(t,n[Math.min(o,n.length-1)],e[Math.min(o,e.length-1)]);i.push(u)}return i}function Zt(t,n,e){return{o:L(t,n.o,e.o||0),c:G(t,n.c,e.c||{})}}function Kt(t){return t.replace(/-fill-([0-9]+)$/,(function(t,n){return"-fill-"+(+n+1)}))}var Wt={fill:Qt,"fill-opacity":Yt,stroke:Qt,"stroke-opacity":Yt,"stroke-width":zt,"stroke-dashoffset":{f:yt,i:B},"stroke-dasharray":{f:function(t){var n=arguments.length>1&&void 0!==arguments[1]?arguments[1]:" ";return t&&t.length>0&&(t=t.map((function(t){return p(t,4)}))),gt(t,n)},i:function(t,n,e){var r,i,o,u=n.length,a=e.length;if(u!==a)if(0===u)n=z(u=a,0);else if(0===a)a=u,e=z(u,0);else{var l=(o=(r=u)*(i=a)/function(t,n){for(var e;n;)e=n,n=t%n,t=e;return t||1}(r,i))<0?-o:o;n=Y(n,Math.floor(l/u)),e=Y(e,Math.floor(l/a)),u=a=l}for(var s=[],f=0;f<u;f++)s.push(p(D(t,n[f],e[f])));return s}},opacity:Yt,transform:function(t,n,r,i){if(!(t=function(t,n){if(!t||"object"!==e(t))return null;var r=!1;for(var i in t)t.hasOwnProperty(i)&&(t[i]&&t[i].length?(t[i].forEach((function(t){t.e&&(t.e=n(t.e))})),r=!0):delete t[i]);return r?t:null}(t,i)))return null;var o=function(e,i,o){var u=arguments.length>3&&void 0!==arguments[3]?arguments[3]:null;return t[e]?r(i,t[e],o):n&&n[e]?n[e]:u};return n&&n.a&&t.o?function(n){var e=r(n,t.o,Dt);return Gt.recomposeSelf(e,o("r",n,B,0)+e.a,o("k",n,C),o("s",n,C),o("t",n,C)).toString()}:function(t){return Gt.recomposeSelf(o("o",t,Bt,null),o("r",t,B,0),o("k",t,C),o("s",t,C),o("t",t,C)).toString()}},r:zt,"#size":bt,"#radius":mt,_:function(t,n){if(Array.isArray(t))for(var e=0;e<t.length;e++)this[t[e]]=n;else this[t]=n}},Xt=function(t){!function(t,n){if("function"!=typeof n&&null!==n)throw new TypeError("Super expression must either be null or a function");t.prototype=Object.create(n&&n.prototype,{constructor:{value:t,writable:!0,configurable:!0}}),n&&l(t,n)}(u,t);var n,e,i=(n=u,e=s(),function(){var t,r=a(n);if(e){var i=a(this).constructor;t=Reflect.construct(r,arguments,i)}else t=r.apply(this,arguments);return c(this,t)});function u(){return r(this,u),i.apply(this,arguments)}return o(u,null,[{key:"build",value:function(t){var n=h(a(u),"build",this).call(this,t,Wt);if(!n)return null;n.el,n.options,function(t,n,e){t.play()}(n.player)}}]),u}(vt);return Xt.init(),Xt}));
(function(s,i,o,w,d,a,b){w[o]=w[o]||{};w[o][s]=w[o][s]||[];w[o][s].push(i);})('5c7f360c',{"root":"maneki","version":"2022-05-04","animations":[{"elements":{"maneki-u-kato":{"transform":{"data":{"o":{"x":95.241253,"y":100.007969,"type":"corner"},"t":{"x":-92.301792,"y":-93.477241}},"keys":{"r":[{"t":1700,"v":0},{"t":1800,"v":15},{"t":2700,"v":15},{"t":2800,"v":0}]}}},"maneki-s-path30":{"transform":{"data":{"o":{"x":95.009461,"y":115.71,"type":"corner"},"t":{"x":-95.009458,"y":-104.71}},"keys":{"s":[{"t":500,"v":{"x":0,"y":0}},{"t":600,"v":{"x":1,"y":1}},{"t":1000,"v":{"x":1,"y":1}},{"t":1100,"v":{"x":0,"y":0}}]}}}},"s":"MMDA1ZGQ4N2ZjMWQyY2BZiZWQxYzZjY1ZjYjdGmOTc5MDhkOGQ4ZDg5FN2ZjMWM2Y2ZjMmMwZSDFjNmNjY2I3Zjk3OGNU4OTdmYzZkMWMyY2ZWiZWQxYzZjY2NiZDA3BZjk3UDhkODlFN2ZjMW2M2YzljOTdmOTdWOGNVDODk3ZmJlYzlkMU5JjMmNmY2JiZWQxYzI3TZjk3YzNiZWM5ZDBjMAlE4OTdmZDBjZGMyYzMJjMTdmOTdWOGU4OTdRmYzNjZGQwTjdmOTc4YZThkOGRkYQ|"}],"options":"MXDAxMDk1M2M4ZDhlN2BI4YzhlM2M1NDNjODZISODk3YjdlM2M5Nw|"},'__SVGATOR_PLAYER__',window,document)
]]></script>
</svg>
