<svg id="nigiri" xmlns="http://www.w3.org/2000/svg" xmlns:xlink="http://www.w3.org/1999/xlink" width="200px" viewBox="0 0 200 165" shape-rendering="geometricPrecision" text-rendering="geometricPrecision"><path id="nigiri-s-path1" d="M199.6,57c-.867977-4.948393-3.043066-9.574773-6.3-13.4-9.86917-11.862023-21.96278-21.679589-35.6-28.9-2.2-1.2-3-1-4.8.8-.6,2.1.2,3.4,2.1,4.4c2.6,1.4,5,3,7.6,4.4.350129.124147.635995.383281.793812.71958s.174449.721777.046188,1.07042c.004129.03655.004129.07345,0,.11.003258.027391-.006225.054764-.02573.07427s-.046879.028988-.07427.02573v0c-4.801573,15.595249-6.898514,31.897271-6.2,48.2c0,.8.2,1.6-1.1,1.3-11.36246-1.799382-22.811548-3.001035-34.3-3.6-1.4-.1-1.8-.5-1.7-1.9c1.313307-19.953279,5.698253-39.584345,13-58.2.4-1.1.9-1.2,1.9-.8c2,.8,4.1,1.4,6,2.1s3.5.5,4.7-1.3c.2-2.6-.2-3.3-2.7-4.2q-41.55-15.45-83.4-.7C39.715174,14.079858,22.022018,26.00051,8.2,41.79c-6.5,7.3-9.3,15.6-7.8,25.3c1,6.1,3,12,8,15.8c3.2,2.4,6,4.7,7.6,8.4.4.9.5,1.3-.1,2.1-3.8,5.6-4.1,11.4-.6,17.2.49928.7221.49928,1.6779,0,2.4-3.179818,4.921383-3.21882,11.239736-.1,16.2.585001.730666.585001,1.769334,0,2.5-4.136985,6.557392-2.671474,15.178046,3.4,20c.691445.523144,1.241396,1.210583,1.6,2c3.011411,7.868676,11.829997,11.807944,19.7,8.8.980658-.365321,1.919349-.834667,2.8-1.4.648006-.500292,1.551994-.500292,2.2,0c5.040952,3.301216,11.559048,3.301216,16.6,0c.648006-.500292,1.551994-.500292,2.2,0c4.96854,3.300358,11.43146,3.300358,16.4,0c.625013-.53039,1.529446-.571501,2.2-.1c5.010801,3.40079,11.589199,3.40079,16.6,0c.648006-.500292,1.551994-.500292,2.2,0c4.998496,3.199584,11.401504,3.199584,16.4,0c.625013-.53039,1.529446-.571501,2.2-.1c5.010801,3.40079,11.589199,3.40079,16.6,0c.648006-.500292,1.551994-.500292,2.2,0c4.962878,3.283448,11.39745,3.322683,16.4.1.686677-.602191,1.713323-.602191,2.4,0c7.078474,4.502316,16.464654,2.437357,21-4.62l.05-.08c.531879-.813789.968096-1.686223,1.3-2.6.254787-.710657.705486-1.334702,1.3-1.8c6.5-5.2,7.9-13.4,3.5-20.4-.500292-.648006-.500292-1.551994,0-2.2c3.300358-4.96854,3.300358-11.43146,0-16.4-.602191-.686677-.602191-1.713323,0-2.4c3-4.9,3.4-10.1.5-15.2-1.3-2.3-1.5-3.8,0-6.2c1.138478-2.081825,2.79093-3.837555,4.8-5.1c5-3,7.4-8,9-13.4.4-1.3.2-2.7,1.1-3.8v-9c-.35,0-.25-.4-.25-.79ZM98.9,5.89c8.851003-.086739,17.680543.88686,26.3,2.9c2.5.6,2.5.6,1.6,2.9-7.301606,18.740023-11.588074,38.518528-12.7,58.6c0,.9,0,1.6-1.3,1.6-12.6-.3-25.2-.3-37.8.6-.2,0-.5-.1-.7-.1c1.4-6.2,2.9-12.2,4.7-18.3c4.646464-15.848119,10.393771-31.352484,17.2-46.4.339016-1.179322,1.481005-1.940648,2.7-1.8ZM16.6,80.59c-3.2-.4-5.4-2.5-7.1-5-5.307931-8.621155-4.792028-19.613862,1.3-27.7c6.208386-7.72801,13.520014-14.500533,21.7-20.1c4.894326-3.479556,10.042014-6.588225,15.4-9.3.3.8-.2,1.2-.5,1.6-12.099731,17.819045-21.25026,37.470736-27.1,58.2-.6,2.1-1.3,2.6-3.7,2.3Zm164.5,60.5c-.1.5-.2,1-.3,1.4-.743299,2.281238-2.265503,4.228243-4.3,5.5-.92718.608101-1.602273,1.531914-1.9,2.6-2.2,7.2-10.4,9.3-15.9,4.2-2-1.9-3.2-1.9-5.3.1-3.65549,3.675617-9.589654,3.720235-13.3.1l-.1-.1c-2.1-1.9-3.2-1.9-5.3,0-4.1,3.8-9.4,3.7-13.5-.1-1.9-1.8-3.2-1.8-5.2.1-3.630188,3.69835-9.56025,3.787524-13.3.2l-.2-.2c-2-1.9-3.2-1.9-5.2,0-4.2,3.9-9.5,3.8-13.6-.1-1.9-1.8-3.2-1.8-5,0-4.1,3.9-9.5,3.9-13.6,0-2-1.8-3.2-1.8-5.2.1-1.734146,1.777627-4.103641,2.793236-6.586849,2.823245s-4.876554-.928044-6.653151-2.663245L46.6,155v0c-2.2-2-3.3-2-5.5,0-3.728933,3.6702-9.726258,3.625444-13.4-.1-1.101234-1.110813-1.893952-2.489455-2.3-4c0-.2-.1-.3-.1-.5-.406488-1.041322-1.14447-1.919873-2.1-2.5-1.796185-1.098314-3.143135-2.799724-3.8-4.8-.1-.2-.1-.4-.2-.5-.1-.5-.2-1-.3-1.4v-1.7c.109402-1.525981.590006-3.002119,1.4-4.3.377055-.576695.812702-1.112877,1.3-1.6c1.2-1.3,1.7-2.2,1.5-3.1-.246303-.905056-.771071-1.7097-1.5-2.3-1.920798-1.882409-2.909428-4.518756-2.7-7.2v-.3c.201101-2.158555,1.1572-4.176986,2.7-5.7l.1-.1c1-1.1,1.5-1.9,1.5-2.8v-.2c-.246303-.905056-.771071-1.7097-1.5-2.3-1.313428-1.274279-2.218422-2.910229-2.6-4.7c0-.2-.1-.4-.1-.6s-.1-.5-.1-.7v-1.6c.207125-2.136685,1.122242-4.142902,2.6-5.7l.8-.8c.793745-.569519,1.388429-1.374092,1.7-2.3-.013232-.109925.02346-.219999.1-.3.2-1-.4-2-1.8-3.1-1.09903-.847939-1.931932-1.993179-2.4-3.3v0c4.8-.9,9.5-1.9,14.3-2.8c2.8-.5,5.6-1,8.5-1.5c2-.3,3.1-1.3,3.2-3.3v0c-1-2.5-1.8-2.9-4.3-2.5-4.5.8-9,1.5-13.4,2.4-1.6.3-1.7-.1-1.3-1.6c6.847779-22.569711,17.611746-43.759156,31.8-62.6.293846-.493675.706325-.906154,1.2-1.2c4.068621-1.569228,8.246395-2.839272,12.5-3.8C78,7.69,84,7,90.3,6.29c-1.5,3.5-2.9,6.7-4.3,10-4.818066,11.559776-8.991144,23.377933-12.5,35.4l-.3.9-4.8,19.2c-.3,1.2-1.1,1.2-2,1.3-3.6.4-7.2.7-10.8,1.1-2.4.3-3,1-3.2,3.5v0c.8,2,2.2,2.5,4.2,2.2c21.934424-2.578876,44.054057-3.211343,66.1-1.89c19.208897,1.212531,38.297482,3.886939,57.1,8c.156656.002999.303608.076475.4.2-.1.2-.1.3-.2.5-.202385.522653-.508541.998895-.9,1.4-.2.3-.5.5-.7.8-.1.1-.3.2-.4.4v0c-.1.1-.3.2-.4.3-.112836.124754-.248642.226609-.4.3-.292591.248815-.530864.555165-.7.9-.8,1.3-.4,2.6,1.1,3.9c4.3,3.9,4.9,8.8,1.8,13.2v.1c-.201933.323155-.436495.624734-.7.9-.124754.112836-.226609.248642-.3.4-.363636.348063-.667677.753452-.9,1.2c0,.1-.1.2-.1.3-.5,1.1-.1,2.1,1,3.3c2.3,2.5,3.3,5.2,3,7.9-.087137.576552-.220909,1.145084-.4,1.7c0,.1-.1.2-.1.4-.2.5-.4.9-.6,1.4-.105275.110257-.174959.249626-.2.4v0c-.202308.242662-.370529.511815-.5.8-.180706.308489-.418229.579943-.7.8-.1.1-.2.3-.4.4-.296662.308189-.564449.642923-.8,1-.9,1.3-.6,2.4.8,4c1.48309,1.550369,2.489664,3.494098,2.9,5.6v.5c-.139451.690432-.239612,1.38822-.3,2.09Zm9-65.1v0c-2.5,3.5-5.7,5.3-10.2,4.2-4.8-1.1-9.7-2-14.5-2.8-1.7-.3-2.3-.9-2.4-2.7-.419403-10.99288.419377-21.997671,2.5-32.8.840127-4.493799,1.942003-8.934694,3.3-13.3c8.3,6.1,15.8,12.8,21.7,21.1c5.1,7.31,4.8,19.1-.4,26.31v-.01Z" transform="translate(0 0.01)" fill="#040303"/><path id="nigiri-s-path2" d="M152.9,15.49c-.6,2.1.1,3.4,2.1,4.4c2.6,1.4,5,3,7.6,4.4.740498.308881,1.096536,1.154473.8,1.9.003258.027391-.006225.054764-.02573.07427s-.046879.028988-.07427.02573v0c-4.801573,15.595249-6.898514,31.897271-6.2,48.2c0,.8.2,1.6-1.1,1.3-11.36246-1.799382-22.811548-3.001035-34.3-3.6-1.4-.1-1.8-.5-1.7-1.9c1.251967-19.962047,5.639013-39.602511,13-58.2.4-1.1.9-1.2,1.9-.8c2,.8,4.1,1.4,6.1,2.1s3.5.5,4.7-1.3c2.457569,1.007181,4.860844,2.142061,7.2,3.4Z" transform="translate(0 0.01)" fill="#fd876f"/><path id="nigiri-s-path3" d="" transform="translate(0 0.01)" fill="#eee8c4"/><path id="nigiri-s-path4" d="M178.1,128.09c.1-.1.2-.3.4-.4.2-.3.5-.5.7-.8.202308-.242662.370529-.511815.5-.8v0c.1-.2.2-.3.2-.4.258662-.439283.460286-.909739.6-1.4c0-.1.1-.2.1-.4.179091-.554916.312863-1.123448.4-1.7.3-2.7-.7-5.4-3-7.9-1.1-1.2-1.4-2.2-1-3.3c0-.1.1-.2.1-.3.232323-.446548.536364-.851937.9-1.2.124754-.112836.226609-.248642.3-.4.2-.3.5-.6.7-.9v-.1c3.2-4.4,2.6-9.3-1.8-13.2-1.5-1.4-1.9-2.6-1.1-3.9.201933-.323155.436495-.624734.7-.9l.4-.4c.1-.1.3-.2.4-.3v0c.1-.1.3-.2.4-.4.281771-.220057.519294-.491511.7-.8.3-.4.6-.9.9-1.4.1-.2.1-.3.2-.5-.1-.1-.3-.1-.4-.2-18.802518-4.113061-37.891103-6.787469-57.1-8-22.045738-1.364662-44.169845-.725372-66.1,1.91-2,.2-3.4-.2-4.2-2.2v0c-2.182922.111897-4.355092.379241-6.5.8v.1v0c-.1,2-1.2,3-3.2,3.3-2.8.5-5.7.9-8.5,1.5-4.7.9-9.5,1.9-14.3,2.8.471722,1.277398,1.30578,2.389476,2.4,3.2c1.4,1.2,2,2.2,1.8,3.2.013232.109925-.02346.219999-.1.3-.349647.905525-.936913,1.700061-1.7,2.3-.314991.213515-.586485.485009-.8.8-1.511112,1.534366-2.431906,3.55303-2.6,5.7v1.6c-.017327.237807.016781.476556.1.7c0,.2.1.4.1.6.312642,1.353526.928065,2.618563,1.8,3.7.213515.314991.485009.586485.8.8.744063.660189,1.267627,1.532797,1.5,2.5v.2c.1.8-.4,1.7-1.5,2.8l-.1.1c-1.5428,1.523014-2.498899,3.541445-2.7,5.7v.3c-.109333,2.606739.868502,5.141867,2.7,7c.027391-.003258.054764.006225.07427.02573s.028988.046879.02573.07427c.744063.660189,1.267627,1.532797,1.5,2.5.2.9-.3,1.8-1.5,3.1-.463297.508273-.89733,1.042468-1.3,1.6-.788885,1.307628-1.267796,2.778569-1.4,4.3v1.7c.1.5.2,1,.3,1.4-.000518.186262.071168.365477.2.5.501351,1.267629,1.249107,2.423251,2.2,3.4.495826.518866,1.06935.957443,1.7,1.3.988823.632649,1.73022,1.585873,2.1,2.7c0,.1.1.2.1.3c1.450398,4.989371,6.670199,7.858919,11.66,6.41v0c1.510545-.406048,2.889187-1.198766,4-2.3c2.2-2,3.2-2,5.5,0c1.755461,1.756246,4.136848,2.742961,6.62,2.742961s4.864539-.986715,6.62-2.742961l.06-.06v0c2-1.9,3.2-1.9,5.2-.1c4.2,3.9,9.5,3.9,13.6,0c1.9-1.8,3.2-1.8,5,0c4.2,3.9,9.5,3.9,13.6.1c2-1.8,3.2-1.8,5.2,0c3.630188,3.69835,9.56025,3.787524,13.3.2l.2-.2c2-1.9,3.2-1.9,5.2-.1c4.1,3.8,9.4,3.9,13.5.1c2.1-1.9,3.2-1.9,5.3,0c3.65549,3.675617,9.589654,3.720235,13.3.1l.1-.1c2.1-2,3.3-2,5.3-.1c5.5,5.1,13.6,3,15.9-4.2.297727-1.068086.97282-1.991899,1.9-2.6c2.028852-1.232552,3.553057-3.146669,4.3-5.4.1-.5.2-.9.3-1.4.100063-.662912.100063-1.337088,0-2v-.5c-.391474-2.112422-1.4007-4.061273-2.9-5.6-1.4-1.5-1.7-2.6-.8-4c.44-.16.64-.46.94-.86Z" transform="translate(0 0.01)" fill="#eee8c4"/><path id="nigiri-s-path5" d="M74.2,72.29c1.4-6.2,3-12.2,4.7-18.3c4.631693-15.820502,10.379442-31.29264,17.2-46.3.389856-1.186939,1.558332-1.938102,2.8-1.8c8.851249-.091659,17.681375.882005,26.3,2.9c2.5.6,2.5.6,1.6,2.9-7.311017,18.737188-11.597814,38.517212-12.7,58.6c0,.9,0,1.6-1.3,1.6-12.6-.3-25.2-.3-37.8.6-.3-.1-.6-.1-.8-.2Z" transform="translate(0 0.01)" fill="#fd6b51"/><path id="nigiri-s-path6" d="M52.3,77.79c-2.182922.111897-4.355092.379241-6.5.8-.9-2.4-1.8-2.8-4.3-2.4-4.5.8-9,1.6-13.4,2.4-1.6.3-1.7-.1-1.3-1.6c6.847779-22.569711,17.611746-43.759156,31.8-62.6.293846-.493675.706325-.906154,1.2-1.2c4.068621-1.569228,8.246395-2.839272,12.5-3.8-5,10.8-6.7,22.1-3.5,33.7.9,3.3,1.9,6.7,4.3,9.4l-4.8,19.2c-.3,1.2-1.1,1.2-2,1.3-3.6.4-7.2.7-10.8,1.1-2.5.5-3,1.2-3.2,3.7Z" transform="translate(0 0.01)" fill="#fd6b51"/><path id="nigiri-s-path7" d="M168.8,28.59c8.3,6.1,15.8,12.8,21.7,21.1c5.1,7.3,4.8,19.1-.4,26.3-2.5,3.5-5.7,5.3-10.2,4.2-4.8-1.1-9.7-2-14.5-2.8-1.7-.3-2.3-.9-2.4-2.7-.419403-10.99288.419377-21.997671,2.5-32.8.804526-4.501463,1.906949-8.944562,3.3-13.3Z" transform="translate(0 0.01)" fill="#fd9986"/><path id="nigiri-s-path8" d="M47.9,18.49c.3.8-.2,1.2-.5,1.6-12.099731,17.819045-21.25026,37.470736-27.1,58.2-.6,2.2-1.3,2.6-3.7,2.3-3.2-.4-5.4-2.5-7.1-5-5.307931-8.621155-4.792028-19.613862,1.3-27.7c6.232079-7.734589,13.539571-14.536955,21.7-20.2c4.905925-3.432224,10.052559-6.506836,15.4-9.2Z" transform="translate(0 0.01)" fill="#fd876f"/><path id="nigiri-s-path9" d="M73.1,52.59c-2.4-2.7-3.4-6-4.3-9.4-3.2-11.7-1.6-22.9,3.5-33.7C78,7.69,84,7,90.3,6.29c-1.5,3.5-2.9,6.7-4.3,10-4.803302,11.565449-8.976091,23.382788-12.5,35.4-.091944.316736-.226509.619507-.4.9Z" transform="translate(0 0.01)" fill="#fd876f"/><path id="nigiri-s-path10" d="M108.8,113.39c-2.190175,2.369237-5.273544,3.71141-8.5,3.7-3.149297.018048-6.161189-1.288315-8.3-3.6-1.211111-.99621-1.389859-2.783693-.4-4c0-.1.1-.1.1-.2c1.2-1.3,2.8-1.3,4.3,0c3.1,2.7,5.4,2.6,8.6-.1c1.104569-1.159798,2.940202-1.204569,4.1-.1s1.204569,2.940202.1,4.1c.2.1.1.1,0,.2Z" transform="translate(0 0.01)" fill="#040303"/><path id="nigiri-s-path11" d="M77.7,113.89c-2.7.9-3.7.3-4.7-2.3c0-1.6,0-3.1.1-4.7-.026968-.79577.263516-1.56962.807464-2.151082s1.296736-.922834,2.092536-.948918h.1c1.546397,0,2.8,1.253603,2.8,2.8v0v.3c-.2,2.3.9,4.9-1.2,7Z" transform="translate(.000001 0.010001)" fill="#040303"/><path id="nigiri-s-path12" d="M127.8,111.49c-.9,2.6-2,3.2-4.7,2.4-2.1-2.6-1.3-5.6-.8-8.5.2-1.3,1.6-1.8,3-1.6c1.407179.165762,2.451403,1.384024,2.4,2.8.1,1.7.1,3.3.1,4.9Z" transform="translate(.000005 0.010004)" fill="#040303"/>
<script><![CDATA[
!function(t,n){"object"==typeof exports&&"undefined"!=typeof module?module.exports=n():"function"==typeof __SVGATOR_DEFINE__&&__SVGATOR_DEFINE__.amd?__SVGATOR_DEFINE__(n):((t="undefined"!=typeof globalThis?globalThis:t||self).__SVGATOR_PLAYER__=t.__SVGATOR_PLAYER__||{},t.__SVGATOR_PLAYER__["5c7f360c"]=n())}(this,(function(){"use strict";function t(t,n){var e=Object.keys(t);if(Object.getOwnPropertySymbols){var r=Object.getOwnPropertySymbols(t);n&&(r=r.filter((function(n){return Object.getOwnPropertyDescriptor(t,n).enumerable}))),e.push.apply(e,r)}return e}function n(n){for(var e=1;e<arguments.length;e++){var r=null!=arguments[e]?arguments[e]:{};e%2?t(Object(r),!0).forEach((function(t){u(n,t,r[t])})):Object.getOwnPropertyDescriptors?Object.defineProperties(n,Object.getOwnPropertyDescriptors(r)):t(Object(r)).forEach((function(t){Object.defineProperty(n,t,Object.getOwnPropertyDescriptor(r,t))}))}return n}function e(t){return(e="function"==typeof Symbol&&"symbol"==typeof Symbol.iterator?function(t){return typeof t}:function(t){return t&&"function"==typeof Symbol&&t.constructor===Symbol&&t!==Symbol.prototype?"symbol":typeof t})(t)}function r(t,n){if(!(t instanceof n))throw new TypeError("Cannot call a class as a function")}function i(t,n){for(var e=0;e<n.length;e++){var r=n[e];r.enumerable=r.enumerable||!1,r.configurable=!0,"value"in r&&(r.writable=!0),Object.defineProperty(t,r.key,r)}}function o(t,n,e){return n&&i(t.prototype,n),e&&i(t,e),t}function u(t,n,e){return n in t?Object.defineProperty(t,n,{value:e,enumerable:!0,configurable:!0,writable:!0}):t[n]=e,t}function a(t){return(a=Object.setPrototypeOf?Object.getPrototypeOf:function(t){return t.__proto__||Object.getPrototypeOf(t)})(t)}function l(t,n){return(l=Object.setPrototypeOf||function(t,n){return t.__proto__=n,t})(t,n)}function s(){if("undefined"==typeof Reflect||!Reflect.construct)return!1;if(Reflect.construct.sham)return!1;if("function"==typeof Proxy)return!0;try{return Boolean.prototype.valueOf.call(Reflect.construct(Boolean,[],(function(){}))),!0}catch(t){return!1}}function f(t,n,e){return(f=s()?Reflect.construct:function(t,n,e){var r=[null];r.push.apply(r,n);var i=new(Function.bind.apply(t,r));return e&&l(i,e.prototype),i}).apply(null,arguments)}function c(t,n){if(n&&("object"==typeof n||"function"==typeof n))return n;if(void 0!==n)throw new TypeError("Derived constructors may only return object or undefined");return function(t){if(void 0===t)throw new ReferenceError("this hasn't been initialised - super() hasn't been called");return t}(t)}function h(t,n,e){return(h="undefined"!=typeof Reflect&&Reflect.get?Reflect.get:function(t,n,e){var r=function(t,n){for(;!Object.prototype.hasOwnProperty.call(t,n)&&null!==(t=a(t)););return t}(t,n);if(r){var i=Object.getOwnPropertyDescriptor(r,n);return i.get?i.get.call(e):i.value}})(t,n,e||t)}function v(t){return function(t){if(Array.isArray(t))return y(t)}(t)||function(t){if("undefined"!=typeof Symbol&&null!=t[Symbol.iterator]||null!=t["@@iterator"])return Array.from(t)}(t)||function(t,n){if(!t)return;if("string"==typeof t)return y(t,n);var e=Object.prototype.toString.call(t).slice(8,-1);"Object"===e&&t.constructor&&(e=t.constructor.name);if("Map"===e||"Set"===e)return Array.from(t);if("Arguments"===e||/^(?:Ui|I)nt(?:8|16|32)(?:Clamped)?Array$/.test(e))return y(t,n)}(t)||function(){throw new TypeError("Invalid attempt to spread non-iterable instance.\nIn order to be iterable, non-array objects must have a [Symbol.iterator]() method.")}()}function y(t,n){(null==n||n>t.length)&&(n=t.length);for(var e=0,r=new Array(n);e<n;e++)r[e]=t[e];return r}function g(t,n,e){if(Number.isInteger(t))return t;var r=Math.pow(10,n);return Math[e]((+t+Number.EPSILON)*r)/r}Number.isInteger||(Number.isInteger=function(t){return"number"==typeof t&&isFinite(t)&&Math.floor(t)===t}),Number.EPSILON||(Number.EPSILON=2220446049250313e-31);var d=p(Math.pow(10,-6));function p(t){var n=arguments.length>1&&void 0!==arguments[1]?arguments[1]:6;return g(t,n,"round")}function m(t,n){var e=arguments.length>2&&void 0!==arguments[2]?arguments[2]:d;return Math.abs(t-n)<e}p(Math.pow(10,-2)),p(Math.pow(10,-4));var b=Math.PI/180;function w(t){return t}function A(t,n,e){var r=1-e;return 3*e*r*(t*r+n*e)+e*e*e}function _(){var t=arguments.length>0&&void 0!==arguments[0]?arguments[0]:0,n=arguments.length>1&&void 0!==arguments[1]?arguments[1]:0,e=arguments.length>2&&void 0!==arguments[2]?arguments[2]:1,r=arguments.length>3&&void 0!==arguments[3]?arguments[3]:1;return t<0||t>1||e<0||e>1?null:m(t,n)&&m(e,r)?w:function(i){if(i<=0)return t>0?i*n/t:0===n&&e>0?i*r/e:0;if(i>=1)return e<1?1+(i-1)*(r-1)/(e-1):1===e&&t<1?1+(i-1)*(n-1)/(t-1):1;for(var o,u=0,a=1;u<a;){var l=A(t,e,o=(u+a)/2);if(m(i,l))break;l<i?u=o:a=o}return A(n,r,o)}}function x(){return 1}function k(t){return 1===t?1:0}function S(){var t=arguments.length>0&&void 0!==arguments[0]?arguments[0]:1,n=arguments.length>1&&void 0!==arguments[1]?arguments[1]:0;if(1===t){if(0===n)return k;if(1===n)return x}var e=1/t;return function(t){return t>=1?1:(t+=n*e)-t%e}}var O=Math.sin,j=Math.cos,M=Math.acos,E=Math.asin,P=Math.tan,I=Math.atan2,R=Math.PI/180,F=180/Math.PI,N=Math.sqrt,T=function(){function t(){var n=arguments.length>0&&void 0!==arguments[0]?arguments[0]:1,e=arguments.length>1&&void 0!==arguments[1]?arguments[1]:0,i=arguments.length>2&&void 0!==arguments[2]?arguments[2]:0,o=arguments.length>3&&void 0!==arguments[3]?arguments[3]:1,u=arguments.length>4&&void 0!==arguments[4]?arguments[4]:0,a=arguments.length>5&&void 0!==arguments[5]?arguments[5]:0;r(this,t),this.m=[n,e,i,o,u,a],this.i=null,this.w=null,this.s=null}return o(t,[{key:"determinant",get:function(){var t=this.m;return t[0]*t[3]-t[1]*t[2]}},{key:"isIdentity",get:function(){if(null===this.i){var t=this.m;this.i=1===t[0]&&0===t[1]&&0===t[2]&&1===t[3]&&0===t[4]&&0===t[5]}return this.i}},{key:"point",value:function(t,n){var e=this.m;return{x:e[0]*t+e[2]*n+e[4],y:e[1]*t+e[3]*n+e[5]}}},{key:"translateSelf",value:function(){var t=arguments.length>0&&void 0!==arguments[0]?arguments[0]:0,n=arguments.length>1&&void 0!==arguments[1]?arguments[1]:0;if(!t&&!n)return this;var e=this.m;return e[4]+=e[0]*t+e[2]*n,e[5]+=e[1]*t+e[3]*n,this.w=this.s=this.i=null,this}},{key:"rotateSelf",value:function(){var t=arguments.length>0&&void 0!==arguments[0]?arguments[0]:0;if(t%=360){var n=O(t*=R),e=j(t),r=this.m,i=r[0],o=r[1];r[0]=i*e+r[2]*n,r[1]=o*e+r[3]*n,r[2]=r[2]*e-i*n,r[3]=r[3]*e-o*n,this.w=this.s=this.i=null}return this}},{key:"scaleSelf",value:function(){var t=arguments.length>0&&void 0!==arguments[0]?arguments[0]:1,n=arguments.length>1&&void 0!==arguments[1]?arguments[1]:1;if(1!==t||1!==n){var e=this.m;e[0]*=t,e[1]*=t,e[2]*=n,e[3]*=n,this.w=this.s=this.i=null}return this}},{key:"skewSelf",value:function(t,n){if(n%=360,(t%=360)||n){var e=this.m,r=e[0],i=e[1],o=e[2],u=e[3];t&&(t=P(t*R),e[2]+=r*t,e[3]+=i*t),n&&(n=P(n*R),e[0]+=o*n,e[1]+=u*n),this.w=this.s=this.i=null}return this}},{key:"resetSelf",value:function(){var t=arguments.length>0&&void 0!==arguments[0]?arguments[0]:1,n=arguments.length>1&&void 0!==arguments[1]?arguments[1]:0,e=arguments.length>2&&void 0!==arguments[2]?arguments[2]:0,r=arguments.length>3&&void 0!==arguments[3]?arguments[3]:1,i=arguments.length>4&&void 0!==arguments[4]?arguments[4]:0,o=arguments.length>5&&void 0!==arguments[5]?arguments[5]:0,u=this.m;return u[0]=t,u[1]=n,u[2]=e,u[3]=r,u[4]=i,u[5]=o,this.w=this.s=this.i=null,this}},{key:"recomposeSelf",value:function(){var t=arguments.length>0&&void 0!==arguments[0]?arguments[0]:null,n=arguments.length>1&&void 0!==arguments[1]?arguments[1]:null,e=arguments.length>2&&void 0!==arguments[2]?arguments[2]:null,r=arguments.length>3&&void 0!==arguments[3]?arguments[3]:null,i=arguments.length>4&&void 0!==arguments[4]?arguments[4]:null;return this.isIdentity||this.resetSelf(),t&&(t.x||t.y)&&this.translateSelf(t.x,t.y),n&&this.rotateSelf(n),e&&(e.x&&this.skewSelf(e.x,0),e.y&&this.skewSelf(0,e.y)),!r||1===r.x&&1===r.y||this.scaleSelf(r.x,r.y),i&&(i.x||i.y)&&this.translateSelf(i.x,i.y),this}},{key:"decompose",value:function(){var t=arguments.length>0&&void 0!==arguments[0]?arguments[0]:0,n=arguments.length>1&&void 0!==arguments[1]?arguments[1]:0,e=this.m,r=e[0]*e[0]+e[1]*e[1],i=[[e[0],e[1]],[e[2],e[3]]],o=N(r);if(0===o)return{origin:{x:p(e[4]),y:p(e[5])},translate:{x:p(t),y:p(n)},scale:{x:0,y:0},skew:{x:0,y:0},rotate:0};i[0][0]/=o,i[0][1]/=o;var u=e[0]*e[3]-e[1]*e[2]<0;u&&(o=-o);var a=i[0][0]*i[1][0]+i[0][1]*i[1][1];i[1][0]-=i[0][0]*a,i[1][1]-=i[0][1]*a;var l=N(i[1][0]*i[1][0]+i[1][1]*i[1][1]);if(0===l)return{origin:{x:p(e[4]),y:p(e[5])},translate:{x:p(t),y:p(n)},scale:{x:p(o),y:0},skew:{x:0,y:0},rotate:0};i[1][0]/=l,i[1][1]/=l,a/=l;var s=0;return i[1][1]<0?(s=M(i[1][1])*F,i[0][1]<0&&(s=360-s)):s=E(i[0][1])*F,u&&(s=-s),a=I(a,N(i[0][0]*i[0][0]+i[0][1]*i[0][1]))*F,u&&(a=-a),{origin:{x:p(e[4]),y:p(e[5])},translate:{x:p(t),y:p(n)},scale:{x:p(o),y:p(l)},skew:{x:p(a),y:0},rotate:p(s)}}},{key:"clone",value:function(){var t=this.m;return new this.constructor(t[0],t[1],t[2],t[3],t[4],t[5])}},{key:"toString",value:function(){var t=arguments.length>0&&void 0!==arguments[0]?arguments[0]:" ";if(null===this.s){var n=this.m.map((function(t){return p(t)}));1===n[0]&&0===n[1]&&0===n[2]&&1===n[3]?this.s="translate("+n[4]+t+n[5]+")":this.s="matrix("+n.join(t)+")"}return this.s}}],[{key:"create",value:function(t){return t?Array.isArray(t)?f(this,v(t)):t instanceof this?t.clone():(new this).recomposeSelf(t.origin,t.rotate,t.skew,t.scale,t.translate):new this}}]),t}();function q(t,n,e){return t>=.5?e:n}function B(t,n,e){return 0===t||n===e?n:t*(e-n)+n}function D(t,n,e){var r=B(t,n,e);return r<=0?0:r}function L(t,n,e){var r=B(t,n,e);return r<=0?0:r>=1?1:r}function C(t,n,e){return 0===t?n:1===t?e:{x:B(t,n.x,e.x),y:B(t,n.y,e.y)}}function V(t,n,e){var r=function(t,n,e){return Math.round(B(t,n,e))}(t,n,e);return r<=0?0:r>=255?255:r}function G(t,n,e){return 0===t?n:1===t?e:{r:V(t,n.r,e.r),g:V(t,n.g,e.g),b:V(t,n.b,e.b),a:B(t,null==n.a?1:n.a,null==e.a?1:e.a)}}function z(t,n){for(var e=[],r=0;r<t;r++)e.push(n);return e}function Y(t,n){if(--n<=0)return t;var e=(t=Object.assign([],t)).length;do{for(var r=0;r<e;r++)t.push(t[r])}while(--n>0);return t}var $,U=function(){function t(n){r(this,t),this.list=n,this.length=n.length}return o(t,[{key:"setAttribute",value:function(t,n){for(var e=this.list,r=0;r<this.length;r++)e[r].setAttribute(t,n)}},{key:"removeAttribute",value:function(t){for(var n=this.list,e=0;e<this.length;e++)n[e].removeAttribute(t)}},{key:"style",value:function(t,n){for(var e=this.list,r=0;r<this.length;r++)e[r].style[t]=n}}]),t}(),Q=/-./g,H=function(t,n){return n.toUpperCase()};function J(t){return"function"==typeof t?t:q}function Z(t){return t?"function"==typeof t?t:Array.isArray(t)?function(t){var n=arguments.length>1&&void 0!==arguments[1]?arguments[1]:w;if(!Array.isArray(t))return n;switch(t.length){case 1:return S(t[0])||n;case 2:return S(t[0],t[1])||n;case 4:return _(t[0],t[1],t[2],t[3])||n}return n}(t,null):function(t,n){var e=arguments.length>2&&void 0!==arguments[2]?arguments[2]:w;switch(t){case"linear":return w;case"steps":return S(n.steps||1,n.jump||0)||e;case"bezier":case"cubic-bezier":return _(n.x1||0,n.y1||0,n.x2||0,n.y2||0)||e}return e}(t.type,t.value,null):null}function K(t,n,e){var r=arguments.length>3&&void 0!==arguments[3]&&arguments[3],i=n.length-1;if(t<=n[0].t)return r?[0,0,n[0].v]:n[0].v;if(t>=n[i].t)return r?[i,1,n[i].v]:n[i].v;var o,u=n[0],a=null;for(o=1;o<=i;o++){if(!(t>n[o].t)){a=n[o];break}u=n[o]}return null==a?r?[i,1,n[i].v]:n[i].v:u.t===a.t?r?[o,1,a.v]:a.v:(t=(t-u.t)/(a.t-u.t),u.e&&(t=u.e(t)),r?[o,t,e(t,u.v,a.v)]:e(t,u.v,a.v))}function W(t,n){var e=arguments.length>2&&void 0!==arguments[2]?arguments[2]:null;return t&&t.length?"function"!=typeof n?null:("function"!=typeof e&&(e=null),function(r){var i=K(r,t,n);return null!=i&&e&&(i=e(i)),i}):null}function X(t,n){return t.t-n.t}function tt(t,n,r,i,o){var u,a="@"===r[0],l="#"===r[0],s=$[r],f=q;switch(a?(u=r.substr(1),r=u.replace(Q,H)):l&&(r=r.substr(1)),e(s)){case"function":if(f=s(i,o,K,Z,r,a,n,t),l)return f;break;case"string":f=W(i,J(s));break;case"object":if((f=W(i,J(s.i),s.f))&&"function"==typeof s.u)return s.u(n,f,r,a,t)}return f?function(t,n,e){if(arguments.length>3&&void 0!==arguments[3]&&arguments[3])return t instanceof U?function(r){return t.style(n,e(r))}:function(r){return t.style[n]=e(r)};if(Array.isArray(n)){var r=n.length;return function(i){var o=e(i);if(null==o)for(var u=0;u<r;u++)t[u].removeAttribute(n);else for(var a=0;a<r;a++)t[a].setAttribute(n,o)}}return function(r){var i=e(r);null==i?t.removeAttribute(n):t.setAttribute(n,i)}}(n,r,f,a):null}function nt(t,n,r,i){if(!i||"object"!==e(i))return null;var o=null,u=null;return Array.isArray(i)?u=function(t){if(!t||!t.length)return null;for(var n=0;n<t.length;n++)t[n].e&&(t[n].e=Z(t[n].e));return t.sort(X)}(i):(u=i.keys,o=i.data||null),u?tt(t,n,r,u,o):null}function et(t,n,e){if(!e)return null;var r=[];for(var i in e)if(e.hasOwnProperty(i)){var o=nt(t,n,i,e[i]);o&&r.push(o)}return r.length?r:null}function rt(t,n){if(!n.settings.duration||n.settings.duration<0)return null;var e,r,i,o,u,a=function(t,n){if(!n)return null;var e=[];if(Array.isArray(n))for(var r=n.length,i=0;i<r;i++){var o=n[i];if(2===o.length){var u=null;if("string"==typeof o[0])u=t.getElementById(o[0]);else if(Array.isArray(o[0])){u=[];for(var a=0;a<o[0].length;a++)if("string"==typeof o[0][a]){var l=t.getElementById(o[0][a]);l&&u.push(l)}u=u.length?1===u.length?u[0]:new U(u):null}if(u){var s=et(t,u,o[1]);s&&(e=e.concat(s))}}}else for(var f in n)if(n.hasOwnProperty(f)){var c=t.getElementById(f);if(c){var h=et(t,c,n[f]);h&&(e=e.concat(h))}}return e.length?e:null}(t,n.elements);return a?(e=a,r=n.settings,i=r.duration,o=e.length,u=null,function(t,n){var a=r.iterations||1/0,l=(r.alternate&&a%2==0)^r.direction>0?i:0,s=t%i,f=1+(t-s)/i;n*=r.direction,r.alternate&&f%2==0&&(n=-n);var c=!1;if(f>a)s=l,c=!0,-1===r.fill&&(s=r.direction>0?0:i);else if(n<0&&(s=i-s),s===u)return!1;u=s;for(var h=0;h<o;h++)e[h](s);return c}):null}function it(t,n){for(var e=n.querySelectorAll("svg"),r=0;r<e.length;r++)if(e[r].id===t.root&&!e[r].svgatorAnimation)return e[r].svgatorAnimation=!0,e[r];return null}function ot(t){var n=function(t){return t.shadowRoot};return document?Array.from(t.querySelectorAll(":not("+["a","area","audio","br","canvas","circle","datalist","embed","g","head","hr","iframe","img","input","link","object","path","polygon","rect","script","source","style","svg","title","track","video"].join()+")")).filter(n).map(n):[]}function ut(t){var n=arguments.length>1&&void 0!==arguments[1]?arguments[1]:document,e=arguments.length>2&&void 0!==arguments[2]?arguments[2]:0,r=it(t,n);if(r)return r;if(e>=20)return null;for(var i=ot(n),o=0;o<i.length;o++){var u=ut(t,i[o],e+1);if(u)return u}return null}function at(t,n){if($=n,!t||!t.root||!Array.isArray(t.animations))return null;var e=ut(t);if(!e)return null;var r=t.animations.map((function(t){return rt(e,t)})).filter((function(t){return!!t}));return r.length?{svg:e,animations:r,animationSettings:t.animationSettings,options:t.options||void 0}:null}function lt(t){var n=arguments.length>1&&void 0!==arguments[1]?arguments[1]:null,e=arguments.length>2&&void 0!==arguments[2]?arguments[2]:Number,r=arguments.length>3&&void 0!==arguments[3]?arguments[3]:"undefined"!=typeof BigInt&&BigInt,i="0x"+(t.replace(/[^0-9a-fA-F]+/g,"")||27);return n&&r&&e.isSafeInteger&&!e.isSafeInteger(+i)?e(r(i))%n+n:+i}function st(t,n,e){return!t||!e||n>t.length?t:t.substring(0,n)+st(t.substring(n+1),e,e)}function ft(t){var n=arguments.length>1&&void 0!==arguments[1]?arguments[1]:27;return!t||t%n?t%n:[0,1].includes(n)?n:ft(t/n,n)}function ct(t,n,e){if(t&&t.length){var r=lt(e),i=ft(r)+5,o=st(t,ft(r,5),i);return o=o.replace(/\x7c$/g,"==").replace(/\x2f$/g,"="),o=function(t,n,e){var r=+("0x"+t.substring(0,4));t=t.substring(4);for(var i=lt(n,r)%r+e%27,o=[],u=0;u<t.length;u+=2)if("|"!==t[u]){var a=+("0x"+t[u]+t[u+1])-i;o.push(a)}else{var l=+("0x"+t.substring(u+1,u+1+4))-i;u+=3,o.push(l)}return String.fromCharCode.apply(String,o)}(o=(o=atob(o)).replace(/[\x41-\x5A]/g,""),n,r),o=JSON.parse(o)}}var ht=[{key:"alternate",def:!1},{key:"fill",def:1},{key:"iterations",def:0},{key:"direction",def:1},{key:"speed",def:1},{key:"fps",def:100}],vt=function(){function t(n,e){var i=this,o=arguments.length>2&&void 0!==arguments[2]?arguments[2]:null;r(this,t),this._id=0,this._running=!1,this._rollingBack=!1,this._animations=n,this._settings=e,(!o||o<"2022-05-02")&&delete this._settings.speed,ht.forEach((function(t){i._settings[t.key]=i._settings[t.key]||t.def})),this.duration=e.duration,this.offset=e.offset||0,this.rollbackStartOffset=0}return o(t,[{key:"alternate",get:function(){return this._settings.alternate}},{key:"fill",get:function(){return this._settings.fill}},{key:"iterations",get:function(){return this._settings.iterations}},{key:"direction",get:function(){return this._settings.direction}},{key:"speed",get:function(){return this._settings.speed}},{key:"fps",get:function(){return this._settings.fps}},{key:"maxFiniteDuration",get:function(){return this.iterations>0?this.iterations*this.duration:this.duration}},{key:"_apply",value:function(t){for(var n=arguments.length>1&&void 0!==arguments[1]?arguments[1]:{},e=this._animations,r=e.length,i=0,o=0;o<r;o++)n[o]?i++:(n[o]=e[o](t,1),n[o]&&i++);return i}},{key:"_rollback",value:function(t){var n=this,e=1/0,r=null;this.rollbackStartOffset=t,this._rollingBack=!0,this._running=!0;this._id=window.requestAnimationFrame((function i(o){if(n._rollingBack){null==r&&(r=o);var u=Math.round(t-(o-r)*n.speed);if(u>n.duration&&e!==1/0){var a=!!n.alternate&&u/n.duration%2>1,l=u%n.duration;u=(l+=a?n.duration:0)||n.duration}var s=(n.fps?1e3/n.fps:0)*n.speed,f=Math.max(0,u);f<=e-s&&(n.offset=f,e=f,n._apply(f));var c=n.iterations>0&&-1===n.fill&&u>=n.maxFiniteDuration;(u<=0||n.offset<u||c)&&n.stop(),n._id=window.requestAnimationFrame(i)}}))}},{key:"_start",value:function(){var t=this,n=arguments.length>0&&void 0!==arguments[0]?arguments[0]:0,e=-1/0,r=null,i={};this._running=!0;var o=function o(u){null==r&&(r=u);var a=Math.round((u-r)*t.speed+n),l=(t.fps?1e3/t.fps:0)*t.speed;if(a>=e+l&&!t._rollingBack&&(t.offset=a,e=a,t._apply(a,i)===t._animations.length))return void t.pause(!0);t._id=window.requestAnimationFrame(o)};this._id=window.requestAnimationFrame(o)}},{key:"_pause",value:function(){this._id&&window.cancelAnimationFrame(this._id),this._running=!1}},{key:"play",value:function(){if(!this._running)return this._rollingBack?this._rollback(this.offset):this._start(this.offset)}},{key:"stop",value:function(){this._pause(),this.offset=0,this.rollbackStartOffset=0,this._rollingBack=!1,this._apply(0)}},{key:"reachedToEnd",value:function(){return this.iterations>0&&this.offset>=this.iterations*this.duration}},{key:"restart",value:function(){var t=arguments.length>0&&void 0!==arguments[0]&&arguments[0];this.stop(t),this.play(t)}},{key:"pause",value:function(){this._pause()}},{key:"reverse",value:function(){this.direction=-this.direction}}],[{key:"build",value:function(t,n){delete t.animationSettings,t.options=ct(t.options,t.root,"5c7f360c"),t.animations.map((function(n){n.settings=ct(n.s,t.root,"5c7f360c"),delete n.s,t.animationSettings||(t.animationSettings=n.settings)}));var e=t.version;if(!(t=at(t,n)))return null;var r=t.options||{},i=new this(t.animations,t.animationSettings,e);return{el:t.svg,options:r,player:i}}},{key:"push",value:function(t){return this.build(t)}},{key:"init",value:function(){var t=this,n=window.__SVGATOR_PLAYER__&&window.__SVGATOR_PLAYER__["5c7f360c"];Array.isArray(n)&&n.splice(0).forEach((function(n){return t.build(n)}))}}]),t}();function yt(t){return p(t)+""}function gt(t){var n=arguments.length>1&&void 0!==arguments[1]?arguments[1]:" ";return t&&t.length?t.map(yt).join(n):""}function dt(t){if(!t)return"transparent";if(null==t.a||t.a>=1){var n=function(t){return 1===(t=parseInt(t).toString(16)).length?"0"+t:t},e=function(t){return t.charAt(0)===t.charAt(1)},r=n(t.r),i=n(t.g),o=n(t.b);return e(r)&&e(i)&&e(o)&&(r=r.charAt(0),i=i.charAt(0),o=o.charAt(0)),"#"+r+i+o}return"rgba("+t.r+","+t.g+","+t.b+","+t.a+")"}function pt(t){return t?"url(#"+t+")":"none"}!function(){for(var t=0,n=["ms","moz","webkit","o"],e=0;e<n.length&&!window.requestAnimationFrame;++e)window.requestAnimationFrame=window[n[e]+"RequestAnimationFrame"],window.cancelAnimationFrame=window[n[e]+"CancelAnimationFrame"]||window[n[e]+"CancelRequestAnimationFrame"];window.requestAnimationFrame||(window.requestAnimationFrame=function(n){var e=Date.now(),r=Math.max(0,16-(e-t)),i=window.setTimeout((function(){n(e+r)}),r);return t=e+r,i},window.cancelAnimationFrame=window.clearTimeout)}();var mt={f:null,i:function(t,n,e){return 0===t?n:1===t?e:{x:D(t,n.x,e.x),y:D(t,n.y,e.y)}},u:function(t,n){return function(e){var r=n(e);t.setAttribute("rx",yt(r.x)),t.setAttribute("ry",yt(r.y))}}},bt={f:null,i:function(t,n,e){return 0===t?n:1===t?e:{width:D(t,n.width,e.width),height:D(t,n.height,e.height)}},u:function(t,n){return function(e){var r=n(e);t.setAttribute("width",yt(r.width)),t.setAttribute("height",yt(r.height))}}};Object.freeze({M:2,L:2,Z:0,H:1,V:1,C:6,Q:4,T:2,S:4,A:7});var wt={},At=null;function _t(t){var n=function(){if(At)return At;if("object"!==("undefined"==typeof document?"undefined":e(document))||!document.createElementNS)return{};var t=document.createElementNS("http://www.w3.org/2000/svg","svg");return t&&t.style?(t.style.position="absolute",t.style.opacity="0.01",t.style.zIndex="-9999",t.style.left="-9999px",t.style.width="1px",t.style.height="1px",At={svg:t}):{}}().svg;if(!n)return function(t){return null};var r=document.createElementNS(n.namespaceURI,"path");r.setAttributeNS(null,"d",t),r.setAttributeNS(null,"fill","none"),r.setAttributeNS(null,"stroke","none"),n.appendChild(r);var i=r.getTotalLength();return function(t){var n=r.getPointAtLength(i*t);return{x:n.x,y:n.y}}}function xt(t){return wt[t]?wt[t]:wt[t]=_t(t)}function kt(t,n,e,r){if(!t||!r)return!1;var i=["M",t.x,t.y];if(n&&e&&(i.push("C"),i.push(n.x),i.push(n.y),i.push(e.x),i.push(e.y)),n?!e:e){var o=n||e;i.push("Q"),i.push(o.x),i.push(o.y)}return n||e||i.push("L"),i.push(r.x),i.push(r.y),i.join(" ")}function St(t,n,e,r){var i=arguments.length>4&&void 0!==arguments[4]?arguments[4]:1,o=kt(t,n,e,r),u=xt(o);try{return u(i)}catch(t){return null}}function Ot(t,n,e){return t+(n-t)*e}function jt(t,n,e){var r=arguments.length>3&&void 0!==arguments[3]&&arguments[3],i={x:Ot(t.x,n.x,e),y:Ot(t.y,n.y,e)};return r&&(i.a=Mt(t,n)),i}function Mt(t,n){return Math.atan2(n.y-t.y,n.x-t.x)}function Et(t,n,e,r){var i=1-r;return i*i*t+2*i*r*n+r*r*e}function Pt(t,n,e,r){return 2*(1-r)*(n-t)+2*r*(e-n)}function It(t,n,e,r){var i=arguments.length>4&&void 0!==arguments[4]&&arguments[4],o=St(t,n,null,e,r);return o||(o={x:Et(t.x,n.x,e.x,r),y:Et(t.y,n.y,e.y,r)}),i&&(o.a=Rt(t,n,e,r)),o}function Rt(t,n,e,r){return Math.atan2(Pt(t.y,n.y,e.y,r),Pt(t.x,n.x,e.x,r))}function Ft(t,n,e,r,i){var o=i*i;return i*o*(r-t+3*(n-e))+3*o*(t+e-2*n)+3*i*(n-t)+t}function Nt(t,n,e,r,i){var o=1-i;return 3*(o*o*(n-t)+2*o*i*(e-n)+i*i*(r-e))}function Tt(t,n,e,r,i){var o=arguments.length>5&&void 0!==arguments[5]&&arguments[5],u=St(t,n,e,r,i);return u||(u={x:Ft(t.x,n.x,e.x,r.x,i),y:Ft(t.y,n.y,e.y,r.y,i)}),o&&(u.a=qt(t,n,e,r,i)),u}function qt(t,n,e,r,i){return Math.atan2(Nt(t.y,n.y,e.y,r.y,i),Nt(t.x,n.x,e.x,r.x,i))}function Bt(t,n,e){var r=arguments.length>3&&void 0!==arguments[3]&&arguments[3];if(Lt(n)){if(Ct(e))return It(n,e.start,e,t,r)}else if(Lt(e)){if(Vt(n))return It(n,n.end,e,t,r)}else{if(Vt(n))return Ct(e)?Tt(n,n.end,e.start,e,t,r):It(n,n.end,e,t,r);if(Ct(e))return It(n,e.start,e,t,r)}return jt(n,e,t,r)}function Dt(t,n,e){var r=Bt(t,n,e,!0);return r.a=function(t){return arguments.length>1&&void 0!==arguments[1]&&arguments[1]?t+Math.PI:t}(r.a)/b,r}function Lt(t){return!t.type||"corner"===t.type}function Ct(t){return null!=t.start&&!Lt(t)}function Vt(t){return null!=t.end&&!Lt(t)}var Gt=new T;var zt={f:yt,i:B},Yt={f:yt,i:L};function $t(t,n,e){return t.map((function(t){return function(t,n,e){var r=t.v;if(!r||"g"!==r.t||r.s||!r.v||!r.r)return t;var i=e.getElementById(r.r),o=i&&i.querySelectorAll("stop")||[];return r.s=r.v.map((function(t,n){var e=o[n]&&o[n].getAttribute("offset");return{c:t,o:e=p(parseInt(e)/100)}})),delete r.v,t}(t,0,e)}))}var Ut={gt:"gradientTransform",c:{x:"cx",y:"cy"},rd:"r",f:{x:"x1",y:"y1"},to:{x:"x2",y:"y2"}};function Qt(t,n,r,i,o,u,a,l){return $t(t,0,l),n=function(t,n,e){for(var r,i,o,u=t.length-1,a={},l=0;l<=u;l++)(r=t[l]).e&&(r.e=n(r.e)),r.v&&"g"===(i=r.v).t&&i.r&&(o=e.getElementById(i.r))&&(a[i.r]={e:o,s:o.querySelectorAll("stop")});return a}(t,i,l),function(i){var o=r(i,t,Ht);if(!o)return"none";if("c"===o.t)return dt(o.v);if("g"===o.t){if(!n[o.r])return pt(o.r);var u=n[o.r];return function(t,n){for(var e=t.s,r=e.length;r<n.length;r++){var i=e[e.length-1].cloneNode();i.id=Kt(i.id),t.e.appendChild(i),e=t.s=t.e.querySelectorAll("stop")}for(var o=0,u=e.length,a=n.length-1;o<u;o++)e[o].setAttribute("stop-color",dt(n[Math.min(o,a)].c)),e[o].setAttribute("offset",n[Math.min(o,a)].o)}(u,o.s),Object.keys(Ut).forEach((function(t){if(void 0!==o[t])if("object"!==e(Ut[t])){var n,r="gt"===t?(n=o[t],Array.isArray(n)?"matrix("+n.join(" ")+")":""):o[t],i=Ut[t];u.e.setAttribute(i,r)}else Object.keys(Ut[t]).forEach((function(n){if(void 0!==o[t][n]){var e=o[t][n],r=Ut[t][n];u.e.setAttribute(r,e)}}))})),pt(o.r)}return"none"}}function Ht(t,e,r){if(0===t)return e;if(1===t)return r;if(e&&r){var i=e.t;if(i===r.t)switch(e.t){case"c":return{t:i,v:G(t,e.v,r.v)};case"g":if(e.r===r.r){var o={t:i,s:Jt(t,e.s,r.s),r:e.r};return e.gt&&r.gt&&(o.gt=function(t,n,e){var r=n.length;if(r!==e.length)return q(t,n,e);for(var i=new Array(r),o=0;o<r;o++)i[o]=B(t,n[o],e[o]);return i}(t,e.gt,r.gt)),e.c?(o.c=C(t,e.c,r.c),o.rd=D(t,e.rd,r.rd)):e.f&&(o.f=C(t,e.f,r.f),o.to=C(t,e.to,r.to)),o}}if("c"===e.t&&"g"===r.t||"c"===r.t&&"g"===e.t){var u="c"===e.t?e:r,a="g"===e.t?n({},e):n({},r),l=a.s.map((function(t){return{c:u.v,o:t.o}}));return a.s="c"===e.t?Jt(t,l,a.s):Jt(t,a.s,l),a}}return q(t,e,r)}function Jt(t,n,e){if(n.length===e.length)return n.map((function(n,r){return Zt(t,n,e[r])}));for(var r=Math.max(n.length,e.length),i=[],o=0;o<r;o++){var u=Zt(t,n[Math.min(o,n.length-1)],e[Math.min(o,e.length-1)]);i.push(u)}return i}function Zt(t,n,e){return{o:L(t,n.o,e.o||0),c:G(t,n.c,e.c||{})}}function Kt(t){return t.replace(/-fill-([0-9]+)$/,(function(t,n){return"-fill-"+(+n+1)}))}var Wt={fill:Qt,"fill-opacity":Yt,stroke:Qt,"stroke-opacity":Yt,"stroke-width":zt,"stroke-dashoffset":{f:yt,i:B},"stroke-dasharray":{f:function(t){var n=arguments.length>1&&void 0!==arguments[1]?arguments[1]:" ";return t&&t.length>0&&(t=t.map((function(t){return p(t,4)}))),gt(t,n)},i:function(t,n,e){var r,i,o,u=n.length,a=e.length;if(u!==a)if(0===u)n=z(u=a,0);else if(0===a)a=u,e=z(u,0);else{var l=(o=(r=u)*(i=a)/function(t,n){for(var e;n;)e=n,n=t%n,t=e;return t||1}(r,i))<0?-o:o;n=Y(n,Math.floor(l/u)),e=Y(e,Math.floor(l/a)),u=a=l}for(var s=[],f=0;f<u;f++)s.push(p(D(t,n[f],e[f])));return s}},opacity:Yt,transform:function(t,n,r,i){if(!(t=function(t,n){if(!t||"object"!==e(t))return null;var r=!1;for(var i in t)t.hasOwnProperty(i)&&(t[i]&&t[i].length?(t[i].forEach((function(t){t.e&&(t.e=n(t.e))})),r=!0):delete t[i]);return r?t:null}(t,i)))return null;var o=function(e,i,o){var u=arguments.length>3&&void 0!==arguments[3]?arguments[3]:null;return t[e]?r(i,t[e],o):n&&n[e]?n[e]:u};return n&&n.a&&t.o?function(n){var e=r(n,t.o,Dt);return Gt.recomposeSelf(e,o("r",n,B,0)+e.a,o("k",n,C),o("s",n,C),o("t",n,C)).toString()}:function(t){return Gt.recomposeSelf(o("o",t,Bt,null),o("r",t,B,0),o("k",t,C),o("s",t,C),o("t",t,C)).toString()}},r:zt,"#size":bt,"#radius":mt,_:function(t,n){if(Array.isArray(t))for(var e=0;e<t.length;e++)this[t[e]]=n;else this[t]=n}},Xt=function(t){!function(t,n){if("function"!=typeof n&&null!==n)throw new TypeError("Super expression must either be null or a function");t.prototype=Object.create(n&&n.prototype,{constructor:{value:t,writable:!0,configurable:!0}}),n&&l(t,n)}(u,t);var n,e,i=(n=u,e=s(),function(){var t,r=a(n);if(e){var i=a(this).constructor;t=Reflect.construct(r,arguments,i)}else t=r.apply(this,arguments);return c(this,t)});function u(){return r(this,u),i.apply(this,arguments)}return o(u,null,[{key:"build",value:function(t){var n=h(a(u),"build",this).call(this,t,Wt);if(!n)return null;n.el,n.options,function(t,n,e){t.play()}(n.player)}}]),u}(vt);return Xt.init(),Xt}));
(function(s,i,o,w,d,a,b){w[o]=w[o]||{};w[o][s]=w[o][s]||[];w[o][s].push(i);})('5c7f360c',{"root":"nigiri","version":"2022-05-04","animations":[{"elements":{"nigiri-s-path11":{"transform":{"data":{"o":{"x":76.00626,"y":114.222601,"type":"corner"},"t":{"x":-76.006259,"y":-114.2126}},"keys":{"s":[{"t":1300,"v":{"x":1,"y":1}},{"t":1400,"v":{"x":0.2,"y":0.2}},{"t":1500,"v":{"x":1,"y":1}}]}}},"nigiri-s-path12":{"transform":{"data":{"o":{"x":124.762541,"y":114.234958,"type":"corner"},"t":{"x":-124.762536,"y":-114.224954}},"keys":{"s":[{"t":1300,"v":{"x":1,"y":1}},{"t":1400,"v":{"x":0.2,"y":0.2}},{"t":1500,"v":{"x":1,"y":1}}]}}}},"s":"MGDA1ZGFlNTU5N2E4YTJU5NGE3OWNNYTJhMTUX1NmQ2NjYzWTYzNjM1PZjU1OTc5Y2E1OTg5NOmE3OWNhMmExNTU2ZDSY0NWY1NTljYTc5OGEA1OTRhNzljYTJhMWE2LVTU1NmQ2MzVmNTVKOGTk5YzlmOWY1NTZkTDJY0NWY1NTk0OWZhN1AX5OGE1YTFJOTRhNzk4GNTVYNmQ5OTk0OWZhNJjk4NWY1NWE2YTNMUjTk4OTg5NzU1NmQ2NDVImNTU5OWEzYTY1NTZkRRzY0NjM2M2Iw"}],"options":"MYDAxMDhlMzU4Njg3NzEQ4NUQ4NzM1NGRSMzUK3ZjgyNzQ3NzM1OTA/M"},'__SVGATOR_PLAYER__',window,document)
]]></script>
</svg>
