<svg id="rice" xmlns="http://www.w3.org/2000/svg" xmlns:xlink="http://www.w3.org/1999/xlink" width="180px" viewBox="0 0 179.69 199.98" shape-rendering="geometricPrecision" text-rendering="geometricPrecision"><path id="rice-s-path1" d="M174.21,90.91c-.773977-.331403-1.161915-1.203175-.89-2c1.900216-11.490819-4.124656-22.831994-14.71-27.69-2.177769-.94261-3.18026-3.471216-2.24-5.65.169986-.395764.399285-.763315.68-1.09q9.21-11,18.4-22c3.5-4.2,4.24-8.93,1.79-13.81s-6.67-7.12-12.16-6.68c-1.18.1-1.23-.41-1.35-1.26-.456141-3.948362-2.822269-7.420924-6.33-9.29-1.23-.69-2.65-.79-3.87-1.44h-4.3c-3.202821.998753-6.038519,2.922852-8.15,5.53C134.08,14,127,22.39,120,30.85c-.549217.952273-1.764042,1.282777-2.72.74-6.927292-2.936904-14.806293-2.613964-21.47.88-1.45.72-2.77,2.4-4.13,2.39s-2.8-1.61-4.31-2.37c-10.742098-5.562569-23.909186-2.880847-31.62,6.44-.52.63-.87,1.29-2,1.17-13.21-1.35-24.09,5.89-28,18.53-.141013.761648-.697362,1.379814-1.44,1.6C12.272106,64.196425,4.923313,76.346768,7,88.85c.11.66.17,1.16-.62,1.59-5.23,2.74-6.94,7.25-6.22,12.89.46,3.6.88,7.22,1.46,10.81c2.05,12.49,5.32,24.6,11.58,35.73c1.37,2.42,2.1,2.75,4.71,2c.1-.1.2-.2.29-.31l.13-.15c.121216-.142682.228379-.29673.32-.46.21875-.365217.364767-.769311.43-1.19.019946-.212867.019946-.427133,0-.64-.085856-.77003-.342052-1.511292-.75-2.17-4.433175-8.087908-7.606356-16.804881-9.41-25.85c0-.15-.06-.29-.08-.41-.023883-.145694-.023883-.294306,0-.44c0-.38.31-.54,1.1-.53c10.26.07,20.52.08,30.79.11.78,0,1.55-.09,2.33-.09h125.25c1.41,0,2.07,0,2.28.39c0,0,0,0,0,0c.17.35,0,1-.29,2.15-3.29,13.37-8.62,25.73-18.09,36C142.33,169,129.85,175,115.79,178c-7.108177,1.599305-14.374192,2.390985-21.66,2.36h-.13c-18.28.57-36.1-1.31-52.54-10.2-5.309882-2.859461-10.111135-6.576124-14.21-11l-.81-.9c-1.38-1.58-2.83-2.21-4.78-1.15-1.43,2.17-1.38,3.09.33,5c7.110594,7.829115,15.986239,13.849058,25.89,17.56.76.3,1.71.29,1.91,1.59.5,3.42,2.44,6.1,5,8.38c3.270346,2.853128,7.083237,5.016374,11.21,6.36c12.625551,4.288777,26.163521,5.148057,39.23,2.49c7.14-1.34,14-3.58,19.72-8.26c2.84-2.3,5.08-5.09,5.59-8.84.109888-1.281489,1.002092-2.360896,2.24-2.71c10.62328-4.371381,19.949701-11.391156,27.09-20.39c13.31-16.9,18.1-36.8,19.8-57.68.33-4.19-1.82-7.5-5.46-9.7ZM161.35,20.14c2.250801-2.650701,6.199425-3.035824,8.92-.87c1.306305,1.024983,2.15188,2.526957,2.350674,4.175442s-.265483,3.308417-1.290674,4.614558l-.17.21c-6.06,7.4-12.22,14.73-18.51,22.22-2.359388-3.211074-5.411541-5.849666-8.93-7.72-1.37-.7-.27-1.25.11-1.72q6.6-7.95,13.25-15.85c1.42-1.69,2.77-3.42,4.27-5.06ZM124.58,34.47c7.37-8.76,14.68-17.55,22.07-26.3c1.74243-2.151347,4.692536-2.900064,7.25-1.84c2.633454,1.073945,4.284748,3.711989,4.1,6.55-.06691,1.356729-.592216,2.650602-1.49,3.67L137.35,39.46c-.418759.590487-1.160886.857812-1.86.67-.747325-.229008-1.530007-.32049-2.31-.27-3.73.71-6.38-.82-8.58-3.7-.6-.75-.6-1.03-.02-1.69Zm-4.83,152.31c-5.27,3.6-11.25,5.32-17.45,6.3-12,1.87-23.72,1.3-35.17-2.91-2.75729-.970387-5.340348-2.378407-7.65-4.17-1.161076-.878858-2.150834-1.963524-2.92-3.2c22.8,5.1,45.18,5.24,67.62-.71-1.0397,1.924862-2.567497,3.542327-4.43,4.69Zm54-84.66c-.35,3.49-1,6.95-1.38,10.43-.14,1.25-.69,1.53-1.76,1.4-.333033-.020002-.666967-.020002-1,0h-159.82c-2,0-2.52-.66-2.7-2.4-.29-3-.66-6-1.13-8.9-.73-4.68,1.78-7.54,6.6-7.53q54,.16,107.93,0c3,0,3.64-.45,4.41-3-.85-2.51-1.34-2.84-4.33-2.84h-105c-2.78,0-2.78,0-3-2.89-.870726-9.743394,5.500878-18.66364,15-21c1.882901-.319887,3.324395-1.851219,3.53-3.75C33.31,50.72,43.62,44,54.85,46.19c1.601273.484256,3.324427-.205006,4.15-1.66c7.21-10.42,20.48-12.08,30-3.78c1.92,1.68,3.12,1.67,5.1,0c9.63-8.23,22.61-6.68,29.93,3.67c1.19,1.67,2.6,1.91,4.4,1.63c8.900972-1.520337,17.6995,3.189779,21.37,11.44.722842,1.530906,1.208405,3.162937,1.44,4.84.095586,1.657446,1.25877,3.05975,2.87,3.46c9.199369,3.036604,14.899789,12.229743,13.53,21.82-.17,1.4-.67,1.8-2.07,1.79-10.09-.06-20.18,0-30.26-.06-2.14,0-3.49.72-3.94,2.87.73,2.47,1.43,3,4,3h32c4.73,0,6.87,2.24,6.41,6.91h-.03Z" fill="#040403"/><path id="rice-s-path2" d="M94.14,180.43c-18.34.58-36.21-1.28-52.7-10.2-5.316252-2.854199-10.121617-6.571429-14.22-11l-.81-.9c-1.38-1.58-2.83-2.21-4.78-1.15-1.459555-1.576264-2.709856-3.334079-3.72-5.23.1-.1.2-.2.29-.31l.13-.15c.121216-.142682.228379-.29673.32-.46.233097-.37653.379944-.799996.43-1.24.019946-.212867.019946-.427133,0-.64-.094562-.752396-.350385-1.475523-.75-2.12-4.440125-8.086745-7.620068-16.803768-9.43-25.85c0-.17-.06-.32-.08-.46-.023883-.145694-.023883-.294306,0-.44.06-.34.34-.49,1.1-.48c10.26.07,20.52.08,30.79.11v0c1.641143,8.651478,4.393962,17.054465,8.19,25v0l.39.55l10.89,15.12c1.82,2,1.7,2.32,2.75,3.34C68.997044,169.659331,76.164767,174.108967,84,177c.7.26,1.4.5,2.1.73c2.61.91,5.24,1.79,7.83,2.68l.21.02Z" fill="#fd876f"/><path id="rice-s-path3" d="M124.93,92.18c-.85-2.51-1.34-2.84-4.33-2.84h-105c-2.78,0-2.78,0-3-2.89-.862017-9.741024,5.505945-18.656171,15-21c1.886424-.306107,3.333294-1.839052,3.53-3.74c2.26-11,12.56-17.67,23.73-15.49c1.597674.467356,3.307778-.218338,4.14-1.66c7.23-10.43,20.5-12.08,30.05-3.78c1.93,1.68,3.13,1.67,5.11,0c9.64-8.24,22.61-6.69,29.93,3.66c1.19,1.67,2.59,1.91,4.39,1.63c8.903141-1.517875,17.703037,3.190769,21.38,11.44.721441,1.527935,1.206962,3.156455,1.44,4.83.0926,1.664092,1.261454,3.072399,2.88,3.47c9.19538,3.040416,14.89095,12.232528,13.52,21.82-.17,1.4-.67,1.8-2.07,1.79-10.09-.06-20.17,0-30.26-.06-2.14,0-3.49.73-3.94,2.87l-6.5-.05Zm6.38-28.11c.032498-.763999-.240179-1.509558-.757917-2.072317s-1.238029-.896512-2.002083-.927683h-.18c-1.088414-.039749-2.109623.525466-2.653888,1.468865s-.522397,2.110386.056831,3.032731s1.620896,1.448903,2.707057,1.368404c.750563,0,1.470384-.29816,2.001112-.828888s.828888-1.250549.828888-2.001112v-.04ZM53.73,57.89c-.777147-.018789-1.529906.272028-2.092564.808429s-.889091,1.274413-.907436,2.051571v.08c-.024254.748015.249831,1.474993.761885,2.020809s1.220076.865699,1.968115.889191v0c1.621323.092494,3.021893-1.121924,3.16-2.74.019104-1.641069-1.251938-3.00887-2.89-3.11Zm59.33,22.32c-.078674-1.576935-1.400502-2.803445-2.978908-2.764096s-2.837477,1.3302-2.837477,2.909096s1.259071,2.869747,2.837477,2.909096s2.900234-1.187161,2.978908-2.764096c.005176-.096597.005176-.193403,0-.29Z" transform="translate(-.358788 0)" fill="#eee8c4"/><path id="rice-s-path4" d="M170.6,120.15c.17.35,0,1-.29,2.15-3.29,13.37-8.62,25.73-18.09,36-9.89,10.7-22.37,16.7-36.43,19.7-7.108177,1.599305-14.374192,2.390985-21.66,2.36h-.13l.17.06c7.302581.035955,14.585717-.755763,21.71-2.36c14.06-3,26.54-9,36.43-19.71c9.47-10.26,14.8-22.62,18.09-36c.27-1.23.42-1.87.2-2.2ZM60.19,160.55L49.3,145.43c12.9,23.1,26,28.49,34.74,31.53-7.845069-2.884444-15.023239-7.330827-21.1-13.07-1.05-1.02-.94-1.34-2.75-3.34ZM40.67,119.89c1.641609,8.652645,4.397908,17.055994,8.2,25v0c-3.796038-7.945535-6.548857-16.348522-8.19-25h-.01Z" fill="#fd9a86"/><path id="rice-s-path5" d="M170.31,122.3c-3.29,13.37-8.62,25.73-18.09,36-9.89,10.7-22.37,16.7-36.43,19.7-7.108177,1.599305-14.374192,2.390985-21.66,2.36h-.13c-2.59-.89-5.22-1.77-7.83-2.68L84,177c-7.845069-2.884444-15.023239-7.330827-21.1-13.07-1-1-.93-1.34-2.75-3.34L49.3,145.43l-.33-.6h-.07c-3.796038-7.945535-6.548857-16.348522-8.19-25c.77,0,1.52-.09,2.29-.09h125.37c1.32,0,2,0,2.22.33c0,0,0,0,0,0c.18.43.02,1.06-.28,2.23Z" fill="#fd9a86"/><path id="rice-s-path6" d="M124.93,92.18h6.43c.72,2.47,1.43,3,4,3h32c4.71,0,6.85,2.25,6.39,6.92-.35,3.49-1,7-1.38,10.44-.14,1.24-.69,1.52-1.76,1.39-.333033-.020002-.666967-.020002-1,0h-159.85c-2,0-2.53-.67-2.7-2.41-.29-3-.66-5.93-1.13-8.9-.73-4.68,1.78-7.54,6.6-7.53q54,.16,107.93,0c3.05.11,3.7-.34,4.47-2.91Z" fill="#f2c32f"/><path id="rice-s-path7" d="M158,12.88c-.06691,1.356729-.592216,2.650602-1.49,3.67L137.35,39.46c-.418759.590487-1.160886.857812-1.86.67-.747325-.229008-1.530007-.32049-2.31-.27-3.73.71-6.38-.81-8.58-3.7-.57-.75-.58-1,0-1.69c7.37-8.75,14.68-17.55,22.07-26.29c1.740981-2.152642,4.687726-2.908635,7.25-1.86c2.622982,1.089081,4.262894,3.725801,4.08,6.56Z" fill="#fd876f"/><path id="rice-s-path8" d="M152.65,50.49c-2.359388-3.211074-5.411541-5.849666-8.93-7.72-1.37-.7-.27-1.25.12-1.72c4.39-5.3,8.82-10.57,13.24-15.85c1.42-1.69,2.8-3.42,4.27-5.06c2.250801-2.650701,6.199425-3.035824,8.92-.87c1.306305,1.024983,2.15188,2.526957,2.350674,4.175442s-.265483,3.308417-1.290674,4.614558l-.17.21c-6.06,7.4-12.22,14.73-18.51,22.22Z" fill="#fd876f"/><path id="rice-s-path9" d="M56.56,182.76c22.8,5.09,45.18,5.23,67.62-.71-1.032449,1.940643-2.561071,3.572783-4.43,4.73-5.27,3.6-11.25,5.33-17.45,6.3-12,1.87-23.72,1.31-35.17-2.91-2.75729-.970387-5.340348-2.378407-7.65-4.17-1.167332-.88795-2.157784-1.986945-2.92-3.24Z" fill="#fd876f"/><path id="rice-s-path10" d="M131.31,64.07c.002657.750564-.292958,1.471442-.821812,2.004046s-1.247624.833307-1.998188.835954v0c-1.601626.030376-2.924624-1.243374-2.955-2.845s1.243374-2.924624,2.845-2.955c.763887-.018792,1.503931.266755,2.057213.79378s.874446,1.252322.892787,2.01622l-.02.15Z" fill="#040403"/><path id="rice-s-path11" d="M53.73,57.89c1.638062.10113,2.909104,1.468931,2.89,3.11-.112272,1.617673-1.489674,2.853349-3.11,2.79-.748011-.020919-1.457038-.338282-1.970951-.882204s-.79057-1.269802-.769049-2.017796v0c-.018771-.778842.27341-1.533093.811962-2.09604s1.279128-.888233,2.058038-.90396h.09Z" fill="#040403"/><path id="rice-s-path12" d="M113.06,80.21c.033137,1.601626-1.238374,2.926863-2.84,2.96s-2.926863-1.238374-2.96-2.84c0-.09,0-.19,0-.29.123766-1.539338,1.432141-2.711658,2.975782-2.666336s2.780981,1.292388,2.814218,2.836336h.01Z" fill="#040403"/><path id="rice-s-path13" d="M87,157c-6.83-1.95-11.11-10.42-8.68-17c1.2-3.2,3.79-4.65,7-5.19c1.59741-.305979,3.225208-.423448,4.85-.35c1.67448-.068505,3.351394.048879,5,.35c4.45.73,6.9,3.29,7.46,7.73c1.15,9.1-7.24,16.87-15.63,14.46Z" transform="translate(0 0.000044)" fill="#040403"/><path id="rice-s-path14" d="M122.69,141.7c-1.142401,1.137506-2.927865,1.313126-4.27.42-1.69-2.7-1.08-5.61-.61-8.43.357553-1.182889,1.560924-1.895354,2.77-1.64c1.213406-.037527,2.275615.808855,2.51,2c.34,2.59.69,5.17-.4,7.65Z" transform="translate(.000005 0.000004)" fill="#040403"/><path id="rice-s-path15" d="M62,142.08c-1.362854.949486-3.212933.771675-4.37-.42-1-2.45-.59-5-.38-7.48.169927-1.29111,1.299041-2.237828,2.6-2.18c1.227091-.193825,2.400462.576876,2.71,1.78.44,2.81,1.02,5.66-.56,8.3Z" transform="translate(.000004 0.00001)" fill="#040403"/>
<script><![CDATA[
!function(t,n){"object"==typeof exports&&"undefined"!=typeof module?module.exports=n():"function"==typeof __SVGATOR_DEFINE__&&__SVGATOR_DEFINE__.amd?__SVGATOR_DEFINE__(n):((t="undefined"!=typeof globalThis?globalThis:t||self).__SVGATOR_PLAYER__=t.__SVGATOR_PLAYER__||{},t.__SVGATOR_PLAYER__["5c7f360c"]=n())}(this,(function(){"use strict";function t(t,n){var e=Object.keys(t);if(Object.getOwnPropertySymbols){var r=Object.getOwnPropertySymbols(t);n&&(r=r.filter((function(n){return Object.getOwnPropertyDescriptor(t,n).enumerable}))),e.push.apply(e,r)}return e}function n(n){for(var e=1;e<arguments.length;e++){var r=null!=arguments[e]?arguments[e]:{};e%2?t(Object(r),!0).forEach((function(t){u(n,t,r[t])})):Object.getOwnPropertyDescriptors?Object.defineProperties(n,Object.getOwnPropertyDescriptors(r)):t(Object(r)).forEach((function(t){Object.defineProperty(n,t,Object.getOwnPropertyDescriptor(r,t))}))}return n}function e(t){return(e="function"==typeof Symbol&&"symbol"==typeof Symbol.iterator?function(t){return typeof t}:function(t){return t&&"function"==typeof Symbol&&t.constructor===Symbol&&t!==Symbol.prototype?"symbol":typeof t})(t)}function r(t,n){if(!(t instanceof n))throw new TypeError("Cannot call a class as a function")}function i(t,n){for(var e=0;e<n.length;e++){var r=n[e];r.enumerable=r.enumerable||!1,r.configurable=!0,"value"in r&&(r.writable=!0),Object.defineProperty(t,r.key,r)}}function o(t,n,e){return n&&i(t.prototype,n),e&&i(t,e),t}function u(t,n,e){return n in t?Object.defineProperty(t,n,{value:e,enumerable:!0,configurable:!0,writable:!0}):t[n]=e,t}function a(t){return(a=Object.setPrototypeOf?Object.getPrototypeOf:function(t){return t.__proto__||Object.getPrototypeOf(t)})(t)}function l(t,n){return(l=Object.setPrototypeOf||function(t,n){return t.__proto__=n,t})(t,n)}function s(){if("undefined"==typeof Reflect||!Reflect.construct)return!1;if(Reflect.construct.sham)return!1;if("function"==typeof Proxy)return!0;try{return Boolean.prototype.valueOf.call(Reflect.construct(Boolean,[],(function(){}))),!0}catch(t){return!1}}function f(t,n,e){return(f=s()?Reflect.construct:function(t,n,e){var r=[null];r.push.apply(r,n);var i=new(Function.bind.apply(t,r));return e&&l(i,e.prototype),i}).apply(null,arguments)}function c(t,n){if(n&&("object"==typeof n||"function"==typeof n))return n;if(void 0!==n)throw new TypeError("Derived constructors may only return object or undefined");return function(t){if(void 0===t)throw new ReferenceError("this hasn't been initialised - super() hasn't been called");return t}(t)}function h(t,n,e){return(h="undefined"!=typeof Reflect&&Reflect.get?Reflect.get:function(t,n,e){var r=function(t,n){for(;!Object.prototype.hasOwnProperty.call(t,n)&&null!==(t=a(t)););return t}(t,n);if(r){var i=Object.getOwnPropertyDescriptor(r,n);return i.get?i.get.call(e):i.value}})(t,n,e||t)}function v(t){return function(t){if(Array.isArray(t))return y(t)}(t)||function(t){if("undefined"!=typeof Symbol&&null!=t[Symbol.iterator]||null!=t["@@iterator"])return Array.from(t)}(t)||function(t,n){if(!t)return;if("string"==typeof t)return y(t,n);var e=Object.prototype.toString.call(t).slice(8,-1);"Object"===e&&t.constructor&&(e=t.constructor.name);if("Map"===e||"Set"===e)return Array.from(t);if("Arguments"===e||/^(?:Ui|I)nt(?:8|16|32)(?:Clamped)?Array$/.test(e))return y(t,n)}(t)||function(){throw new TypeError("Invalid attempt to spread non-iterable instance.\nIn order to be iterable, non-array objects must have a [Symbol.iterator]() method.")}()}function y(t,n){(null==n||n>t.length)&&(n=t.length);for(var e=0,r=new Array(n);e<n;e++)r[e]=t[e];return r}function g(t,n,e){if(Number.isInteger(t))return t;var r=Math.pow(10,n);return Math[e]((+t+Number.EPSILON)*r)/r}Number.isInteger||(Number.isInteger=function(t){return"number"==typeof t&&isFinite(t)&&Math.floor(t)===t}),Number.EPSILON||(Number.EPSILON=2220446049250313e-31);var d=p(Math.pow(10,-6));function p(t){var n=arguments.length>1&&void 0!==arguments[1]?arguments[1]:6;return g(t,n,"round")}function m(t,n){var e=arguments.length>2&&void 0!==arguments[2]?arguments[2]:d;return Math.abs(t-n)<e}p(Math.pow(10,-2)),p(Math.pow(10,-4));var b=Math.PI/180;function w(t){return t}function A(t,n,e){var r=1-e;return 3*e*r*(t*r+n*e)+e*e*e}function _(){var t=arguments.length>0&&void 0!==arguments[0]?arguments[0]:0,n=arguments.length>1&&void 0!==arguments[1]?arguments[1]:0,e=arguments.length>2&&void 0!==arguments[2]?arguments[2]:1,r=arguments.length>3&&void 0!==arguments[3]?arguments[3]:1;return t<0||t>1||e<0||e>1?null:m(t,n)&&m(e,r)?w:function(i){if(i<=0)return t>0?i*n/t:0===n&&e>0?i*r/e:0;if(i>=1)return e<1?1+(i-1)*(r-1)/(e-1):1===e&&t<1?1+(i-1)*(n-1)/(t-1):1;for(var o,u=0,a=1;u<a;){var l=A(t,e,o=(u+a)/2);if(m(i,l))break;l<i?u=o:a=o}return A(n,r,o)}}function x(){return 1}function k(t){return 1===t?1:0}function S(){var t=arguments.length>0&&void 0!==arguments[0]?arguments[0]:1,n=arguments.length>1&&void 0!==arguments[1]?arguments[1]:0;if(1===t){if(0===n)return k;if(1===n)return x}var e=1/t;return function(t){return t>=1?1:(t+=n*e)-t%e}}var O=Math.sin,j=Math.cos,M=Math.acos,E=Math.asin,P=Math.tan,I=Math.atan2,R=Math.PI/180,F=180/Math.PI,N=Math.sqrt,T=function(){function t(){var n=arguments.length>0&&void 0!==arguments[0]?arguments[0]:1,e=arguments.length>1&&void 0!==arguments[1]?arguments[1]:0,i=arguments.length>2&&void 0!==arguments[2]?arguments[2]:0,o=arguments.length>3&&void 0!==arguments[3]?arguments[3]:1,u=arguments.length>4&&void 0!==arguments[4]?arguments[4]:0,a=arguments.length>5&&void 0!==arguments[5]?arguments[5]:0;r(this,t),this.m=[n,e,i,o,u,a],this.i=null,this.w=null,this.s=null}return o(t,[{key:"determinant",get:function(){var t=this.m;return t[0]*t[3]-t[1]*t[2]}},{key:"isIdentity",get:function(){if(null===this.i){var t=this.m;this.i=1===t[0]&&0===t[1]&&0===t[2]&&1===t[3]&&0===t[4]&&0===t[5]}return this.i}},{key:"point",value:function(t,n){var e=this.m;return{x:e[0]*t+e[2]*n+e[4],y:e[1]*t+e[3]*n+e[5]}}},{key:"translateSelf",value:function(){var t=arguments.length>0&&void 0!==arguments[0]?arguments[0]:0,n=arguments.length>1&&void 0!==arguments[1]?arguments[1]:0;if(!t&&!n)return this;var e=this.m;return e[4]+=e[0]*t+e[2]*n,e[5]+=e[1]*t+e[3]*n,this.w=this.s=this.i=null,this}},{key:"rotateSelf",value:function(){var t=arguments.length>0&&void 0!==arguments[0]?arguments[0]:0;if(t%=360){var n=O(t*=R),e=j(t),r=this.m,i=r[0],o=r[1];r[0]=i*e+r[2]*n,r[1]=o*e+r[3]*n,r[2]=r[2]*e-i*n,r[3]=r[3]*e-o*n,this.w=this.s=this.i=null}return this}},{key:"scaleSelf",value:function(){var t=arguments.length>0&&void 0!==arguments[0]?arguments[0]:1,n=arguments.length>1&&void 0!==arguments[1]?arguments[1]:1;if(1!==t||1!==n){var e=this.m;e[0]*=t,e[1]*=t,e[2]*=n,e[3]*=n,this.w=this.s=this.i=null}return this}},{key:"skewSelf",value:function(t,n){if(n%=360,(t%=360)||n){var e=this.m,r=e[0],i=e[1],o=e[2],u=e[3];t&&(t=P(t*R),e[2]+=r*t,e[3]+=i*t),n&&(n=P(n*R),e[0]+=o*n,e[1]+=u*n),this.w=this.s=this.i=null}return this}},{key:"resetSelf",value:function(){var t=arguments.length>0&&void 0!==arguments[0]?arguments[0]:1,n=arguments.length>1&&void 0!==arguments[1]?arguments[1]:0,e=arguments.length>2&&void 0!==arguments[2]?arguments[2]:0,r=arguments.length>3&&void 0!==arguments[3]?arguments[3]:1,i=arguments.length>4&&void 0!==arguments[4]?arguments[4]:0,o=arguments.length>5&&void 0!==arguments[5]?arguments[5]:0,u=this.m;return u[0]=t,u[1]=n,u[2]=e,u[3]=r,u[4]=i,u[5]=o,this.w=this.s=this.i=null,this}},{key:"recomposeSelf",value:function(){var t=arguments.length>0&&void 0!==arguments[0]?arguments[0]:null,n=arguments.length>1&&void 0!==arguments[1]?arguments[1]:null,e=arguments.length>2&&void 0!==arguments[2]?arguments[2]:null,r=arguments.length>3&&void 0!==arguments[3]?arguments[3]:null,i=arguments.length>4&&void 0!==arguments[4]?arguments[4]:null;return this.isIdentity||this.resetSelf(),t&&(t.x||t.y)&&this.translateSelf(t.x,t.y),n&&this.rotateSelf(n),e&&(e.x&&this.skewSelf(e.x,0),e.y&&this.skewSelf(0,e.y)),!r||1===r.x&&1===r.y||this.scaleSelf(r.x,r.y),i&&(i.x||i.y)&&this.translateSelf(i.x,i.y),this}},{key:"decompose",value:function(){var t=arguments.length>0&&void 0!==arguments[0]?arguments[0]:0,n=arguments.length>1&&void 0!==arguments[1]?arguments[1]:0,e=this.m,r=e[0]*e[0]+e[1]*e[1],i=[[e[0],e[1]],[e[2],e[3]]],o=N(r);if(0===o)return{origin:{x:p(e[4]),y:p(e[5])},translate:{x:p(t),y:p(n)},scale:{x:0,y:0},skew:{x:0,y:0},rotate:0};i[0][0]/=o,i[0][1]/=o;var u=e[0]*e[3]-e[1]*e[2]<0;u&&(o=-o);var a=i[0][0]*i[1][0]+i[0][1]*i[1][1];i[1][0]-=i[0][0]*a,i[1][1]-=i[0][1]*a;var l=N(i[1][0]*i[1][0]+i[1][1]*i[1][1]);if(0===l)return{origin:{x:p(e[4]),y:p(e[5])},translate:{x:p(t),y:p(n)},scale:{x:p(o),y:0},skew:{x:0,y:0},rotate:0};i[1][0]/=l,i[1][1]/=l,a/=l;var s=0;return i[1][1]<0?(s=M(i[1][1])*F,i[0][1]<0&&(s=360-s)):s=E(i[0][1])*F,u&&(s=-s),a=I(a,N(i[0][0]*i[0][0]+i[0][1]*i[0][1]))*F,u&&(a=-a),{origin:{x:p(e[4]),y:p(e[5])},translate:{x:p(t),y:p(n)},scale:{x:p(o),y:p(l)},skew:{x:p(a),y:0},rotate:p(s)}}},{key:"clone",value:function(){var t=this.m;return new this.constructor(t[0],t[1],t[2],t[3],t[4],t[5])}},{key:"toString",value:function(){var t=arguments.length>0&&void 0!==arguments[0]?arguments[0]:" ";if(null===this.s){var n=this.m.map((function(t){return p(t)}));1===n[0]&&0===n[1]&&0===n[2]&&1===n[3]?this.s="translate("+n[4]+t+n[5]+")":this.s="matrix("+n.join(t)+")"}return this.s}}],[{key:"create",value:function(t){return t?Array.isArray(t)?f(this,v(t)):t instanceof this?t.clone():(new this).recomposeSelf(t.origin,t.rotate,t.skew,t.scale,t.translate):new this}}]),t}();function q(t,n,e){return t>=.5?e:n}function B(t,n,e){return 0===t||n===e?n:t*(e-n)+n}function D(t,n,e){var r=B(t,n,e);return r<=0?0:r}function L(t,n,e){var r=B(t,n,e);return r<=0?0:r>=1?1:r}function C(t,n,e){return 0===t?n:1===t?e:{x:B(t,n.x,e.x),y:B(t,n.y,e.y)}}function V(t,n,e){var r=function(t,n,e){return Math.round(B(t,n,e))}(t,n,e);return r<=0?0:r>=255?255:r}function G(t,n,e){return 0===t?n:1===t?e:{r:V(t,n.r,e.r),g:V(t,n.g,e.g),b:V(t,n.b,e.b),a:B(t,null==n.a?1:n.a,null==e.a?1:e.a)}}function z(t,n){for(var e=[],r=0;r<t;r++)e.push(n);return e}function Y(t,n){if(--n<=0)return t;var e=(t=Object.assign([],t)).length;do{for(var r=0;r<e;r++)t.push(t[r])}while(--n>0);return t}var $,U=function(){function t(n){r(this,t),this.list=n,this.length=n.length}return o(t,[{key:"setAttribute",value:function(t,n){for(var e=this.list,r=0;r<this.length;r++)e[r].setAttribute(t,n)}},{key:"removeAttribute",value:function(t){for(var n=this.list,e=0;e<this.length;e++)n[e].removeAttribute(t)}},{key:"style",value:function(t,n){for(var e=this.list,r=0;r<this.length;r++)e[r].style[t]=n}}]),t}(),Q=/-./g,H=function(t,n){return n.toUpperCase()};function J(t){return"function"==typeof t?t:q}function Z(t){return t?"function"==typeof t?t:Array.isArray(t)?function(t){var n=arguments.length>1&&void 0!==arguments[1]?arguments[1]:w;if(!Array.isArray(t))return n;switch(t.length){case 1:return S(t[0])||n;case 2:return S(t[0],t[1])||n;case 4:return _(t[0],t[1],t[2],t[3])||n}return n}(t,null):function(t,n){var e=arguments.length>2&&void 0!==arguments[2]?arguments[2]:w;switch(t){case"linear":return w;case"steps":return S(n.steps||1,n.jump||0)||e;case"bezier":case"cubic-bezier":return _(n.x1||0,n.y1||0,n.x2||0,n.y2||0)||e}return e}(t.type,t.value,null):null}function K(t,n,e){var r=arguments.length>3&&void 0!==arguments[3]&&arguments[3],i=n.length-1;if(t<=n[0].t)return r?[0,0,n[0].v]:n[0].v;if(t>=n[i].t)return r?[i,1,n[i].v]:n[i].v;var o,u=n[0],a=null;for(o=1;o<=i;o++){if(!(t>n[o].t)){a=n[o];break}u=n[o]}return null==a?r?[i,1,n[i].v]:n[i].v:u.t===a.t?r?[o,1,a.v]:a.v:(t=(t-u.t)/(a.t-u.t),u.e&&(t=u.e(t)),r?[o,t,e(t,u.v,a.v)]:e(t,u.v,a.v))}function W(t,n){var e=arguments.length>2&&void 0!==arguments[2]?arguments[2]:null;return t&&t.length?"function"!=typeof n?null:("function"!=typeof e&&(e=null),function(r){var i=K(r,t,n);return null!=i&&e&&(i=e(i)),i}):null}function X(t,n){return t.t-n.t}function tt(t,n,r,i,o){var u,a="@"===r[0],l="#"===r[0],s=$[r],f=q;switch(a?(u=r.substr(1),r=u.replace(Q,H)):l&&(r=r.substr(1)),e(s)){case"function":if(f=s(i,o,K,Z,r,a,n,t),l)return f;break;case"string":f=W(i,J(s));break;case"object":if((f=W(i,J(s.i),s.f))&&"function"==typeof s.u)return s.u(n,f,r,a,t)}return f?function(t,n,e){if(arguments.length>3&&void 0!==arguments[3]&&arguments[3])return t instanceof U?function(r){return t.style(n,e(r))}:function(r){return t.style[n]=e(r)};if(Array.isArray(n)){var r=n.length;return function(i){var o=e(i);if(null==o)for(var u=0;u<r;u++)t[u].removeAttribute(n);else for(var a=0;a<r;a++)t[a].setAttribute(n,o)}}return function(r){var i=e(r);null==i?t.removeAttribute(n):t.setAttribute(n,i)}}(n,r,f,a):null}function nt(t,n,r,i){if(!i||"object"!==e(i))return null;var o=null,u=null;return Array.isArray(i)?u=function(t){if(!t||!t.length)return null;for(var n=0;n<t.length;n++)t[n].e&&(t[n].e=Z(t[n].e));return t.sort(X)}(i):(u=i.keys,o=i.data||null),u?tt(t,n,r,u,o):null}function et(t,n,e){if(!e)return null;var r=[];for(var i in e)if(e.hasOwnProperty(i)){var o=nt(t,n,i,e[i]);o&&r.push(o)}return r.length?r:null}function rt(t,n){if(!n.settings.duration||n.settings.duration<0)return null;var e,r,i,o,u,a=function(t,n){if(!n)return null;var e=[];if(Array.isArray(n))for(var r=n.length,i=0;i<r;i++){var o=n[i];if(2===o.length){var u=null;if("string"==typeof o[0])u=t.getElementById(o[0]);else if(Array.isArray(o[0])){u=[];for(var a=0;a<o[0].length;a++)if("string"==typeof o[0][a]){var l=t.getElementById(o[0][a]);l&&u.push(l)}u=u.length?1===u.length?u[0]:new U(u):null}if(u){var s=et(t,u,o[1]);s&&(e=e.concat(s))}}}else for(var f in n)if(n.hasOwnProperty(f)){var c=t.getElementById(f);if(c){var h=et(t,c,n[f]);h&&(e=e.concat(h))}}return e.length?e:null}(t,n.elements);return a?(e=a,r=n.settings,i=r.duration,o=e.length,u=null,function(t,n){var a=r.iterations||1/0,l=(r.alternate&&a%2==0)^r.direction>0?i:0,s=t%i,f=1+(t-s)/i;n*=r.direction,r.alternate&&f%2==0&&(n=-n);var c=!1;if(f>a)s=l,c=!0,-1===r.fill&&(s=r.direction>0?0:i);else if(n<0&&(s=i-s),s===u)return!1;u=s;for(var h=0;h<o;h++)e[h](s);return c}):null}function it(t,n){for(var e=n.querySelectorAll("svg"),r=0;r<e.length;r++)if(e[r].id===t.root&&!e[r].svgatorAnimation)return e[r].svgatorAnimation=!0,e[r];return null}function ot(t){var n=function(t){return t.shadowRoot};return document?Array.from(t.querySelectorAll(":not("+["a","area","audio","br","canvas","circle","datalist","embed","g","head","hr","iframe","img","input","link","object","path","polygon","rect","script","source","style","svg","title","track","video"].join()+")")).filter(n).map(n):[]}function ut(t){var n=arguments.length>1&&void 0!==arguments[1]?arguments[1]:document,e=arguments.length>2&&void 0!==arguments[2]?arguments[2]:0,r=it(t,n);if(r)return r;if(e>=20)return null;for(var i=ot(n),o=0;o<i.length;o++){var u=ut(t,i[o],e+1);if(u)return u}return null}function at(t,n){if($=n,!t||!t.root||!Array.isArray(t.animations))return null;var e=ut(t);if(!e)return null;var r=t.animations.map((function(t){return rt(e,t)})).filter((function(t){return!!t}));return r.length?{svg:e,animations:r,animationSettings:t.animationSettings,options:t.options||void 0}:null}function lt(t){var n=arguments.length>1&&void 0!==arguments[1]?arguments[1]:null,e=arguments.length>2&&void 0!==arguments[2]?arguments[2]:Number,r=arguments.length>3&&void 0!==arguments[3]?arguments[3]:"undefined"!=typeof BigInt&&BigInt,i="0x"+(t.replace(/[^0-9a-fA-F]+/g,"")||27);return n&&r&&e.isSafeInteger&&!e.isSafeInteger(+i)?e(r(i))%n+n:+i}function st(t,n,e){return!t||!e||n>t.length?t:t.substring(0,n)+st(t.substring(n+1),e,e)}function ft(t){var n=arguments.length>1&&void 0!==arguments[1]?arguments[1]:27;return!t||t%n?t%n:[0,1].includes(n)?n:ft(t/n,n)}function ct(t,n,e){if(t&&t.length){var r=lt(e),i=ft(r)+5,o=st(t,ft(r,5),i);return o=o.replace(/\x7c$/g,"==").replace(/\x2f$/g,"="),o=function(t,n,e){var r=+("0x"+t.substring(0,4));t=t.substring(4);for(var i=lt(n,r)%r+e%27,o=[],u=0;u<t.length;u+=2)if("|"!==t[u]){var a=+("0x"+t[u]+t[u+1])-i;o.push(a)}else{var l=+("0x"+t.substring(u+1,u+1+4))-i;u+=3,o.push(l)}return String.fromCharCode.apply(String,o)}(o=(o=atob(o)).replace(/[\x41-\x5A]/g,""),n,r),o=JSON.parse(o)}}var ht=[{key:"alternate",def:!1},{key:"fill",def:1},{key:"iterations",def:0},{key:"direction",def:1},{key:"speed",def:1},{key:"fps",def:100}],vt=function(){function t(n,e){var i=this,o=arguments.length>2&&void 0!==arguments[2]?arguments[2]:null;r(this,t),this._id=0,this._running=!1,this._rollingBack=!1,this._animations=n,this._settings=e,(!o||o<"2022-05-02")&&delete this._settings.speed,ht.forEach((function(t){i._settings[t.key]=i._settings[t.key]||t.def})),this.duration=e.duration,this.offset=e.offset||0,this.rollbackStartOffset=0}return o(t,[{key:"alternate",get:function(){return this._settings.alternate}},{key:"fill",get:function(){return this._settings.fill}},{key:"iterations",get:function(){return this._settings.iterations}},{key:"direction",get:function(){return this._settings.direction}},{key:"speed",get:function(){return this._settings.speed}},{key:"fps",get:function(){return this._settings.fps}},{key:"maxFiniteDuration",get:function(){return this.iterations>0?this.iterations*this.duration:this.duration}},{key:"_apply",value:function(t){for(var n=arguments.length>1&&void 0!==arguments[1]?arguments[1]:{},e=this._animations,r=e.length,i=0,o=0;o<r;o++)n[o]?i++:(n[o]=e[o](t,1),n[o]&&i++);return i}},{key:"_rollback",value:function(t){var n=this,e=1/0,r=null;this.rollbackStartOffset=t,this._rollingBack=!0,this._running=!0;this._id=window.requestAnimationFrame((function i(o){if(n._rollingBack){null==r&&(r=o);var u=Math.round(t-(o-r)*n.speed);if(u>n.duration&&e!==1/0){var a=!!n.alternate&&u/n.duration%2>1,l=u%n.duration;u=(l+=a?n.duration:0)||n.duration}var s=(n.fps?1e3/n.fps:0)*n.speed,f=Math.max(0,u);f<=e-s&&(n.offset=f,e=f,n._apply(f));var c=n.iterations>0&&-1===n.fill&&u>=n.maxFiniteDuration;(u<=0||n.offset<u||c)&&n.stop(),n._id=window.requestAnimationFrame(i)}}))}},{key:"_start",value:function(){var t=this,n=arguments.length>0&&void 0!==arguments[0]?arguments[0]:0,e=-1/0,r=null,i={};this._running=!0;var o=function o(u){null==r&&(r=u);var a=Math.round((u-r)*t.speed+n),l=(t.fps?1e3/t.fps:0)*t.speed;if(a>=e+l&&!t._rollingBack&&(t.offset=a,e=a,t._apply(a,i)===t._animations.length))return void t.pause(!0);t._id=window.requestAnimationFrame(o)};this._id=window.requestAnimationFrame(o)}},{key:"_pause",value:function(){this._id&&window.cancelAnimationFrame(this._id),this._running=!1}},{key:"play",value:function(){if(!this._running)return this._rollingBack?this._rollback(this.offset):this._start(this.offset)}},{key:"stop",value:function(){this._pause(),this.offset=0,this.rollbackStartOffset=0,this._rollingBack=!1,this._apply(0)}},{key:"reachedToEnd",value:function(){return this.iterations>0&&this.offset>=this.iterations*this.duration}},{key:"restart",value:function(){var t=arguments.length>0&&void 0!==arguments[0]&&arguments[0];this.stop(t),this.play(t)}},{key:"pause",value:function(){this._pause()}},{key:"reverse",value:function(){this.direction=-this.direction}}],[{key:"build",value:function(t,n){delete t.animationSettings,t.options=ct(t.options,t.root,"5c7f360c"),t.animations.map((function(n){n.settings=ct(n.s,t.root,"5c7f360c"),delete n.s,t.animationSettings||(t.animationSettings=n.settings)}));var e=t.version;if(!(t=at(t,n)))return null;var r=t.options||{},i=new this(t.animations,t.animationSettings,e);return{el:t.svg,options:r,player:i}}},{key:"push",value:function(t){return this.build(t)}},{key:"init",value:function(){var t=this,n=window.__SVGATOR_PLAYER__&&window.__SVGATOR_PLAYER__["5c7f360c"];Array.isArray(n)&&n.splice(0).forEach((function(n){return t.build(n)}))}}]),t}();function yt(t){return p(t)+""}function gt(t){var n=arguments.length>1&&void 0!==arguments[1]?arguments[1]:" ";return t&&t.length?t.map(yt).join(n):""}function dt(t){if(!t)return"transparent";if(null==t.a||t.a>=1){var n=function(t){return 1===(t=parseInt(t).toString(16)).length?"0"+t:t},e=function(t){return t.charAt(0)===t.charAt(1)},r=n(t.r),i=n(t.g),o=n(t.b);return e(r)&&e(i)&&e(o)&&(r=r.charAt(0),i=i.charAt(0),o=o.charAt(0)),"#"+r+i+o}return"rgba("+t.r+","+t.g+","+t.b+","+t.a+")"}function pt(t){return t?"url(#"+t+")":"none"}!function(){for(var t=0,n=["ms","moz","webkit","o"],e=0;e<n.length&&!window.requestAnimationFrame;++e)window.requestAnimationFrame=window[n[e]+"RequestAnimationFrame"],window.cancelAnimationFrame=window[n[e]+"CancelAnimationFrame"]||window[n[e]+"CancelRequestAnimationFrame"];window.requestAnimationFrame||(window.requestAnimationFrame=function(n){var e=Date.now(),r=Math.max(0,16-(e-t)),i=window.setTimeout((function(){n(e+r)}),r);return t=e+r,i},window.cancelAnimationFrame=window.clearTimeout)}();var mt={f:null,i:function(t,n,e){return 0===t?n:1===t?e:{x:D(t,n.x,e.x),y:D(t,n.y,e.y)}},u:function(t,n){return function(e){var r=n(e);t.setAttribute("rx",yt(r.x)),t.setAttribute("ry",yt(r.y))}}},bt={f:null,i:function(t,n,e){return 0===t?n:1===t?e:{width:D(t,n.width,e.width),height:D(t,n.height,e.height)}},u:function(t,n){return function(e){var r=n(e);t.setAttribute("width",yt(r.width)),t.setAttribute("height",yt(r.height))}}};Object.freeze({M:2,L:2,Z:0,H:1,V:1,C:6,Q:4,T:2,S:4,A:7});var wt={},At=null;function _t(t){var n=function(){if(At)return At;if("object"!==("undefined"==typeof document?"undefined":e(document))||!document.createElementNS)return{};var t=document.createElementNS("http://www.w3.org/2000/svg","svg");return t&&t.style?(t.style.position="absolute",t.style.opacity="0.01",t.style.zIndex="-9999",t.style.left="-9999px",t.style.width="1px",t.style.height="1px",At={svg:t}):{}}().svg;if(!n)return function(t){return null};var r=document.createElementNS(n.namespaceURI,"path");r.setAttributeNS(null,"d",t),r.setAttributeNS(null,"fill","none"),r.setAttributeNS(null,"stroke","none"),n.appendChild(r);var i=r.getTotalLength();return function(t){var n=r.getPointAtLength(i*t);return{x:n.x,y:n.y}}}function xt(t){return wt[t]?wt[t]:wt[t]=_t(t)}function kt(t,n,e,r){if(!t||!r)return!1;var i=["M",t.x,t.y];if(n&&e&&(i.push("C"),i.push(n.x),i.push(n.y),i.push(e.x),i.push(e.y)),n?!e:e){var o=n||e;i.push("Q"),i.push(o.x),i.push(o.y)}return n||e||i.push("L"),i.push(r.x),i.push(r.y),i.join(" ")}function St(t,n,e,r){var i=arguments.length>4&&void 0!==arguments[4]?arguments[4]:1,o=kt(t,n,e,r),u=xt(o);try{return u(i)}catch(t){return null}}function Ot(t,n,e){return t+(n-t)*e}function jt(t,n,e){var r=arguments.length>3&&void 0!==arguments[3]&&arguments[3],i={x:Ot(t.x,n.x,e),y:Ot(t.y,n.y,e)};return r&&(i.a=Mt(t,n)),i}function Mt(t,n){return Math.atan2(n.y-t.y,n.x-t.x)}function Et(t,n,e,r){var i=1-r;return i*i*t+2*i*r*n+r*r*e}function Pt(t,n,e,r){return 2*(1-r)*(n-t)+2*r*(e-n)}function It(t,n,e,r){var i=arguments.length>4&&void 0!==arguments[4]&&arguments[4],o=St(t,n,null,e,r);return o||(o={x:Et(t.x,n.x,e.x,r),y:Et(t.y,n.y,e.y,r)}),i&&(o.a=Rt(t,n,e,r)),o}function Rt(t,n,e,r){return Math.atan2(Pt(t.y,n.y,e.y,r),Pt(t.x,n.x,e.x,r))}function Ft(t,n,e,r,i){var o=i*i;return i*o*(r-t+3*(n-e))+3*o*(t+e-2*n)+3*i*(n-t)+t}function Nt(t,n,e,r,i){var o=1-i;return 3*(o*o*(n-t)+2*o*i*(e-n)+i*i*(r-e))}function Tt(t,n,e,r,i){var o=arguments.length>5&&void 0!==arguments[5]&&arguments[5],u=St(t,n,e,r,i);return u||(u={x:Ft(t.x,n.x,e.x,r.x,i),y:Ft(t.y,n.y,e.y,r.y,i)}),o&&(u.a=qt(t,n,e,r,i)),u}function qt(t,n,e,r,i){return Math.atan2(Nt(t.y,n.y,e.y,r.y,i),Nt(t.x,n.x,e.x,r.x,i))}function Bt(t,n,e){var r=arguments.length>3&&void 0!==arguments[3]&&arguments[3];if(Lt(n)){if(Ct(e))return It(n,e.start,e,t,r)}else if(Lt(e)){if(Vt(n))return It(n,n.end,e,t,r)}else{if(Vt(n))return Ct(e)?Tt(n,n.end,e.start,e,t,r):It(n,n.end,e,t,r);if(Ct(e))return It(n,e.start,e,t,r)}return jt(n,e,t,r)}function Dt(t,n,e){var r=Bt(t,n,e,!0);return r.a=function(t){return arguments.length>1&&void 0!==arguments[1]&&arguments[1]?t+Math.PI:t}(r.a)/b,r}function Lt(t){return!t.type||"corner"===t.type}function Ct(t){return null!=t.start&&!Lt(t)}function Vt(t){return null!=t.end&&!Lt(t)}var Gt=new T;var zt={f:yt,i:B},Yt={f:yt,i:L};function $t(t,n,e){return t.map((function(t){return function(t,n,e){var r=t.v;if(!r||"g"!==r.t||r.s||!r.v||!r.r)return t;var i=e.getElementById(r.r),o=i&&i.querySelectorAll("stop")||[];return r.s=r.v.map((function(t,n){var e=o[n]&&o[n].getAttribute("offset");return{c:t,o:e=p(parseInt(e)/100)}})),delete r.v,t}(t,0,e)}))}var Ut={gt:"gradientTransform",c:{x:"cx",y:"cy"},rd:"r",f:{x:"x1",y:"y1"},to:{x:"x2",y:"y2"}};function Qt(t,n,r,i,o,u,a,l){return $t(t,0,l),n=function(t,n,e){for(var r,i,o,u=t.length-1,a={},l=0;l<=u;l++)(r=t[l]).e&&(r.e=n(r.e)),r.v&&"g"===(i=r.v).t&&i.r&&(o=e.getElementById(i.r))&&(a[i.r]={e:o,s:o.querySelectorAll("stop")});return a}(t,i,l),function(i){var o=r(i,t,Ht);if(!o)return"none";if("c"===o.t)return dt(o.v);if("g"===o.t){if(!n[o.r])return pt(o.r);var u=n[o.r];return function(t,n){for(var e=t.s,r=e.length;r<n.length;r++){var i=e[e.length-1].cloneNode();i.id=Kt(i.id),t.e.appendChild(i),e=t.s=t.e.querySelectorAll("stop")}for(var o=0,u=e.length,a=n.length-1;o<u;o++)e[o].setAttribute("stop-color",dt(n[Math.min(o,a)].c)),e[o].setAttribute("offset",n[Math.min(o,a)].o)}(u,o.s),Object.keys(Ut).forEach((function(t){if(void 0!==o[t])if("object"!==e(Ut[t])){var n,r="gt"===t?(n=o[t],Array.isArray(n)?"matrix("+n.join(" ")+")":""):o[t],i=Ut[t];u.e.setAttribute(i,r)}else Object.keys(Ut[t]).forEach((function(n){if(void 0!==o[t][n]){var e=o[t][n],r=Ut[t][n];u.e.setAttribute(r,e)}}))})),pt(o.r)}return"none"}}function Ht(t,e,r){if(0===t)return e;if(1===t)return r;if(e&&r){var i=e.t;if(i===r.t)switch(e.t){case"c":return{t:i,v:G(t,e.v,r.v)};case"g":if(e.r===r.r){var o={t:i,s:Jt(t,e.s,r.s),r:e.r};return e.gt&&r.gt&&(o.gt=function(t,n,e){var r=n.length;if(r!==e.length)return q(t,n,e);for(var i=new Array(r),o=0;o<r;o++)i[o]=B(t,n[o],e[o]);return i}(t,e.gt,r.gt)),e.c?(o.c=C(t,e.c,r.c),o.rd=D(t,e.rd,r.rd)):e.f&&(o.f=C(t,e.f,r.f),o.to=C(t,e.to,r.to)),o}}if("c"===e.t&&"g"===r.t||"c"===r.t&&"g"===e.t){var u="c"===e.t?e:r,a="g"===e.t?n({},e):n({},r),l=a.s.map((function(t){return{c:u.v,o:t.o}}));return a.s="c"===e.t?Jt(t,l,a.s):Jt(t,a.s,l),a}}return q(t,e,r)}function Jt(t,n,e){if(n.length===e.length)return n.map((function(n,r){return Zt(t,n,e[r])}));for(var r=Math.max(n.length,e.length),i=[],o=0;o<r;o++){var u=Zt(t,n[Math.min(o,n.length-1)],e[Math.min(o,e.length-1)]);i.push(u)}return i}function Zt(t,n,e){return{o:L(t,n.o,e.o||0),c:G(t,n.c,e.c||{})}}function Kt(t){return t.replace(/-fill-([0-9]+)$/,(function(t,n){return"-fill-"+(+n+1)}))}var Wt={fill:Qt,"fill-opacity":Yt,stroke:Qt,"stroke-opacity":Yt,"stroke-width":zt,"stroke-dashoffset":{f:yt,i:B},"stroke-dasharray":{f:function(t){var n=arguments.length>1&&void 0!==arguments[1]?arguments[1]:" ";return t&&t.length>0&&(t=t.map((function(t){return p(t,4)}))),gt(t,n)},i:function(t,n,e){var r,i,o,u=n.length,a=e.length;if(u!==a)if(0===u)n=z(u=a,0);else if(0===a)a=u,e=z(u,0);else{var l=(o=(r=u)*(i=a)/function(t,n){for(var e;n;)e=n,n=t%n,t=e;return t||1}(r,i))<0?-o:o;n=Y(n,Math.floor(l/u)),e=Y(e,Math.floor(l/a)),u=a=l}for(var s=[],f=0;f<u;f++)s.push(p(D(t,n[f],e[f])));return s}},opacity:Yt,transform:function(t,n,r,i){if(!(t=function(t,n){if(!t||"object"!==e(t))return null;var r=!1;for(var i in t)t.hasOwnProperty(i)&&(t[i]&&t[i].length?(t[i].forEach((function(t){t.e&&(t.e=n(t.e))})),r=!0):delete t[i]);return r?t:null}(t,i)))return null;var o=function(e,i,o){var u=arguments.length>3&&void 0!==arguments[3]?arguments[3]:null;return t[e]?r(i,t[e],o):n&&n[e]?n[e]:u};return n&&n.a&&t.o?function(n){var e=r(n,t.o,Dt);return Gt.recomposeSelf(e,o("r",n,B,0)+e.a,o("k",n,C),o("s",n,C),o("t",n,C)).toString()}:function(t){return Gt.recomposeSelf(o("o",t,Bt,null),o("r",t,B,0),o("k",t,C),o("s",t,C),o("t",t,C)).toString()}},r:zt,"#size":bt,"#radius":mt,_:function(t,n){if(Array.isArray(t))for(var e=0;e<t.length;e++)this[t[e]]=n;else this[t]=n}},Xt=function(t){!function(t,n){if("function"!=typeof n&&null!==n)throw new TypeError("Super expression must either be null or a function");t.prototype=Object.create(n&&n.prototype,{constructor:{value:t,writable:!0,configurable:!0}}),n&&l(t,n)}(u,t);var n,e,i=(n=u,e=s(),function(){var t,r=a(n);if(e){var i=a(this).constructor;t=Reflect.construct(r,arguments,i)}else t=r.apply(this,arguments);return c(this,t)});function u(){return r(this,u),i.apply(this,arguments)}return o(u,null,[{key:"build",value:function(t){var n=h(a(u),"build",this).call(this,t,Wt);if(!n)return null;n.el,n.options,function(t,n,e){t.play()}(n.player)}}]),u}(vt);return Xt.init(),Xt}));
(function(s,i,o,w,d,a,b){w[o]=w[o]||{};w[o][s]=w[o][s]||[];w[o][s].push(i);})('5c7f360c',{"root":"rice","version":"2022-05-04","animations":[{"elements":{"rice-s-path13":{"transform":{"data":{"o":{"x":90.37,"y":150.163113,"type":"corner"},"t":{"x":-90.37,"y":-150.163069}},"keys":{"s":[{"t":1700,"v":{"x":1,"y":1}},{"t":1900,"v":{"x":0.7,"y":0.7}},{"t":2100,"v":{"x":1.2,"y":1.2}},{"t":2400,"v":{"x":1,"y":1}},{"t":2600,"v":{"x":0.8,"y":0.8}},{"t":2800,"v":{"x":1,"y":1}}]}}},"rice-s-path14":{"transform":{"data":{"o":{"x":120.365704,"y":142.687759,"type":"corner"},"t":{"x":-120.365699,"y":-142.687755}},"keys":{"s":[{"t":900,"v":{"x":1,"y":1}},{"t":1000,"v":{"x":0.2,"y":0.2}},{"t":1200,"v":{"x":1,"y":1}}]}}},"rice-s-path15":{"transform":{"data":{"o":{"x":60.011885,"y":142.688538,"type":"corner"},"t":{"x":-60.011881,"y":-142.688528}},"keys":{"s":[{"t":900,"v":{"x":1,"y":1}},{"t":1000,"v":{"x":0.2,"y":0.2}},{"t":1200,"v":{"x":1,"y":1}}]}}}},"s":"MQDA1ZDliNDI4NDk1OTFI4MVk5NDg5OGY4ZUIJ0MjVhNTM1MDUwNTA0XYzQyODQ4OTkyODU4MMzk0ODk4ZjhlNDI1YTFUxNGM0Mjg5OTQ4NTkHyVTgxOTRVODk4ZjhlYWTkzNDI1YTUwNGM0MNjg2ODk4YzhjNDI1YTTUxNGM0MjgxOGM5NDgY1OTI4ZTgxOTRSODU0SMlA1YTg2ODE4YzkzOIDU0YzQyOTM5MDg1ODRU4NDQyNWE1MTRjNDIL4NjkwOTM0MjVhNTE1XMDUwOWQ/"}],"options":"MPDAxMDk1M2M4ZDhlN2HI4YzhlM2M1NDNjODYV4OTdiN2UzYzk3"},'__SVGATOR_PLAYER__',window,document)
]]></script>
</svg>
