<svg id="ramen" xmlns="http://www.w3.org/2000/svg" xmlns:xlink="http://www.w3.org/1999/xlink" width="180px" viewBox="0 0 179.62 200.08" shape-rendering="geometricPrecision" text-rendering="geometricPrecision"><path id="ramen-s-path1" d="M-40.138866,10.46h7.999976" transform="matrix(1.000003 0 0 1 64.893673 15.606516)" fill="none" stroke="#fd9a86" stroke-width="9.5" stroke-linecap="round"/><path id="ramen-s-path2" d="M178,89.4h-15.82c-3.23,0-3.23,0-3.65-3.32-.08-.64-.23-1.27-.35-1.92-3.65-20.15-24.31-34.11-44.36-30-3.265298.717451-6.460999,1.721336-9.55,3c0-6.33.08-12.44,0-18.54c0-1.72.52-2,2.06-2q25.77.09,51.53,0c4.10074.140448,7.871147-2.238357,9.51-6c1.921381-3.621418,1.437825-8.048728-1.22-11.17-.77-1-.71-1.42,0-2.35c2.002728-2.595964,2.699436-5.96913,1.889079-9.14612s-3.03762-5.804338-6.039079-7.12388c-.74-.32-1.66-.12-2.24-.83L32.45,0c-.12.51-.6.42-.93.56-7.29,2.93-9.46,10.62-4.66,16.89.78,1,.25,1.4-.25,2.07-2.626616,3.140011-3.100398,7.554084-1.2,11.18c1.681167,3.729718,5.429941,6.092391,9.52,6c2.47.06,4.94.09,7.41,0c1.26,0,1.48.37,1.48,1.53q-.06,24.8,0,49.58c0,1.48-.53,1.64-1.79,1.62h-19.91c-7.58,0-12.62,5.41-11.87,12.93.843696,9.251227,2.486492,18.412077,4.91,27.38c6.6,23.67,20,41.4,43.61,50.29.618005.177953,1.055484.727811,1.09,1.37.611948,3.102248,2.232788,5.914985,4.61,8c3.38976,3.050992,7.392515,5.342177,11.74,6.72c13.25,4.57,26.75,5,40.39,2.23c6.72-1.36,13.14-3.63,18.54-8.1c3-2.47,5.22-5.47,5.62-9.47.12-1.18.83-1.46,1.68-1.81c6.195434-2.549931,11.991541-5.978425,17.21-10.18c2.14-1.73,2.33-2.51,1.21-5-1.66-1.22-3.16-1-4.74.29-10.71,8.73-23.26,13.11-36.72,15.2-4.859717.85066-9.786548,1.258997-14.72,1.22-19.42.61-38.32-1.38-55.42-11.67-13.63-8.19-21.91-20.56-26.94-35.35-1.330614-4.02609-2.438952-8.122267-3.32-12.27-.21-1-.24-1.39,1-1.39c10.4.07,20.79.08,31.19.1v0h.94c.32,0,.64,0,1,0h125.67c.46,0,.83,0,1.11,0c1.13.08,1,.46.6,2.27-2.91,12-7.57,23.17-15.39,32.86-1.047274,1.239049-1.09301,3.039373-.11,4.33v0c2.56,1.2,3.29,1,5.1-1.25c3.539947-4.483724,6.55929-9.35493,9-14.52c6.3-13.19,9.25-27.26,10.58-41.7.74-7.27-4.37-12.49-11.69-12.51ZM134.27,182c-.978862,1.94157-2.482418,3.569844-4.34,4.7-5.26,3.62-11.23,5.35-17.43,6.33-12,1.9-23.86,1.36-35.34-2.95-4-1.5-7.69-3.47-10.55-7.36c22.8,5.11,45.19,5.28,67.66-.72ZM121,59.34c15.561669.062176,28.860873,11.224758,31.62,26.54.68,3.53.68,3.53-2.92,3.53-3,0-3,0-3.66-3-2.44533-11.986945-13.010015-20.58259-25.243762-20.538846s-22.736692,8.714721-25.096238,20.718846c-.54,2.8-.54,2.8-3.42,2.8-3.8,0-3.8,0-3.06-3.73C92.076355,70.368615,105.444184,59.297462,121,59.34Zm-.65,19.54c-5.365155.169067-10.019001,3.755147-11.55,8.9-.39,1.33-.91,1.78-2.25,1.66-1.3615-.099992-2.7285-.099992-4.09,0-1,0-1.32-.2-1.15-1.3c1.682344-9.493264,9.93382-16.411027,19.575-16.411027s17.892656,6.917763,19.575,16.411027c.18,1,0,1.44-1.08,1.34-.77-.07-1.56,0-2.34,0-.259616-.01999-.520384-.01999-.78,0-2,.39-2.93-.38-3.62-2.46-1.71-5.19-6.71-8.28-12.29-8.14Zm6.88,10.43h-12.72c.175932-1.130473.827512-2.131503,1.79-2.75c3.76-3.24,8.68-2.18,10.82,2.34.04.15.07.28.11.41ZM98.47,59.15c.087224,1.094658-.430607,2.149499-1.35,2.75-2.438436,1.900028-4.619987,4.10847-6.49,6.57v-45.47c0-1.2.21-1.75,1.57-1.66c2,.14,4.64-.67,5.86.33s.38,3.78.39,5.77c.01,10.56-.03,21.12.02,31.71Zm64-33c.033416,2.571563-2.018593,4.686161-4.59,4.73h-51.79c-1.46,0-1.91-.35-1.81-1.82.104992-2.078675.104992-4.161325,0-6.24c0-1,.18-1.49,1.37-1.49c17.35,0,34.7,0,52.06.06c1.200285-.071025,2.379567.338052,3.278033,1.137106s1.442401,1.922523,1.511967,3.122894c.008132.153226.008132.306774,0,.46l-.03.04ZM42.59,30.86v0c-1.3-.07-2.6,0-3.9,0h-3.69c-2.593476.001267-4.718954-2.05779-4.8-4.65-.026807-1.241294.440733-2.442369,1.29971-3.338855s2.038984-1.414905,3.28029-1.441145v0c2.6-.1,5.19,0,7.79,0c1,0,1.19.4,1.17,1.27v7c.07.85-.2,1.21-1.15,1.16ZM34.67,15.35c-1.228089-.031417-2.393348-.549615-3.239225-1.440505s-1.303017-2.081427-1.270775-3.309495c.004963-.046535.004963-.093465,0-.14.102829-2.587279,2.250988-4.620041,4.84-4.58h16.92c.52,0,1-.07,1.55-.07h103.42c3.58,0,5.72,1.91,5.62,5-.037207,2.159926-1.572382,4.002967-3.69,4.43-.769071.134788-1.549352.195067-2.33.18h-102.83c-.58,0-1.15-.09-1.73-.14-5.73.32-11.5.25-17.26.07Zm50.1,12.53v49.78c0,3.79-1.78,7.31-1.87,11.11c0,.49-.33.63-.78.63h-4.29c-1.43,0-.83-1.12-.83-1.74v-64.4c0-1.43.23-2.12,1.87-2c1.621472.109926,3.248528.109926,4.87,0c.85,0,1.13.28,1.11,1.12-.11,1.86-.08,3.68-.08,5.5ZM71.12,55.46v32c0,1.68-.47,2.13-2.06,2-1.360236-.12997-2.729764-.12997-4.09,0-1.35.12-1.75-.3-1.74-1.7.07-7.28,0-14.57,0-21.85v-1.56c.001289-1.611101-1.270188-2.935556-2.88-3h-.05c-.769128,0-1.506754.305535-2.05061.84939s-.84939,1.281482-.84939,2.05061v.1c-.06,2.4,0,4.81,0,7.22v16c0,1.36-.18,2-1.76,1.86-1.93-.18-4.53.64-5.65-.34-1.28-1.13-.4-3.79-.4-5.78q0-30-.06-59.92c0-1.74.43-2.31,2.14-2.1s4.33-.8,5.39.42c.91,1.05.31,3.46.31,5.27v24.6c-.173481,1.248094.343278,2.492144,1.35,3.25.881963.639954,2.0586.698786,3,.15c1.10075-.631911,1.718467-1.859476,1.57-3.12v-26.54c0-.92.06-1.83,0-2.74s.35-1.37,1.34-1.29c2.11.18,4.88-.88,6.15.43c1,1.06.33,3.82.33,5.83q.02,13.95.01,27.91Zm112.77,46.6c-.36,3.36-1,6.69-1.31,10.06-.15,1.62-.82,1.9-2.32,1.9q-40.12-.08-80.23,0h-80.24c-1.76,0-2.32-.54-2.48-2.16-.33-3.3-.85-6.59-1.19-9.88-.45-4.22,1.82-6.71,6-6.71h155.63c4.36-.01,6.61,2.44,6.14,6.79Z" transform="translate(-10.18 0)" fill="#030202"/><path id="ramen-s-path3" d="M179.91,119.87c1.13.08,1,.46.6,2.27-2.91,12-7.57,23.17-15.39,32.86-1.047274,1.239049-1.09301,3.039373-.11,4.33v0v0c-.98301-1.290627-.937274-3.090951.11-4.33c7.82-9.69,12.48-20.87,15.39-32.86.49-1.84.58-2.2-.6-2.27Zm-128.69,0v0c.27,4.31,1.74,8.34,2.94,12.43c1.358917,4.335544,2.999062,8.577875,4.91,12.7-1.909335-4.105696-3.549467-8.331291-4.91-12.65-1.16-4.09-2.67-8.12-2.94-12.43v-.05Z" transform="translate(-10.18 0)" fill="#fd9a86"/><path id="ramen-s-path4" d="M180.51,122.14c-2.91,12-7.57,23.17-15.39,32.86-1.047274,1.239049-1.09301,3.039373-.11,4.33v0c-1.103186,1.692769-2.502175,3.173056-4.13,4.37-1.66-1.22-3.16-1-4.74.29-10.72,8.73-23.26,13.11-36.72,15.2-4.859717.85066-9.786548,1.258997-14.72,1.22-.267924-.157339-.548975-.291173-.84-.4-9.66-2.5-18.69-6.36-26.59-12.56-2.63-2-5.28-4-7-6.9L59.07,145c-1.909335-4.105696-3.549467-8.331291-4.91-12.65-1.2-4.09-2.67-8.12-2.94-12.43.31,0,.62,0,.94,0s.64,0,1,0h125.64c.46,0,.83,0,1.11,0c1.09.08,1.03.41.6,2.22Z" transform="translate(-10.18 0)" fill="#fd9a86"/><path id="ramen-s-path5" d="M100,114h-80.23c-1.76,0-2.32-.54-2.48-2.17-.33-3.3-.85-6.57-1.19-9.87-.45-4.22,1.82-6.7,6-6.71h155.65c4.35,0,6.61,2.45,6.14,6.8-.36,3.36-1,6.69-1.31,10-.15,1.63-.82,1.91-2.32,1.91q-40.12-.08-80.24,0L100,114Z" transform="translate(-10.18 0)" fill="#f2c32f"/><path id="ramen-s-path6" d="M104.74,180.43c-19.42.61-38.32-1.38-55.42-11.67-13.63-8.19-21.91-20.56-26.94-35.35-1.351475-4.001012-2.479877-8.073941-3.38-12.2-.21-1-.24-1.39,1-1.39c10.4.07,20.79.08,31.19.1v0c.27,4.31,1.74,8.34,2.94,12.43c1.370299,4.319439,3.020458,8.545048,4.94,12.65l11.24,15.57c1.72,2.9,4.37,4.88,7,6.9c7.9,6.2,16.93,10.06,26.59,12.56.291025.108827.572076.242661.84.4Z" transform="translate(-10.18 0)" fill="#fd876f"/><path id="ramen-s-path7" d="M71.12,55.46v32c0,1.68-.48,2.13-2.06,2-1.360236-.12997-2.729764-.12997-4.09,0-1.35.12-1.75-.3-1.74-1.69.07-7.29,0-14.58,0-21.86v-1.56c.018789-.777147-.272028-1.529906-.808429-2.092564s-1.274413-.889091-2.051571-.907436h-.07c-.769128,0-1.506754.305535-2.05061.84939s-.84939,1.281482-.84939,2.05061v.1c-.06,2.4,0,4.81,0,7.22v16c0,1.37-.18,2-1.76,1.87-1.93-.18-4.53.63-5.65-.35-1.28-1.12-.4-3.78-.4-5.77q0-30-.06-59.92c0-1.74.44-2.31,2.14-2.1s4.33-.8,5.39.42c.91,1.05.3,3.46.31,5.27v24.6c-.173481,1.248094.343278,2.492144,1.35,3.25.881963.639954,2.0586.698786,3,.15c1.10075-.631911,1.718467-1.859476,1.57-3.12v-26.54c0-.92.06-1.83,0-2.74s.35-1.37,1.34-1.29c2.11.18,4.87-.89,6.15.43c1,1.06.33,3.82.33,5.83q.03,13.94.01,27.9Z" transform="translate(-10.18 0)" fill="#eee8c4"/><path id="ramen-s-path8" d="M52,5.93c.52,0,1-.07,1.55-.07h103.45c3.59,0,5.73,1.91,5.63,5-.039094,2.160619-1.57997,4.001342-3.7,4.42-.764673.143456-1.542175.207131-2.32.19h-102.87c-.57,0-1.15-.09-1.73-.14-.34-1-.94-1.92-1.22-3C50.11,9.94,51.2,8,52,5.93Z" transform="translate(-10.18 0)" fill="#fd9a86"/><path id="ramen-s-path9" d="M149.69,89.41c-3,0-3,0-3.66-3-2.44533-11.986945-13.010015-20.58259-25.243762-20.538846s-22.736692,8.714721-25.096238,20.718846c-.54,2.8-.54,2.8-3.42,2.8-3.8,0-3.8,0-3.06-3.73c2.836501-15.310706,16.216476-26.402112,31.787629-26.350536s28.877358,11.231376,31.612371,26.560536c.68,3.54.68,3.54-2.92,3.54Z" transform="translate(-10.18 0)" fill="#fd9a86"/><path id="ramen-s-path10" d="M131.83,30.84h-25.74c-1.46,0-1.91-.35-1.81-1.82.104992-2.078675.104992-4.161325,0-6.24c0-1,.18-1.49,1.37-1.49q26,0,52.06.06c1.200285-.071025,2.379567.338052,3.278033,1.137106s1.442401,1.922523,1.511967,3.122894c.009997.169853.009997.340147,0,.51.005316,1.235912-.480556,2.423315-1.350728,3.300988s-2.05336,1.373719-3.289272,1.379012h-.3c-8.56.06-17.15.04-25.73.04Z" transform="translate(-10.18 0)" fill="#fd876f"/><path id="ramen-s-path11" d="M77,55.26v-32c0-1.43.23-2.12,1.86-2c1.62513.099995,3.25487.099995,4.88,0c.85,0,1.13.28,1.11,1.12c0,1.82,0,3.64,0,5.46v49.78c0,3.79-1.78,7.31-1.87,11.1c0,.5-.33.64-.78.64h-4.29c-1.43,0-.91-1.08-.91-1.7v-32.4Z" transform="translate(-10.18 0)" fill="#eee8c4"/><path id="ramen-s-path12" d="M134.27,182c-.978862,1.94157-2.482418,3.569844-4.34,4.7-5.26,3.62-11.23,5.35-17.43,6.33-12,1.9-23.86,1.36-35.34-2.95-4-1.49-7.68-3.48-10.54-7.36c22.79,5.11,45.18,5.28,67.65-.72Z" transform="translate(-10.18 0)" fill="#fd876f"/><path id="ramen-s-path13" d="M90.63,68.47v-45.47c0-1.2.21-1.75,1.57-1.66c2,.15,4.64-.67,5.86.33s.38,3.78.39,5.77v31.78c.098633,1.104999-.420596,2.174228-1.35,2.78-2.426366,1.868959-4.601041,4.043634-6.47,6.47Z" transform="translate(-10.18 0)" fill="#eee8c4"/><path id="ramen-s-path14" d="M137,89.43c-.259616-.01999-.520384-.01999-.78,0-2,.38-2.93-.38-3.62-2.47-1.7-5.13-6.71-8.22-12.29-8.08-5.365155.169067-10.019001,3.755147-11.55,8.9-.4,1.33-.91,1.78-2.25,1.66-1.3615-.099992-2.7285-.099992-4.09,0-1,0-1.32-.2-1.15-1.3c1.682344-9.493264,9.93382-16.411027,19.575-16.411027s17.892656,6.917763,19.575,16.411027c.18,1,0,1.43-1.08,1.33-.778313-.063939-1.559956-.077301-2.34-.04Z" transform="translate(-10.18 0)" fill="#fd9a86"/><path id="ramen-s-path15" d="M116.3,86.58c3.76-3.24,8.67-2.18,10.82,2.34l-.18.41h-8.94l-1.7-2.75Z" transform="translate(-10.18 0)" fill="#fd9a86"/><path id="ramen-s-path16" d="M116.3,86.58l1.7,2.74h-3.5c.180975-1.128555.836088-2.125783,1.8-2.74Z" transform="translate(-10.18 0)" fill="#fd9a86"/><path id="ramen-s-path17" d="M126.94,89.33l.18-.41c.017968.134562.055007.26588.11.39l-.29.02Z" transform="translate(-10.18 0)" fill="#fd9a86"/><path id="ramen-s-path18" d="M112.89,143.84c0,8-6.09,14.09-13.6,13.58-8.08-.55-14-10.88-10.43-18.17c1.44-2.93,4.07-4.06,7.09-4.5c1.48-.21,3-.25,4.48-.36c1.42.11,2.85.18,4.28.34c5.29.58,8.15,3.81,8.18,9.11Z" transform="matrix(.5 0 0 0.5 40.042501 72.959935)" fill="#030202"/><path id="ramen-s-path19" d="M73.35,142.13c-2.227914.989108-4.801276.80931-6.87-.48-1.54-2.39-1-4.87-.61-7.31.22-1.36,2-2.13,4.08-2.24s4,.51,4.33,1.72c.63,2.77,1.6,5.64-.93,8.31Z" transform="matrix(.5 0 0 0.5 24.932441 68.713289)" fill="#030202"/><path id="ramen-s-path20" d="M134.05,141.65c-1.895269,1.289344-4.333614,1.47222-6.4.48-2.33-2.67-1.43-5.54-.84-8.32.26-1.21,2.16-1.81,4-1.71s3.58.88,3.79,2.24c.4,2.44.87,4.92-.55,7.31Z" transform="matrix(.5 0 0 0.5 55.105875 68.71329)" fill="#030202"/><path id="ramen-s-path21" d="M9.82,44.819477v14.489929" transform="translate(40.312096 3.257963)" fill="none" stroke="#000" stroke-width="6" stroke-linecap="round"/><path id="ramen-s-path22" d="M8.82,36.7v14.88" transform="translate(41.312096 0.679477)" fill="none" stroke="#000" stroke-width="6" stroke-linecap="round"/><path id="ramen-s-path23" d="M-40.138866,10.46h27.377395" transform="translate(64.893567 0.206335)" fill="none" stroke="#fd9a86" stroke-width="9.5" stroke-linecap="round"/>
<script><![CDATA[
!function(t,n){"object"==typeof exports&&"undefined"!=typeof module?module.exports=n():"function"==typeof __SVGATOR_DEFINE__&&__SVGATOR_DEFINE__.amd?__SVGATOR_DEFINE__(n):((t="undefined"!=typeof globalThis?globalThis:t||self).__SVGATOR_PLAYER__=t.__SVGATOR_PLAYER__||{},t.__SVGATOR_PLAYER__["5c7f360c"]=n())}(this,(function(){"use strict";function t(t,n){var e=Object.keys(t);if(Object.getOwnPropertySymbols){var r=Object.getOwnPropertySymbols(t);n&&(r=r.filter((function(n){return Object.getOwnPropertyDescriptor(t,n).enumerable}))),e.push.apply(e,r)}return e}function n(n){for(var e=1;e<arguments.length;e++){var r=null!=arguments[e]?arguments[e]:{};e%2?t(Object(r),!0).forEach((function(t){u(n,t,r[t])})):Object.getOwnPropertyDescriptors?Object.defineProperties(n,Object.getOwnPropertyDescriptors(r)):t(Object(r)).forEach((function(t){Object.defineProperty(n,t,Object.getOwnPropertyDescriptor(r,t))}))}return n}function e(t){return(e="function"==typeof Symbol&&"symbol"==typeof Symbol.iterator?function(t){return typeof t}:function(t){return t&&"function"==typeof Symbol&&t.constructor===Symbol&&t!==Symbol.prototype?"symbol":typeof t})(t)}function r(t,n){if(!(t instanceof n))throw new TypeError("Cannot call a class as a function")}function i(t,n){for(var e=0;e<n.length;e++){var r=n[e];r.enumerable=r.enumerable||!1,r.configurable=!0,"value"in r&&(r.writable=!0),Object.defineProperty(t,r.key,r)}}function o(t,n,e){return n&&i(t.prototype,n),e&&i(t,e),t}function u(t,n,e){return n in t?Object.defineProperty(t,n,{value:e,enumerable:!0,configurable:!0,writable:!0}):t[n]=e,t}function a(t){return(a=Object.setPrototypeOf?Object.getPrototypeOf:function(t){return t.__proto__||Object.getPrototypeOf(t)})(t)}function l(t,n){return(l=Object.setPrototypeOf||function(t,n){return t.__proto__=n,t})(t,n)}function s(){if("undefined"==typeof Reflect||!Reflect.construct)return!1;if(Reflect.construct.sham)return!1;if("function"==typeof Proxy)return!0;try{return Boolean.prototype.valueOf.call(Reflect.construct(Boolean,[],(function(){}))),!0}catch(t){return!1}}function f(t,n,e){return(f=s()?Reflect.construct:function(t,n,e){var r=[null];r.push.apply(r,n);var i=new(Function.bind.apply(t,r));return e&&l(i,e.prototype),i}).apply(null,arguments)}function c(t,n){if(n&&("object"==typeof n||"function"==typeof n))return n;if(void 0!==n)throw new TypeError("Derived constructors may only return object or undefined");return function(t){if(void 0===t)throw new ReferenceError("this hasn't been initialised - super() hasn't been called");return t}(t)}function h(t,n,e){return(h="undefined"!=typeof Reflect&&Reflect.get?Reflect.get:function(t,n,e){var r=function(t,n){for(;!Object.prototype.hasOwnProperty.call(t,n)&&null!==(t=a(t)););return t}(t,n);if(r){var i=Object.getOwnPropertyDescriptor(r,n);return i.get?i.get.call(e):i.value}})(t,n,e||t)}function v(t){return function(t){if(Array.isArray(t))return y(t)}(t)||function(t){if("undefined"!=typeof Symbol&&null!=t[Symbol.iterator]||null!=t["@@iterator"])return Array.from(t)}(t)||function(t,n){if(!t)return;if("string"==typeof t)return y(t,n);var e=Object.prototype.toString.call(t).slice(8,-1);"Object"===e&&t.constructor&&(e=t.constructor.name);if("Map"===e||"Set"===e)return Array.from(t);if("Arguments"===e||/^(?:Ui|I)nt(?:8|16|32)(?:Clamped)?Array$/.test(e))return y(t,n)}(t)||function(){throw new TypeError("Invalid attempt to spread non-iterable instance.\nIn order to be iterable, non-array objects must have a [Symbol.iterator]() method.")}()}function y(t,n){(null==n||n>t.length)&&(n=t.length);for(var e=0,r=new Array(n);e<n;e++)r[e]=t[e];return r}function g(t,n,e){if(Number.isInteger(t))return t;var r=Math.pow(10,n);return Math[e]((+t+Number.EPSILON)*r)/r}Number.isInteger||(Number.isInteger=function(t){return"number"==typeof t&&isFinite(t)&&Math.floor(t)===t}),Number.EPSILON||(Number.EPSILON=2220446049250313e-31);var d=p(Math.pow(10,-6));function p(t){var n=arguments.length>1&&void 0!==arguments[1]?arguments[1]:6;return g(t,n,"round")}function m(t,n){var e=arguments.length>2&&void 0!==arguments[2]?arguments[2]:d;return Math.abs(t-n)<e}p(Math.pow(10,-2)),p(Math.pow(10,-4));var b=Math.PI/180;function w(t){return t}function A(t,n,e){var r=1-e;return 3*e*r*(t*r+n*e)+e*e*e}function _(){var t=arguments.length>0&&void 0!==arguments[0]?arguments[0]:0,n=arguments.length>1&&void 0!==arguments[1]?arguments[1]:0,e=arguments.length>2&&void 0!==arguments[2]?arguments[2]:1,r=arguments.length>3&&void 0!==arguments[3]?arguments[3]:1;return t<0||t>1||e<0||e>1?null:m(t,n)&&m(e,r)?w:function(i){if(i<=0)return t>0?i*n/t:0===n&&e>0?i*r/e:0;if(i>=1)return e<1?1+(i-1)*(r-1)/(e-1):1===e&&t<1?1+(i-1)*(n-1)/(t-1):1;for(var o,u=0,a=1;u<a;){var l=A(t,e,o=(u+a)/2);if(m(i,l))break;l<i?u=o:a=o}return A(n,r,o)}}function x(){return 1}function k(t){return 1===t?1:0}function S(){var t=arguments.length>0&&void 0!==arguments[0]?arguments[0]:1,n=arguments.length>1&&void 0!==arguments[1]?arguments[1]:0;if(1===t){if(0===n)return k;if(1===n)return x}var e=1/t;return function(t){return t>=1?1:(t+=n*e)-t%e}}var O=Math.sin,j=Math.cos,M=Math.acos,E=Math.asin,P=Math.tan,I=Math.atan2,R=Math.PI/180,F=180/Math.PI,N=Math.sqrt,T=function(){function t(){var n=arguments.length>0&&void 0!==arguments[0]?arguments[0]:1,e=arguments.length>1&&void 0!==arguments[1]?arguments[1]:0,i=arguments.length>2&&void 0!==arguments[2]?arguments[2]:0,o=arguments.length>3&&void 0!==arguments[3]?arguments[3]:1,u=arguments.length>4&&void 0!==arguments[4]?arguments[4]:0,a=arguments.length>5&&void 0!==arguments[5]?arguments[5]:0;r(this,t),this.m=[n,e,i,o,u,a],this.i=null,this.w=null,this.s=null}return o(t,[{key:"determinant",get:function(){var t=this.m;return t[0]*t[3]-t[1]*t[2]}},{key:"isIdentity",get:function(){if(null===this.i){var t=this.m;this.i=1===t[0]&&0===t[1]&&0===t[2]&&1===t[3]&&0===t[4]&&0===t[5]}return this.i}},{key:"point",value:function(t,n){var e=this.m;return{x:e[0]*t+e[2]*n+e[4],y:e[1]*t+e[3]*n+e[5]}}},{key:"translateSelf",value:function(){var t=arguments.length>0&&void 0!==arguments[0]?arguments[0]:0,n=arguments.length>1&&void 0!==arguments[1]?arguments[1]:0;if(!t&&!n)return this;var e=this.m;return e[4]+=e[0]*t+e[2]*n,e[5]+=e[1]*t+e[3]*n,this.w=this.s=this.i=null,this}},{key:"rotateSelf",value:function(){var t=arguments.length>0&&void 0!==arguments[0]?arguments[0]:0;if(t%=360){var n=O(t*=R),e=j(t),r=this.m,i=r[0],o=r[1];r[0]=i*e+r[2]*n,r[1]=o*e+r[3]*n,r[2]=r[2]*e-i*n,r[3]=r[3]*e-o*n,this.w=this.s=this.i=null}return this}},{key:"scaleSelf",value:function(){var t=arguments.length>0&&void 0!==arguments[0]?arguments[0]:1,n=arguments.length>1&&void 0!==arguments[1]?arguments[1]:1;if(1!==t||1!==n){var e=this.m;e[0]*=t,e[1]*=t,e[2]*=n,e[3]*=n,this.w=this.s=this.i=null}return this}},{key:"skewSelf",value:function(t,n){if(n%=360,(t%=360)||n){var e=this.m,r=e[0],i=e[1],o=e[2],u=e[3];t&&(t=P(t*R),e[2]+=r*t,e[3]+=i*t),n&&(n=P(n*R),e[0]+=o*n,e[1]+=u*n),this.w=this.s=this.i=null}return this}},{key:"resetSelf",value:function(){var t=arguments.length>0&&void 0!==arguments[0]?arguments[0]:1,n=arguments.length>1&&void 0!==arguments[1]?arguments[1]:0,e=arguments.length>2&&void 0!==arguments[2]?arguments[2]:0,r=arguments.length>3&&void 0!==arguments[3]?arguments[3]:1,i=arguments.length>4&&void 0!==arguments[4]?arguments[4]:0,o=arguments.length>5&&void 0!==arguments[5]?arguments[5]:0,u=this.m;return u[0]=t,u[1]=n,u[2]=e,u[3]=r,u[4]=i,u[5]=o,this.w=this.s=this.i=null,this}},{key:"recomposeSelf",value:function(){var t=arguments.length>0&&void 0!==arguments[0]?arguments[0]:null,n=arguments.length>1&&void 0!==arguments[1]?arguments[1]:null,e=arguments.length>2&&void 0!==arguments[2]?arguments[2]:null,r=arguments.length>3&&void 0!==arguments[3]?arguments[3]:null,i=arguments.length>4&&void 0!==arguments[4]?arguments[4]:null;return this.isIdentity||this.resetSelf(),t&&(t.x||t.y)&&this.translateSelf(t.x,t.y),n&&this.rotateSelf(n),e&&(e.x&&this.skewSelf(e.x,0),e.y&&this.skewSelf(0,e.y)),!r||1===r.x&&1===r.y||this.scaleSelf(r.x,r.y),i&&(i.x||i.y)&&this.translateSelf(i.x,i.y),this}},{key:"decompose",value:function(){var t=arguments.length>0&&void 0!==arguments[0]?arguments[0]:0,n=arguments.length>1&&void 0!==arguments[1]?arguments[1]:0,e=this.m,r=e[0]*e[0]+e[1]*e[1],i=[[e[0],e[1]],[e[2],e[3]]],o=N(r);if(0===o)return{origin:{x:p(e[4]),y:p(e[5])},translate:{x:p(t),y:p(n)},scale:{x:0,y:0},skew:{x:0,y:0},rotate:0};i[0][0]/=o,i[0][1]/=o;var u=e[0]*e[3]-e[1]*e[2]<0;u&&(o=-o);var a=i[0][0]*i[1][0]+i[0][1]*i[1][1];i[1][0]-=i[0][0]*a,i[1][1]-=i[0][1]*a;var l=N(i[1][0]*i[1][0]+i[1][1]*i[1][1]);if(0===l)return{origin:{x:p(e[4]),y:p(e[5])},translate:{x:p(t),y:p(n)},scale:{x:p(o),y:0},skew:{x:0,y:0},rotate:0};i[1][0]/=l,i[1][1]/=l,a/=l;var s=0;return i[1][1]<0?(s=M(i[1][1])*F,i[0][1]<0&&(s=360-s)):s=E(i[0][1])*F,u&&(s=-s),a=I(a,N(i[0][0]*i[0][0]+i[0][1]*i[0][1]))*F,u&&(a=-a),{origin:{x:p(e[4]),y:p(e[5])},translate:{x:p(t),y:p(n)},scale:{x:p(o),y:p(l)},skew:{x:p(a),y:0},rotate:p(s)}}},{key:"clone",value:function(){var t=this.m;return new this.constructor(t[0],t[1],t[2],t[3],t[4],t[5])}},{key:"toString",value:function(){var t=arguments.length>0&&void 0!==arguments[0]?arguments[0]:" ";if(null===this.s){var n=this.m.map((function(t){return p(t)}));1===n[0]&&0===n[1]&&0===n[2]&&1===n[3]?this.s="translate("+n[4]+t+n[5]+")":this.s="matrix("+n.join(t)+")"}return this.s}}],[{key:"create",value:function(t){return t?Array.isArray(t)?f(this,v(t)):t instanceof this?t.clone():(new this).recomposeSelf(t.origin,t.rotate,t.skew,t.scale,t.translate):new this}}]),t}();function q(t,n,e){return t>=.5?e:n}function B(t,n,e){return 0===t||n===e?n:t*(e-n)+n}function D(t,n,e){var r=B(t,n,e);return r<=0?0:r}function L(t,n,e){var r=B(t,n,e);return r<=0?0:r>=1?1:r}function C(t,n,e){return 0===t?n:1===t?e:{x:B(t,n.x,e.x),y:B(t,n.y,e.y)}}function V(t,n,e){var r=function(t,n,e){return Math.round(B(t,n,e))}(t,n,e);return r<=0?0:r>=255?255:r}function G(t,n,e){return 0===t?n:1===t?e:{r:V(t,n.r,e.r),g:V(t,n.g,e.g),b:V(t,n.b,e.b),a:B(t,null==n.a?1:n.a,null==e.a?1:e.a)}}function z(t,n){for(var e=[],r=0;r<t;r++)e.push(n);return e}function Y(t,n){if(--n<=0)return t;var e=(t=Object.assign([],t)).length;do{for(var r=0;r<e;r++)t.push(t[r])}while(--n>0);return t}var $,U=function(){function t(n){r(this,t),this.list=n,this.length=n.length}return o(t,[{key:"setAttribute",value:function(t,n){for(var e=this.list,r=0;r<this.length;r++)e[r].setAttribute(t,n)}},{key:"removeAttribute",value:function(t){for(var n=this.list,e=0;e<this.length;e++)n[e].removeAttribute(t)}},{key:"style",value:function(t,n){for(var e=this.list,r=0;r<this.length;r++)e[r].style[t]=n}}]),t}(),Q=/-./g,H=function(t,n){return n.toUpperCase()};function J(t){return"function"==typeof t?t:q}function Z(t){return t?"function"==typeof t?t:Array.isArray(t)?function(t){var n=arguments.length>1&&void 0!==arguments[1]?arguments[1]:w;if(!Array.isArray(t))return n;switch(t.length){case 1:return S(t[0])||n;case 2:return S(t[0],t[1])||n;case 4:return _(t[0],t[1],t[2],t[3])||n}return n}(t,null):function(t,n){var e=arguments.length>2&&void 0!==arguments[2]?arguments[2]:w;switch(t){case"linear":return w;case"steps":return S(n.steps||1,n.jump||0)||e;case"bezier":case"cubic-bezier":return _(n.x1||0,n.y1||0,n.x2||0,n.y2||0)||e}return e}(t.type,t.value,null):null}function K(t,n,e){var r=arguments.length>3&&void 0!==arguments[3]&&arguments[3],i=n.length-1;if(t<=n[0].t)return r?[0,0,n[0].v]:n[0].v;if(t>=n[i].t)return r?[i,1,n[i].v]:n[i].v;var o,u=n[0],a=null;for(o=1;o<=i;o++){if(!(t>n[o].t)){a=n[o];break}u=n[o]}return null==a?r?[i,1,n[i].v]:n[i].v:u.t===a.t?r?[o,1,a.v]:a.v:(t=(t-u.t)/(a.t-u.t),u.e&&(t=u.e(t)),r?[o,t,e(t,u.v,a.v)]:e(t,u.v,a.v))}function W(t,n){var e=arguments.length>2&&void 0!==arguments[2]?arguments[2]:null;return t&&t.length?"function"!=typeof n?null:("function"!=typeof e&&(e=null),function(r){var i=K(r,t,n);return null!=i&&e&&(i=e(i)),i}):null}function X(t,n){return t.t-n.t}function tt(t,n,r,i,o){var u,a="@"===r[0],l="#"===r[0],s=$[r],f=q;switch(a?(u=r.substr(1),r=u.replace(Q,H)):l&&(r=r.substr(1)),e(s)){case"function":if(f=s(i,o,K,Z,r,a,n,t),l)return f;break;case"string":f=W(i,J(s));break;case"object":if((f=W(i,J(s.i),s.f))&&"function"==typeof s.u)return s.u(n,f,r,a,t)}return f?function(t,n,e){if(arguments.length>3&&void 0!==arguments[3]&&arguments[3])return t instanceof U?function(r){return t.style(n,e(r))}:function(r){return t.style[n]=e(r)};if(Array.isArray(n)){var r=n.length;return function(i){var o=e(i);if(null==o)for(var u=0;u<r;u++)t[u].removeAttribute(n);else for(var a=0;a<r;a++)t[a].setAttribute(n,o)}}return function(r){var i=e(r);null==i?t.removeAttribute(n):t.setAttribute(n,i)}}(n,r,f,a):null}function nt(t,n,r,i){if(!i||"object"!==e(i))return null;var o=null,u=null;return Array.isArray(i)?u=function(t){if(!t||!t.length)return null;for(var n=0;n<t.length;n++)t[n].e&&(t[n].e=Z(t[n].e));return t.sort(X)}(i):(u=i.keys,o=i.data||null),u?tt(t,n,r,u,o):null}function et(t,n,e){if(!e)return null;var r=[];for(var i in e)if(e.hasOwnProperty(i)){var o=nt(t,n,i,e[i]);o&&r.push(o)}return r.length?r:null}function rt(t,n){if(!n.settings.duration||n.settings.duration<0)return null;var e,r,i,o,u,a=function(t,n){if(!n)return null;var e=[];if(Array.isArray(n))for(var r=n.length,i=0;i<r;i++){var o=n[i];if(2===o.length){var u=null;if("string"==typeof o[0])u=t.getElementById(o[0]);else if(Array.isArray(o[0])){u=[];for(var a=0;a<o[0].length;a++)if("string"==typeof o[0][a]){var l=t.getElementById(o[0][a]);l&&u.push(l)}u=u.length?1===u.length?u[0]:new U(u):null}if(u){var s=et(t,u,o[1]);s&&(e=e.concat(s))}}}else for(var f in n)if(n.hasOwnProperty(f)){var c=t.getElementById(f);if(c){var h=et(t,c,n[f]);h&&(e=e.concat(h))}}return e.length?e:null}(t,n.elements);return a?(e=a,r=n.settings,i=r.duration,o=e.length,u=null,function(t,n){var a=r.iterations||1/0,l=(r.alternate&&a%2==0)^r.direction>0?i:0,s=t%i,f=1+(t-s)/i;n*=r.direction,r.alternate&&f%2==0&&(n=-n);var c=!1;if(f>a)s=l,c=!0,-1===r.fill&&(s=r.direction>0?0:i);else if(n<0&&(s=i-s),s===u)return!1;u=s;for(var h=0;h<o;h++)e[h](s);return c}):null}function it(t,n){for(var e=n.querySelectorAll("svg"),r=0;r<e.length;r++)if(e[r].id===t.root&&!e[r].svgatorAnimation)return e[r].svgatorAnimation=!0,e[r];return null}function ot(t){var n=function(t){return t.shadowRoot};return document?Array.from(t.querySelectorAll(":not("+["a","area","audio","br","canvas","circle","datalist","embed","g","head","hr","iframe","img","input","link","object","path","polygon","rect","script","source","style","svg","title","track","video"].join()+")")).filter(n).map(n):[]}function ut(t){var n=arguments.length>1&&void 0!==arguments[1]?arguments[1]:document,e=arguments.length>2&&void 0!==arguments[2]?arguments[2]:0,r=it(t,n);if(r)return r;if(e>=20)return null;for(var i=ot(n),o=0;o<i.length;o++){var u=ut(t,i[o],e+1);if(u)return u}return null}function at(t,n){if($=n,!t||!t.root||!Array.isArray(t.animations))return null;var e=ut(t);if(!e)return null;var r=t.animations.map((function(t){return rt(e,t)})).filter((function(t){return!!t}));return r.length?{svg:e,animations:r,animationSettings:t.animationSettings,options:t.options||void 0}:null}function lt(t){var n=arguments.length>1&&void 0!==arguments[1]?arguments[1]:null,e=arguments.length>2&&void 0!==arguments[2]?arguments[2]:Number,r=arguments.length>3&&void 0!==arguments[3]?arguments[3]:"undefined"!=typeof BigInt&&BigInt,i="0x"+(t.replace(/[^0-9a-fA-F]+/g,"")||27);return n&&r&&e.isSafeInteger&&!e.isSafeInteger(+i)?e(r(i))%n+n:+i}function st(t,n,e){return!t||!e||n>t.length?t:t.substring(0,n)+st(t.substring(n+1),e,e)}function ft(t){var n=arguments.length>1&&void 0!==arguments[1]?arguments[1]:27;return!t||t%n?t%n:[0,1].includes(n)?n:ft(t/n,n)}function ct(t,n,e){if(t&&t.length){var r=lt(e),i=ft(r)+5,o=st(t,ft(r,5),i);return o=o.replace(/\x7c$/g,"==").replace(/\x2f$/g,"="),o=function(t,n,e){var r=+("0x"+t.substring(0,4));t=t.substring(4);for(var i=lt(n,r)%r+e%27,o=[],u=0;u<t.length;u+=2)if("|"!==t[u]){var a=+("0x"+t[u]+t[u+1])-i;o.push(a)}else{var l=+("0x"+t.substring(u+1,u+1+4))-i;u+=3,o.push(l)}return String.fromCharCode.apply(String,o)}(o=(o=atob(o)).replace(/[\x41-\x5A]/g,""),n,r),o=JSON.parse(o)}}var ht=[{key:"alternate",def:!1},{key:"fill",def:1},{key:"iterations",def:0},{key:"direction",def:1},{key:"speed",def:1},{key:"fps",def:100}],vt=function(){function t(n,e){var i=this,o=arguments.length>2&&void 0!==arguments[2]?arguments[2]:null;r(this,t),this._id=0,this._running=!1,this._rollingBack=!1,this._animations=n,this._settings=e,(!o||o<"2022-05-02")&&delete this._settings.speed,ht.forEach((function(t){i._settings[t.key]=i._settings[t.key]||t.def})),this.duration=e.duration,this.offset=e.offset||0,this.rollbackStartOffset=0}return o(t,[{key:"alternate",get:function(){return this._settings.alternate}},{key:"fill",get:function(){return this._settings.fill}},{key:"iterations",get:function(){return this._settings.iterations}},{key:"direction",get:function(){return this._settings.direction}},{key:"speed",get:function(){return this._settings.speed}},{key:"fps",get:function(){return this._settings.fps}},{key:"maxFiniteDuration",get:function(){return this.iterations>0?this.iterations*this.duration:this.duration}},{key:"_apply",value:function(t){for(var n=arguments.length>1&&void 0!==arguments[1]?arguments[1]:{},e=this._animations,r=e.length,i=0,o=0;o<r;o++)n[o]?i++:(n[o]=e[o](t,1),n[o]&&i++);return i}},{key:"_rollback",value:function(t){var n=this,e=1/0,r=null;this.rollbackStartOffset=t,this._rollingBack=!0,this._running=!0;this._id=window.requestAnimationFrame((function i(o){if(n._rollingBack){null==r&&(r=o);var u=Math.round(t-(o-r)*n.speed);if(u>n.duration&&e!==1/0){var a=!!n.alternate&&u/n.duration%2>1,l=u%n.duration;u=(l+=a?n.duration:0)||n.duration}var s=(n.fps?1e3/n.fps:0)*n.speed,f=Math.max(0,u);f<=e-s&&(n.offset=f,e=f,n._apply(f));var c=n.iterations>0&&-1===n.fill&&u>=n.maxFiniteDuration;(u<=0||n.offset<u||c)&&n.stop(),n._id=window.requestAnimationFrame(i)}}))}},{key:"_start",value:function(){var t=this,n=arguments.length>0&&void 0!==arguments[0]?arguments[0]:0,e=-1/0,r=null,i={};this._running=!0;var o=function o(u){null==r&&(r=u);var a=Math.round((u-r)*t.speed+n),l=(t.fps?1e3/t.fps:0)*t.speed;if(a>=e+l&&!t._rollingBack&&(t.offset=a,e=a,t._apply(a,i)===t._animations.length))return void t.pause(!0);t._id=window.requestAnimationFrame(o)};this._id=window.requestAnimationFrame(o)}},{key:"_pause",value:function(){this._id&&window.cancelAnimationFrame(this._id),this._running=!1}},{key:"play",value:function(){if(!this._running)return this._rollingBack?this._rollback(this.offset):this._start(this.offset)}},{key:"stop",value:function(){this._pause(),this.offset=0,this.rollbackStartOffset=0,this._rollingBack=!1,this._apply(0)}},{key:"reachedToEnd",value:function(){return this.iterations>0&&this.offset>=this.iterations*this.duration}},{key:"restart",value:function(){var t=arguments.length>0&&void 0!==arguments[0]&&arguments[0];this.stop(t),this.play(t)}},{key:"pause",value:function(){this._pause()}},{key:"reverse",value:function(){this.direction=-this.direction}}],[{key:"build",value:function(t,n){delete t.animationSettings,t.options=ct(t.options,t.root,"5c7f360c"),t.animations.map((function(n){n.settings=ct(n.s,t.root,"5c7f360c"),delete n.s,t.animationSettings||(t.animationSettings=n.settings)}));var e=t.version;if(!(t=at(t,n)))return null;var r=t.options||{},i=new this(t.animations,t.animationSettings,e);return{el:t.svg,options:r,player:i}}},{key:"push",value:function(t){return this.build(t)}},{key:"init",value:function(){var t=this,n=window.__SVGATOR_PLAYER__&&window.__SVGATOR_PLAYER__["5c7f360c"];Array.isArray(n)&&n.splice(0).forEach((function(n){return t.build(n)}))}}]),t}();function yt(t){return p(t)+""}function gt(t){var n=arguments.length>1&&void 0!==arguments[1]?arguments[1]:" ";return t&&t.length?t.map(yt).join(n):""}function dt(t){if(!t)return"transparent";if(null==t.a||t.a>=1){var n=function(t){return 1===(t=parseInt(t).toString(16)).length?"0"+t:t},e=function(t){return t.charAt(0)===t.charAt(1)},r=n(t.r),i=n(t.g),o=n(t.b);return e(r)&&e(i)&&e(o)&&(r=r.charAt(0),i=i.charAt(0),o=o.charAt(0)),"#"+r+i+o}return"rgba("+t.r+","+t.g+","+t.b+","+t.a+")"}function pt(t){return t?"url(#"+t+")":"none"}!function(){for(var t=0,n=["ms","moz","webkit","o"],e=0;e<n.length&&!window.requestAnimationFrame;++e)window.requestAnimationFrame=window[n[e]+"RequestAnimationFrame"],window.cancelAnimationFrame=window[n[e]+"CancelAnimationFrame"]||window[n[e]+"CancelRequestAnimationFrame"];window.requestAnimationFrame||(window.requestAnimationFrame=function(n){var e=Date.now(),r=Math.max(0,16-(e-t)),i=window.setTimeout((function(){n(e+r)}),r);return t=e+r,i},window.cancelAnimationFrame=window.clearTimeout)}();var mt={f:null,i:function(t,n,e){return 0===t?n:1===t?e:{x:D(t,n.x,e.x),y:D(t,n.y,e.y)}},u:function(t,n){return function(e){var r=n(e);t.setAttribute("rx",yt(r.x)),t.setAttribute("ry",yt(r.y))}}},bt={f:null,i:function(t,n,e){return 0===t?n:1===t?e:{width:D(t,n.width,e.width),height:D(t,n.height,e.height)}},u:function(t,n){return function(e){var r=n(e);t.setAttribute("width",yt(r.width)),t.setAttribute("height",yt(r.height))}}};Object.freeze({M:2,L:2,Z:0,H:1,V:1,C:6,Q:4,T:2,S:4,A:7});var wt={},At=null;function _t(t){var n=function(){if(At)return At;if("object"!==("undefined"==typeof document?"undefined":e(document))||!document.createElementNS)return{};var t=document.createElementNS("http://www.w3.org/2000/svg","svg");return t&&t.style?(t.style.position="absolute",t.style.opacity="0.01",t.style.zIndex="-9999",t.style.left="-9999px",t.style.width="1px",t.style.height="1px",At={svg:t}):{}}().svg;if(!n)return function(t){return null};var r=document.createElementNS(n.namespaceURI,"path");r.setAttributeNS(null,"d",t),r.setAttributeNS(null,"fill","none"),r.setAttributeNS(null,"stroke","none"),n.appendChild(r);var i=r.getTotalLength();return function(t){var n=r.getPointAtLength(i*t);return{x:n.x,y:n.y}}}function xt(t){return wt[t]?wt[t]:wt[t]=_t(t)}function kt(t,n,e,r){if(!t||!r)return!1;var i=["M",t.x,t.y];if(n&&e&&(i.push("C"),i.push(n.x),i.push(n.y),i.push(e.x),i.push(e.y)),n?!e:e){var o=n||e;i.push("Q"),i.push(o.x),i.push(o.y)}return n||e||i.push("L"),i.push(r.x),i.push(r.y),i.join(" ")}function St(t,n,e,r){var i=arguments.length>4&&void 0!==arguments[4]?arguments[4]:1,o=kt(t,n,e,r),u=xt(o);try{return u(i)}catch(t){return null}}function Ot(t,n,e){return t+(n-t)*e}function jt(t,n,e){var r=arguments.length>3&&void 0!==arguments[3]&&arguments[3],i={x:Ot(t.x,n.x,e),y:Ot(t.y,n.y,e)};return r&&(i.a=Mt(t,n)),i}function Mt(t,n){return Math.atan2(n.y-t.y,n.x-t.x)}function Et(t,n,e,r){var i=1-r;return i*i*t+2*i*r*n+r*r*e}function Pt(t,n,e,r){return 2*(1-r)*(n-t)+2*r*(e-n)}function It(t,n,e,r){var i=arguments.length>4&&void 0!==arguments[4]&&arguments[4],o=St(t,n,null,e,r);return o||(o={x:Et(t.x,n.x,e.x,r),y:Et(t.y,n.y,e.y,r)}),i&&(o.a=Rt(t,n,e,r)),o}function Rt(t,n,e,r){return Math.atan2(Pt(t.y,n.y,e.y,r),Pt(t.x,n.x,e.x,r))}function Ft(t,n,e,r,i){var o=i*i;return i*o*(r-t+3*(n-e))+3*o*(t+e-2*n)+3*i*(n-t)+t}function Nt(t,n,e,r,i){var o=1-i;return 3*(o*o*(n-t)+2*o*i*(e-n)+i*i*(r-e))}function Tt(t,n,e,r,i){var o=arguments.length>5&&void 0!==arguments[5]&&arguments[5],u=St(t,n,e,r,i);return u||(u={x:Ft(t.x,n.x,e.x,r.x,i),y:Ft(t.y,n.y,e.y,r.y,i)}),o&&(u.a=qt(t,n,e,r,i)),u}function qt(t,n,e,r,i){return Math.atan2(Nt(t.y,n.y,e.y,r.y,i),Nt(t.x,n.x,e.x,r.x,i))}function Bt(t,n,e){var r=arguments.length>3&&void 0!==arguments[3]&&arguments[3];if(Lt(n)){if(Ct(e))return It(n,e.start,e,t,r)}else if(Lt(e)){if(Vt(n))return It(n,n.end,e,t,r)}else{if(Vt(n))return Ct(e)?Tt(n,n.end,e.start,e,t,r):It(n,n.end,e,t,r);if(Ct(e))return It(n,e.start,e,t,r)}return jt(n,e,t,r)}function Dt(t,n,e){var r=Bt(t,n,e,!0);return r.a=function(t){return arguments.length>1&&void 0!==arguments[1]&&arguments[1]?t+Math.PI:t}(r.a)/b,r}function Lt(t){return!t.type||"corner"===t.type}function Ct(t){return null!=t.start&&!Lt(t)}function Vt(t){return null!=t.end&&!Lt(t)}var Gt=new T;var zt={f:yt,i:B},Yt={f:yt,i:L};function $t(t,n,e){return t.map((function(t){return function(t,n,e){var r=t.v;if(!r||"g"!==r.t||r.s||!r.v||!r.r)return t;var i=e.getElementById(r.r),o=i&&i.querySelectorAll("stop")||[];return r.s=r.v.map((function(t,n){var e=o[n]&&o[n].getAttribute("offset");return{c:t,o:e=p(parseInt(e)/100)}})),delete r.v,t}(t,0,e)}))}var Ut={gt:"gradientTransform",c:{x:"cx",y:"cy"},rd:"r",f:{x:"x1",y:"y1"},to:{x:"x2",y:"y2"}};function Qt(t,n,r,i,o,u,a,l){return $t(t,0,l),n=function(t,n,e){for(var r,i,o,u=t.length-1,a={},l=0;l<=u;l++)(r=t[l]).e&&(r.e=n(r.e)),r.v&&"g"===(i=r.v).t&&i.r&&(o=e.getElementById(i.r))&&(a[i.r]={e:o,s:o.querySelectorAll("stop")});return a}(t,i,l),function(i){var o=r(i,t,Ht);if(!o)return"none";if("c"===o.t)return dt(o.v);if("g"===o.t){if(!n[o.r])return pt(o.r);var u=n[o.r];return function(t,n){for(var e=t.s,r=e.length;r<n.length;r++){var i=e[e.length-1].cloneNode();i.id=Kt(i.id),t.e.appendChild(i),e=t.s=t.e.querySelectorAll("stop")}for(var o=0,u=e.length,a=n.length-1;o<u;o++)e[o].setAttribute("stop-color",dt(n[Math.min(o,a)].c)),e[o].setAttribute("offset",n[Math.min(o,a)].o)}(u,o.s),Object.keys(Ut).forEach((function(t){if(void 0!==o[t])if("object"!==e(Ut[t])){var n,r="gt"===t?(n=o[t],Array.isArray(n)?"matrix("+n.join(" ")+")":""):o[t],i=Ut[t];u.e.setAttribute(i,r)}else Object.keys(Ut[t]).forEach((function(n){if(void 0!==o[t][n]){var e=o[t][n],r=Ut[t][n];u.e.setAttribute(r,e)}}))})),pt(o.r)}return"none"}}function Ht(t,e,r){if(0===t)return e;if(1===t)return r;if(e&&r){var i=e.t;if(i===r.t)switch(e.t){case"c":return{t:i,v:G(t,e.v,r.v)};case"g":if(e.r===r.r){var o={t:i,s:Jt(t,e.s,r.s),r:e.r};return e.gt&&r.gt&&(o.gt=function(t,n,e){var r=n.length;if(r!==e.length)return q(t,n,e);for(var i=new Array(r),o=0;o<r;o++)i[o]=B(t,n[o],e[o]);return i}(t,e.gt,r.gt)),e.c?(o.c=C(t,e.c,r.c),o.rd=D(t,e.rd,r.rd)):e.f&&(o.f=C(t,e.f,r.f),o.to=C(t,e.to,r.to)),o}}if("c"===e.t&&"g"===r.t||"c"===r.t&&"g"===e.t){var u="c"===e.t?e:r,a="g"===e.t?n({},e):n({},r),l=a.s.map((function(t){return{c:u.v,o:t.o}}));return a.s="c"===e.t?Jt(t,l,a.s):Jt(t,a.s,l),a}}return q(t,e,r)}function Jt(t,n,e){if(n.length===e.length)return n.map((function(n,r){return Zt(t,n,e[r])}));for(var r=Math.max(n.length,e.length),i=[],o=0;o<r;o++){var u=Zt(t,n[Math.min(o,n.length-1)],e[Math.min(o,e.length-1)]);i.push(u)}return i}function Zt(t,n,e){return{o:L(t,n.o,e.o||0),c:G(t,n.c,e.c||{})}}function Kt(t){return t.replace(/-fill-([0-9]+)$/,(function(t,n){return"-fill-"+(+n+1)}))}var Wt={fill:Qt,"fill-opacity":Yt,stroke:Qt,"stroke-opacity":Yt,"stroke-width":zt,"stroke-dashoffset":{f:yt,i:B},"stroke-dasharray":{f:function(t){var n=arguments.length>1&&void 0!==arguments[1]?arguments[1]:" ";return t&&t.length>0&&(t=t.map((function(t){return p(t,4)}))),gt(t,n)},i:function(t,n,e){var r,i,o,u=n.length,a=e.length;if(u!==a)if(0===u)n=z(u=a,0);else if(0===a)a=u,e=z(u,0);else{var l=(o=(r=u)*(i=a)/function(t,n){for(var e;n;)e=n,n=t%n,t=e;return t||1}(r,i))<0?-o:o;n=Y(n,Math.floor(l/u)),e=Y(e,Math.floor(l/a)),u=a=l}for(var s=[],f=0;f<u;f++)s.push(p(D(t,n[f],e[f])));return s}},opacity:Yt,transform:function(t,n,r,i){if(!(t=function(t,n){if(!t||"object"!==e(t))return null;var r=!1;for(var i in t)t.hasOwnProperty(i)&&(t[i]&&t[i].length?(t[i].forEach((function(t){t.e&&(t.e=n(t.e))})),r=!0):delete t[i]);return r?t:null}(t,i)))return null;var o=function(e,i,o){var u=arguments.length>3&&void 0!==arguments[3]?arguments[3]:null;return t[e]?r(i,t[e],o):n&&n[e]?n[e]:u};return n&&n.a&&t.o?function(n){var e=r(n,t.o,Dt);return Gt.recomposeSelf(e,o("r",n,B,0)+e.a,o("k",n,C),o("s",n,C),o("t",n,C)).toString()}:function(t){return Gt.recomposeSelf(o("o",t,Bt,null),o("r",t,B,0),o("k",t,C),o("s",t,C),o("t",t,C)).toString()}},r:zt,"#size":bt,"#radius":mt,_:function(t,n){if(Array.isArray(t))for(var e=0;e<t.length;e++)this[t[e]]=n;else this[t]=n}},Xt=function(t){!function(t,n){if("function"!=typeof n&&null!==n)throw new TypeError("Super expression must either be null or a function");t.prototype=Object.create(n&&n.prototype,{constructor:{value:t,writable:!0,configurable:!0}}),n&&l(t,n)}(u,t);var n,e,i=(n=u,e=s(),function(){var t,r=a(n);if(e){var i=a(this).constructor;t=Reflect.construct(r,arguments,i)}else t=r.apply(this,arguments);return c(this,t)});function u(){return r(this,u),i.apply(this,arguments)}return o(u,null,[{key:"build",value:function(t){var n=h(a(u),"build",this).call(this,t,Wt);if(!n)return null;n.el,n.options,function(t,n,e){t.play()}(n.player)}}]),u}(vt);return Xt.init(),Xt}));
(function(s,i,o,w,d,a,b){w[o]=w[o]||{};w[o][s]=w[o][s]||[];w[o][s].push(i);})('5c7f360c',{"root":"ramen","version":"2022-05-04","animations":[{"elements":{"ramen-s-path18":{"transform":{"data":{"o":{"x":90.265,"y":145.919869,"type":"corner"},"t":{"x":-100.444999,"y":-145.919868}},"keys":{"s":[{"t":0,"v":{"x":0.5,"y":0.5}},{"t":1600,"v":{"x":0.5,"y":0.5}},{"t":2200,"v":{"x":1,"y":1}},{"t":2400,"v":{"x":1,"y":1}},{"t":2900,"v":{"x":0.5,"y":0.5}}]}}},"ramen-s-path19":{"transform":{"data":{"o":{"x":60.044862,"y":137.426575,"type":"corner"},"t":{"x":-70.224843,"y":-137.426573}},"keys":{"s":[{"t":1300,"v":{"x":0.5,"y":0.5}},{"t":1500,"v":{"x":1,"y":1}},{"t":2300,"v":{"x":1,"y":1}},{"t":2900,"v":{"x":0.5,"y":0.5}}]}}},"ramen-s-path20":{"transform":{"data":{"o":{"x":120.391743,"y":137.426575,"type":"corner"},"t":{"x":-130.571737,"y":-137.426571}},"keys":{"s":[{"t":1300,"v":{"x":0.5,"y":0.5}},{"t":1500,"v":{"x":1,"y":1}},{"t":2300,"v":{"x":1,"y":1}},{"t":2900,"v":{"x":0.5,"y":0.5}}]}}},"ramen-s-path21":{"transform":{"data":{"t":{"x":-9.82,"y":-52.064433}},"keys":{"o":[{"t":500,"v":{"x":50.132096,"y":55.322396,"type":"corner"}},{"t":1200,"v":{"x":50.132096,"y":68.469991,"type":"corner"}}]}}},"ramen-s-path22":{"transform":{"data":{"t":{"x":-8.82,"y":-44.14}},"keys":{"o":[{"t":2300,"v":{"x":50.132096,"y":44.819477,"type":"corner"}},{"t":2900,"v":{"x":50.132096,"y":55.322404,"type":"corner"}}]}}}},"s":"MADA1ZGQ4N2ZjMWQyY2NZEYmVkMWM2Y2NjYjdOmOTc5MDhkOGQ4ZFg4SOTdmYzFDYzZjZmMyYBzBkMWM2Y2NjYjdmOTDc4ZTg5N2ZjNmQxYzJOjZmJlZDFjNmNjY2JkIMDdmTTk3OGQ4OTdmYUzNjNmM5Q2M5N2Y5NzNhlQTg5N2ZiZU9jOWQTxYzJjZmNiYmVkMWMyBN2Y5N2MzYmVjOWQwYLzI4OTdmSWQwY2RjMmYMyYzE3Zjk3OGU4OTdRmQWMzY2RkMDdmOTc4QZThkOGRkYQ|"}],"options":"MXDAxMDk1M2M4ZDhlN2TI4YzhlM2M1NDNjODYJ4OTdiN2UzY0Y5Nw|"},'__SVGATOR_PLAYER__',window,document)
]]></script>
</svg>
