<svg id="squid" xmlns="http://www.w3.org/2000/svg" xmlns:xlink="http://www.w3.org/1999/xlink" width="200px" viewBox="0 0 199.91 192.5" shape-rendering="geometricPrecision" text-rendering="geometricPrecision"><path id="squid-s-path1" d="M182.36,124.09c9.545849-1.177827,16.90142-8.983665,17.510681-18.582587s-5.700355-18.272115-15.020681-20.647413v0c-2.730775-.617163-5.53845-.822767-8.33-.61-1.53.07-2.36-.18-1.9-1.93.059794-.387134.089882-.778275.09-1.17.963092-11.051169-.59259-22.176854-4.55-32.54-.7-1.89-1.39-3.53.1-5.37.466279-.779277.762746-1.648232.87-2.55.85-3.39-.34-6.58-1.12-9.77-1.462061-6.416562-7.819264-10.458405-14.25-9.06-1.612555.40621-3.316641-.127041-4.41-1.38-17.43-16.2-38.09-22.83-61.54-19.74C68.07,3.6,50.89,14.49,38.22,32.43c-.29.42-.65,1.15-1,1.14-2.55-.08-5.22.85-7.64-.46-4.06-2.19-8-4.54-12.06-6.76-2.605677-1.53271-5.718219-1.953296-8.637239-1.167117s-5.399312,2.713083-6.882761,5.347117C-1.06,36,0.91,42.64,6.63,46c1.64,1,3.3,1.87,5.15,2.93-2.06,1.2-3.93,2.23-5.73,3.34-5.077884,3.207003-6.722389,9.848405-3.727657,15.054302s9.562617,7.123058,14.887657,4.345698c2.7-1.4,5.28-3,8.26-4.66-.349529,2.725561-.506584,5.472362-.47,8.22-.0099,2.673261.140369,5.344713.45,8c.1.9-.37.92-1,.91h-4.45c-9.064133.042019-16.976329,6.151333-19.31,14.91-.14.51,0,1.21-.69,1.5v7c.66.32.48,1,.62,1.53c1.451676,5.762765,5.390936,10.581488,10.75,13.15c2.286479,1.071043,4.737781,1.747264,7.25,2l-1.31,1.22c-5.332486,4.813596-7.673749,12.117314-6.133551,19.134001s6.725231,12.668346,13.583551,14.805999c5.8,1.84,11.27.84,16.53-1.94l.4-.17-.15.42c-1.65,4.45-2.2,9-.73,13.56c2.67,8.28,8.41,13.27,17,14.24c8.19.93,14.69-2.42,19.22-9.37.93-1.42,1.75-2.91,2.8-4.65c1.22,12.26,8,20,17.91,20.88c5.767497.693252,11.548326-1.182501,15.81-5.13c4.46-4.12,6.5-9.34,6.5-15.93c1.25,2.11,2.11,3.7,3.09,5.22c3.668743,5.721142,9.991807,9.187645,16.788194,9.203817s13.135877-3.4202,16.831806-9.123817c3.84-5.95,4.13-12.28,1.7-18.84-.05-.14-.18-.37-.14-.41.19-.15.3,0,.39.16.41.18.84.34,1.24.55c8.978131,4.829583,20.152083,2.133177,25.939525-6.259511s4.335955-19.795364-3.369525-26.470489c-.32-.27-.83-.4-.83-.93s.44-.28.67-.31ZM9.43,40.69c-.436844-.235449-.840391-.52802-1.2-.87-.176258-.167834-.340027-.348314-.49-.54-.217873-.284956-.408699-.589608-.57-.91-.062799-.103294-.11956-.21014-.17-.32-.138043-.321567-.241946-.656737-.31-1-.029625-.104635-.049708-.21174-.06-.32v-.28c0-.15,0-.29,0-.44-.001461-.875973.215042-1.738547.63-2.51.077165-.17522.170926-.34265.28-.5.1543-.236789.335507-.45491.54-.65.152771-.148053.312978-.288234.48-.42l.28-.21v0l.16-.1c.23701-.147551.484313-.277886.74-.39h.08v0c1.43293-.583297,3.052172-.491503,4.41.25v0C17.51,33.16,20.7,35,24.17,37c-.457347.448896-.881777.93014-1.27,1.44-1.78793,2.316117-2.749002,5.164128-2.73,8.09v.07c-1.68-.42-2.94-1.47-4.33-2.21-2.16-1.21-4.29-2.39-6.41-3.7ZM23.67,61c-3.07,1.81-6,3.5-8.89,5.14-2.445428,1.494506-5.634895.787699-7.22-1.6-.788643-1.174289-1.042986-2.627677-.7-4c.037634-.182222.084359-.362447.14-.54c0-.13.11-.26.17-.39.055455-.123996.118922-.24425.19-.36.050525-.099095.110825-.192894.18-.28.08-.12.18-.25.27-.36l.31-.35c.226378-.2238.474241-.42477.74-.6l.33-.21c2.5-1.64,5.15-3,7.77-4.48c1-.56,3.31.43,3.85,1.75.700218,1.592554,1.686529,3.043209,2.91,4.28.401199.435705.828663.846471,1.28,1.23L23.67,61Zm2.51-14c.001769-.184384.01849-.36832.05-.55.010198-.180954.030228-.36122.06-.54.05-.34.1-.68.17-1s.15-.77.25-1.15c.883071-2.542177,3.309742-4.220624,6-4.15c5.85-.13,11.71-.2,17.56-.36q6.36-.18,12.72-.48c1.74-.07,3.48-.16,5.22-.26L73,38.23l2.29-.15c1.47-.09,3-.2,4.42-.31s2.63-.19,3.94-.3l2.68-.22l1.15-.1l4-.35q2.94-.27,5.88-.57L109.6,35c2.47-.25,3.21-.94,3.66-3.46-.74-2.23-2.37-2.64-4.48-2.38C98.58,30.32,88.35,31.23,78.1,32c-3.37.24-6.75.37-10.12.55-7.62.61-15.25.82-23.24.92c3.152591-4.338413,6.849522-8.253799,11-11.65C70.38,9.85,87.17,4.75,106,6.08c.253333.033742.501747.097524.74.19c15,1.25,27.93,7.23,39.6,17.3-6,1-11.55,1.87-17.1,2.75-2.31.37-4.63.66-6.93,1.05-2.51.42-3,1-3.28,3.53.334128,1.134405,1.263201,1.994373,2.42,2.24.128167.030496.258593.050562.39.06.4404.036915.883655.020125,1.32-.05v0c2.78-.4,5.57-.81,8.35-1.25v0c2.79-.44,5.57-.88,8.35-1.35q8.36-1.39,16.69-3c.706861-.145184,1.430796-.188957,2.15-.13v0c2.92.24,5.07,2.24,5.76,5.46.27,1.28.55,2.55.8,3.82.74,3.74-1.11,6.85-4.85,7.59v0q-10.71,2.1-21.49,3.86c-12.57,2.07-25.21,3.69-37.88,5q-11.35,1.17-22.74,2c-15,1-30,1.5-45,1.6-.19654.009975-.39346.009975-.59,0-.392131-.021336-.78275-.064738-1.17-.13-2.454087-.272753-4.450838-2.09974-4.94-4.52-.352177-1.479757-.506855-2.999634-.46-4.52l.04-.58ZM17,118l-.61-.14c-.32-.08-.64-.17-.95-.27-.622107-.206843-1.230064-.454034-1.82-.74-.29-.14-.58-.3-.87-.47-.07913-.036864-.153092-.083931-.22-.14-.316135-.183554-.620099-.38731-.91-.61h.05c-4.639804-3.380073-6.777744-9.228388-5.411808-14.803951s5.965043-9.773393,11.641808-10.626049l.74-.09q.38,0,.75-.06c1.94-.08,3.9,0,5.84-.06h.35c.78,0,1.06.4,1.25,1.22c1.670004,7.757348,4.598737,15.188966,8.67,22c.44.72.33,1.07-.42,1.48-2,1.08-3.88,2.36-5.93,3.35v0c-.243827.125442-.502549.219523-.77.28v0c-.172831.04935-.350567.079532-.53.09-.481787.054671-.968213.054671-1.45,0-.210894-.009122-.421175-.029148-.63-.06-.38,0-.72-.08-1-.08h-.22c-1.45.07-2.81.09-4.1,0-1.155695.011427-2.310153-.078921-3.45-.27Zm19.48,35.26c-3.321332,1.640309-7.184689,1.785822-10.62.4-4.953042-1.666351-8.500861-6.039788-9.11-11.23-.82-5.73,1.15-10.52,6-13.68c5-3.25,10.31-6,15.46-9.09.84-.5,1.27-.25,1.74.44s1,1.21,1.43,1.86c.426856.761321,1.138741,1.321823,1.978962,1.558135s1.739911.129065,2.501038-.298135h.09c1.53-2.09,1.53-3-.07-5-11.84-15.21-16.64-32.41-14.6-51.55.19-1.84.3-2.81.77-3.33.080521-.087143.171164-.164357.27-.23.106329-.067101.220523-.120839.34-.16.983592-.223248,1.992083-.317374,3-.28c6.18-.08,12.36-.2,18.54-.3v0c9.23-.54,18.46-1,27.68-1.62c14.41-1,28.76-2.55,43.07-4.54c12.11-1.68,24.17-3.65,36.17-6c3.15-.61,3.14-.64,4.19,2.43c3.092117,9.048908,4.267031,18.642335,3.45,28.17c0,.63-.11,1.26-.18,1.88s-.12,1-.18,1.49-.14,1-.22,1.49c-.13.87-.29,1.75-.46,2.62l-.27,1.3c-.09.44-.19.87-.29,1.3s-.21.86-.32,1.29-.23.86-.35,1.28l-.36,1.28c-.16.53-.33,1.06-.49,1.59-1.208369,3.666482-2.706425,7.231053-4.48,10.66-.62,1.17-1.26,2.32-1.93,3.46l-.69,1.13-.71,1.12-.73,1.11q-1.31,1.92-2.73,3.76c-1,1.22-2,2.41-3,3.57-.26.3-.53.59-.8.88c0,0,0,0,0,0l-.44.45c-.58.64-1.2,1.26-1.82,1.87l-.19.19c-.4.39-.8.78-1.21,1.16l-.27.24c-.49.46-1,.89-1.49,1.33l-.87.74c-.089421.091387-.186436.17502-.29.25l-.27.22c-.32.27-.64.52-1,.77-.039297.047873-.08668.088487-.14.12l-.82.64c-.36.28-.72.54-1.08.8l-.34.25-.35.26c-.070019.069584-.151126.127035-.24.17-.76.55-1.55,1.06-2.34,1.58-.37.24-.73.48-1.11.71-.63.39-1.27.78-1.91,1.14s-1.26.72-1.9,1.06h-.07c-.63.34-1.28.67-1.92,1h-.07c-.63.32-1.27.62-1.91.91l-.38.17c-.56.26-1.13.5-1.7.74l-.26.11c-.53.22-1.07.44-1.61.64-.85.33-1.71.64-2.58.94-3.130339,1.060897-6.331618,1.899645-9.58,2.51-3.966798.758042-8.00235,1.096573-12.04,1.01h-.11c-8.690678.131475-17.321986-1.452064-25.4-4.66-7.29726-2.840296-14.059852-6.897851-20-12-1.89-1.61-2.78-1.64-4.86-.3v0c-1,2.33-.79,3,1.08,4.71c1.13,1,3.18,1.72,3.25,3.09s-1.54,2.63-2.06,4.08c-2.75,7.7-9.18,11.08-15.75,14.31l-.04.03Zm40.63,11.16v.05c-1.76,2.64-3.18,5.51-4.83,8.23-3.110695,5.523016-9.5149,8.303437-15.674015,6.804959s-10.570219-6.9102-10.795985-13.244959c-.18144-2.436099.361301-4.871475,1.56-7c3.79-6.66,7.66-13.28,11.45-19.94.52-.92,1-1,1.8-.45c5.615946,3.527355,11.6984,6.25049,18.07,8.09.81877.099099,1.403948.840623,1.31,1.66s0,.07,0,.1c-.06,1.63,0,3.26,0,5.66.77,3.27-.64,6.7-2.85,10.01l-.04.03Zm36.89,9.2c-.23,5.56-3.25,9.59-8.49,11.78-8.45,4-19.17-2.19-19.54-11.6-.31-7.91-.08-15.84-.14-23.77c0-1.11.4-1.29,1.39-1.1c4.232454.656419,8.499796,1.063786,12.78,1.22c4.283685-.160029,8.554326-.570731,12.79-1.23c1-.2,1.38,0,1.37,1.1-.05,7.87.18,15.74-.16,23.6Zm37.23.47v0c-5.12,7.66-17.25,7.73-22.62-.11-3.07-4.48-5.55-9.37-8.31-14.07-.241755-.461107-.349166-.980836-.31-1.5v-9.74c0-.73,0-1.37.93-1.65c2.41-.73,4.79-1.56,7.19-2.35c3.969021-1.741872,7.817549-3.746314,11.52-6c.68-.45,1-.21,1.36.39c4,7,8.25,13.82,11.88,21c2.43,4.73,1.73,9.67-1.64,14.03Zm32-32.15v0c-.41,9.19-11.1,15.33-19.77,11.21-3.68-1.75-7.11-4-10.67-6-.479435-.328001-.859866-.78106-1.1-1.31-1.88-3.26-3.71-6.54-5.65-9.77-.56-.94-.64-1.45.35-2.18c1.81-1.35,3.48-2.89,5.21-4.35c3.059094-3.001831,5.890265-6.227427,8.47-9.65.58-.81,1.06-.68,1.77-.26c5,3,10.21,5.69,15.11,8.84c4.67774,2.756405,7.162169,8.119428,6.24,13.47h.04ZM172,118.29c-2.81-.32-5-2.6-7.51-3.93-.66-.35-.17-.79,0-1.13c1.718884-2.976225,3.287519-6.036731,4.7-9.17l.6-1.59c1.212442-3.17381,2.237538-6.416053,3.07-9.71.13-.55.25-1.1.37-1.66.029913-.197979.080179-.392342.15-.58.041267-.117669.109802-.223899.2-.31.190506-.170592.44705-.247555.7-.21c3,.13,6-.33,8.92.43c4.198902.893924,7.709566,3.756809,9.43,7.69c4.26,8-.95,18.45-9.93,20-3.541193.556463-7.142917.613687-10.7.17Z" fill="#030202"/><path id="squid-s-path2" d="M144.42,127.92c.2-.15.4-.33.6-.5l.41-.36-1.01.86Zm-1.66,1.36c.21-.15.42-.32.62-.49l.48-.4c-.32.27-.64.52-1,.77-.027223.04472-.060923.085159-.1.12Zm-2.59,1.95c.23-.16.46-.34.69-.51l-.34.25-.35.26Zm1.53-1.13c.084667-.053511.164923-.113703.24-.18-.36.28-.72.54-1.08.8l.84-.62Zm-3.83,2.7c.7-.45,1.39-.92,2.06-1.4-.76.55-1.55,1.06-2.34,1.58l.28-.18Zm-3.3,2c-.62.37-1.26.72-1.9,1.06h-.07c-.63.34-1.28.67-1.92,1h-.07c-.63.32-1.27.62-1.91.91l-.38.17c-.56.26-1.13.5-1.7.74l-.26.11c-.53.22-1.07.44-1.61.64-.85.33-1.71.64-2.58.94-3.130339,1.060897-6.331618,1.899645-9.58,2.51-4.021798.807629-8.118397,1.183094-12.22,1.12h-.11l.09.05c4.099102.086139,8.195677-.265858,12.22-1.05c8.911149-1.652421,17.407498-5.050961,25-10-.37.24-.73.48-1.11.71-.61.37-1.25.76-1.89,1.12v-.03Zm19.92-17.35c.95-1.22,1.87-2.48,2.73-3.76q-1.3,1.95-2.73,3.79v-.03Zm4.86-7.12c.69-1.13,1.33-2.28,1.93-3.46-.62,1.2-1.28,2.35-1.93,3.49v-.03Zm1.93-3.46c1.789647-3.421405,3.288266-6.987314,4.48-10.66-1.206882,3.676724-2.704961,7.251381-4.48,10.69v-.03Z" fill="#ff743e"/><path id="squid-s-path3" d="M145.29,127.18l-.87.74c.2-.15.4-.33.6-.5l.41-.36c.46-.4.91-.8,1.35-1.21-.49.46-.99.89-1.49,1.33Zm-2.39,2c.16-.11.32-.24.48-.37s.51-.41.75-.62l-.27.22c-.32.25-.64.5-.96.75v.02Z" fill="#ff743e"/><path id="squid-s-path4" d="M168.88,80.72c0,.63-.11,1.26-.18,1.88s-.12,1-.18,1.49-.14,1-.22,1.49c-.13.87-.29,1.75-.46,2.62l-.27,1.3c-.09.44-.19.87-.29,1.3s-.21.86-.32,1.29-.23.86-.35,1.28l-.36,1.28c-.16.53-.33,1.06-.49,1.59-1.208369,3.666482-2.706425,7.231053-4.48,10.66-.62,1.17-1.26,2.32-1.93,3.46l-.69,1.13-.71,1.12-.73,1.11q-1.31,1.92-2.73,3.76c-1,1.22-2,2.41-3,3.57-.4.45-.81.9-1.24,1.34-.58.64-1.2,1.26-1.82,1.87-.46.46-.92.91-1.4,1.35l-.27.24c-.44.41-.89.81-1.35,1.21l-1,.86c-.089421.091387-.186436.17502-.29.25l-.27.22c-.32.27-.64.52-1,.77-.039297.047873-.08668.088487-.14.12l-.82.64c-.075077.066297-.155333.126489-.24.18-.39.3-.78.59-1.18.87l-.35.26-.24.17c-.67.48-1.36.95-2.06,1.4-.46.31-.92.6-1.39.89s-1.26.77-1.91,1.14-1.26.72-1.9,1.06h-.07c-.64.34-1.27.67-1.92,1h-.07c-.63.31-1.27.62-1.91.91l-.38.17c-.56.26-1.13.5-1.7.74l-.26.11-1.61.64c-.85.33-1.71.64-2.58.94-3.130339,1.060897-6.331618,1.899645-9.58,2.51-4.006515.794019-8.086153,1.15941-12.17,1.09h-.11c-.2-.11-.4-.21-.61-.3-8.349413-3.091191-16.035648-7.74026-22.65-13.7-14.413478-12.934723-23.019206-31.122792-23.88-50.47-.104944-3.31243-.014788-6.628166.27-9.93.2-2.44.51-4.86.91-7.27c9.23-.54,18.46-1,27.68-1.62c14.41-1,28.76-2.54,43.07-4.54c12.11-1.69,24.17-3.66,36.17-6c3.19-.57,3.19-.64,4.19,2.43c3.068037,9.037283,4.249059,18.607987,3.47,28.12Z" fill="#ff743e"/><path id="squid-s-path5" d="M119,30.9c.76,1.91,2.07,2.55,4.16,2.25q16.78-2.41,33.45-5.58c4-.76,7.06,1.37,7.91,5.34.27,1.27.55,2.53.8,3.81.74,3.74-1.11,6.85-4.85,7.59q-10.71,2.1-21.49,3.86c-12.57,2.07-25.21,3.69-37.88,5q-11.35,1.17-22.74,2c-15,1-30,1.5-45,1.6-3.62,0-6.09-1.59-6.77-4.67-.617799-2.740432-.552552-5.590708.19-8.3.883071-2.542177,3.309742-4.220624,6-4.15c5.86-.13,11.71-.19,17.57-.36c15.7-.48,31.42-1.46,47.08-3.06L109.6,35c2.47-.25,3.21-.94,3.66-3.46L119,30.9Z" fill="#838383"/><path id="squid-s-path6" d="M100.35,144.09c-8.727285.142306-17.39667-1.441361-25.51-4.66-7.29726-2.840296-14.059852-6.897851-20-12-1.89-1.61-2.78-1.64-4.86-.3-1.151694-1.503378-2.496622-2.848306-4-4v0c1.53-2.09,1.53-3-.07-5-11.84-15.21-16.64-32.41-14.6-51.55.19-1.84.3-2.81.79-3.33.080521-.087143.171164-.164357.27-.23.106329-.067101.220523-.120839.34-.16.983592-.223248,1.992083-.317374,3-.28c6.18-.08,12.36-.2,18.54-.3-.41,2.43-.72,4.87-.91,7.32-.284788,3.301834-.374944,6.61757-.27,9.93C53.943698,98.884689,62.567983,117.073893,77,130c6.611852,5.970458,14.298249,10.629806,22.65,13.73.21.09.41.19.61.3l.09.06Z" fill="#f4580d"/><path id="squid-s-path7" d="M119,30.9l-5.72.54c-.74-2.23-2.37-2.64-4.48-2.38C98.58,30.32,88.35,31.23,78.1,32c-3.37.24-6.75.37-10.12.55c3.016612-4.064252,6.504269-7.75667,10.39-11C84.611672,16.252974,91.678472,12.01357,99.29,9c2.45-1,5.14-1.3,7.41-2.74c15,1.26,27.92,7.23,39.58,17.3-6,1-11.54,1.87-17.09,2.75-2.31.37-4.63.66-6.93,1.05-2.51.43-2.98.98-3.26,3.54Z" fill="#ff743e"/><path id="squid-s-path8" d="M80,154.39c.76,3.26-.64,6.69-2.85,10-1.76,2.64-3.18,5.51-4.82,8.24-3.117089,5.507441-9.508217,8.28033-15.659593,6.794153s-10.571576-6.871087-10.830407-13.194153c-.173036-2.436702.372855-4.87061,1.57-7c3.79-6.66,7.66-13.28,11.45-19.94.52-.92.94-1,1.8-.45c5.6178,3.526332,11.699628,6.252553,18.07,8.1.809926.113763,1.376755.859121,1.27,1.67.004817.039855.004817.080145,0,.12v5.66Z" fill="#f4580d"/><path id="squid-s-path9" d="M46,123.14c1.507636,1.146826,2.853174,2.492364,4,4-1,2.37-.82,3,1.06,4.76c1.13,1,3.18,1.73,3.25,3.09s-1.54,2.63-2.06,4.08c-2.75,7.52-9.18,10.9-15.75,14.09-3.321332,1.640309-7.184689,1.785822-10.62.4-4.953508-1.66322-8.499599-6.039329-9.1-11.23-.82-5.73,1.14-10.52,6-13.68s10.31-6,15.46-9.09c.84-.5,1.27-.25,1.74.44s1,1.22,1.43,1.86c.413391.772129,1.116768,1.348255,1.955193,1.601471s1.743122.162749,2.514807-.251471l.12-.07Z" fill="#f4580d"/><path id="squid-s-path10" d="M24.43,118.33c-5.12.26-9.21-.07-12.77-2.73-4.842574-3.548076-6.919183-9.765677-5.180747-15.511737s6.913477-9.769717,12.910747-10.038263c1.94-.08,3.9,0,5.84-.06c1,0,1.34.32,1.54,1.24c1.668958,7.759213,4.601342,15.191523,8.68,22c.43.73.33,1.08-.42,1.49-2,1.08-3.89,2.36-5.92,3.35-1.76.83-3.72.16-4.68.26Z" fill="#f4580d"/><path id="squid-s-path11" d="M106.7,6.23C104.43,7.67,101.7,8,99.29,9c-7.60974,3.012776-14.676147,7.248566-20.92,12.54-3.879488,3.243696-7.360478,6.936164-10.37,11-7.62.61-15.25.82-23.24.92c3.155388-4.336091,6.852-8.251139,11-11.65C70.38,9.85,87.17,4.75,106,6.08c.237218.029744.471423.07993.7.15Z" fill="#f4580d"/><path id="squid-s-path12" d="M151.23,174.09c-5.12,7.66-17.25,7.73-22.62-.11-3.07-4.48-5.56-9.37-8.31-14.07-.241755-.461107-.349166-.980836-.31-1.5v-9.74c0-.74,0-1.37.92-1.65c2.42-.73,4.8-1.56,7.2-2.35.092042.374494.219274.739451.38,1.09c3.75,6.5,7.56,13,11.26,19.49c1.87753,3.438731,4.862456,6.141728,8.47,7.67.99.43,2.18.31,3.01,1.17Z" fill="#f4580d"/><path id="squid-s-path13" d="M105.52,185.4c-8.45,4-19.18-2.19-19.54-11.6-.31-7.91-.08-15.84-.13-23.76c0-1.12.39-1.3,1.38-1.11c4.229527.654791,8.493252,1.065471,12.77,1.23v22.78c.00817.709351.061612,1.417458.16,2.12.56,4.08,2.84,7.3,5.36,10.34Z" fill="#f4580d"/><path id="squid-s-path14" d="M183.19,141.94c-.41,9.18-11.1,15.33-19.77,11.21-3.68-1.75-7.11-4-10.66-6-.487411-.326146-.872309-.783862-1.11-1.32-1.88-3.25-3.71-6.53-5.65-9.75-.56-.94-.64-1.46.35-2.19c1.81-1.35,3.48-2.89,5.21-4.35.28,1,1.23,1.25,2,1.7c4.68,2.74,9.36,5.51,14.09,8.17c2.55604,1.520093,5.363717,2.570009,8.29,3.1c2.56.39,4.83-.51,7.25-.57Z" fill="#f4580d"/><path id="squid-s-path15" d="M151.23,174.09c-.83-.82-2-.74-3-1.17-3.607544-1.528272-6.59247-4.231269-8.47-7.67-3.7-6.52-7.51-13-11.26-19.49-.160726-.350549-.287958-.715506-.38-1.09c3.969021-1.741872,7.817549-3.746314,11.52-6c.68-.45,1-.22,1.36.39c4,7,8.24,13.83,11.89,21c2.41,4.73,1.71,9.67-1.66,14.03Z" fill="#ff743e"/><path id="squid-s-path16" d="M105.52,185.4c-2.57-3-4.8-6.26-5.35-10.34-.098388-.702542-.15183-1.410649-.16-2.12v-22.78c4.283542-.168353,8.553894-.582367,12.79-1.24c1-.2,1.38,0,1.37,1.1c0,7.87.18,15.75-.15,23.6-.24,5.61-3.26,9.61-8.5,11.78Z" fill="#ff743e"/><path id="squid-s-path17" d="M183.19,141.94c-2.42,0-4.69,1-7.26.55-2.926283-.529991-5.73396-1.579907-8.29-3.1-4.73-2.66-9.41-5.43-14.09-8.17-.76-.45-1.71-.7-2-1.7c3.061603-3.003023,5.892927-6.232136,8.47-9.66.58-.8,1-.67,1.77-.25c5,3,10.21,5.69,15.12,8.84c4.691884,2.755973,7.191543,8.125464,6.28,13.49Z" fill="#ff743e"/><path id="squid-s-path18" d="M192.64,98.12c4.25,8-1,18.47-10,20-3.5398.566307-7.141509.633628-10.7.2-2.81-.33-5-2.61-7.51-3.94-.66-.35-.17-.8,0-1.13c1.8-2.94,3.21-6.07,4.71-9.17c3.44,0,6.88-.12,10.32,0c4.048353.153659,8.020147-1.132479,11.21-3.63.950289-.471247,1.663324-1.314583,1.97-2.33Z" fill="#f4580d"/><path id="squid-s-path19" d="M192.64,98.12c-.282312,1.011754-.969802,1.862069-1.9,2.35-3.189853,2.497521-7.161647,3.783659-11.21,3.63-3.44-.16-6.88,0-10.32,0c1.662361-4.225176,2.999584-8.571149,4-13c.11-.55.17-1.14,1-1.1c3,.13,6-.33,8.92.43c4.229731.868946,7.775079,3.735794,9.51,7.69Z" fill="#ff743e"/><path id="squid-s-path20" d="M25,60.23c-3.56,2.06-6.86,4-10.19,5.88-2.447569,1.501079-5.644332.793635-7.23-1.6-1.545203-2.286703-.945442-5.392931,1.34-6.94.108744-.077171.222309-.147314.34-.21c2.48-1.64,5.14-3,7.76-4.48c1-.56,3.31.43,3.85,1.75.901384,2.174409,2.31892,4.096492,4.13,5.6Z" fill="#838383"/><path id="squid-s-path21" d="M24.22,36.92c-2.590875,2.517782-4.036569,5.987449-4,9.6-1.68-.42-2.94-1.47-4.34-2.21-2.18-1.16-4.33-2.31-6.45-3.62-2.601176-1.391335-3.585329-4.62562-2.2-7.23c1.381523-2.484259,4.51457-3.379415,7-2h.07c3.26,1.65,6.45,3.54,9.92,5.46Z" fill="#838383"/><path id="squid-s-path22" d="M41.29,157.46l.4-.17c-.028487.145418-.075539.286574-.14.42l-.26-.25Z" fill="#fdfdfd"/><path id="squid-s-path23" d="M158.45,157.72c0-.15-.17-.38-.12-.42.14769-.031667.299442.032229.38.16l-.26.26Z" fill="#fdfdfd"/><path id="squid-s-path24" d="M113.63,83.23c-.401545,4.456292-4.229412,7.813376-8.7,7.63-1.65.18-3.25-1.53-4.92-1.53s-3.29,1.57-5.28,1.56c-4.347461.000087-7.971219-3.328208-8.34-7.66-.266323-1.618088.815952-3.150198,2.43-3.44c1.78-.26,3.05.69,3.37,2.66C92.42,83.9,93,85,94.6,85s2.3-1,2.49-2.43c.23-1.71,1.12-2.77,2.92-2.78s2.69,1.09,2.92,2.78c.2,1.47.88,2.46,2.49,2.43s2.18-1.07,2.41-2.53c.048986-1.544241,1.335482-2.759265,2.88-2.72.16108.010125.321384.030163.48.06c1.609038.285197,2.693856,1.805721,2.44,3.42Z" fill="#030202"/><path id="squid-s-path25" d="M133.23,78.58c.148213,1.02971-.117898,2.076177-.74,2.91-.661428.84058-1.7452,1.229028-2.79,1-1.177575-.227758-2.087945-1.166078-2.28-2.35-.15-.69,0-1.44-.71-1.92-1.88-1.34-3.14-.88-3.64,1.32-.177918,1.761355-1.649813,3.10844-3.42,3.13-2.5-1.21-3.05-2.44-2.28-5.18.965038-3.445534,4.083685-5.844205,7.661484-5.892741s6.760367,2.264653,7.818516,5.682741c.15.42.25.86.38,1.3Z" fill="#030202"/><path id="squid-s-path26" d="M78.5,80.9c-.92,1.33-2.11,2.12-3.75,1.54s-2-1.87-2-3.4c-.013531-.381478-.046909-.761992-.1-1.14-.021822-.901957.021625-1.804312.13-2.7.027393-1.571723,1.318128-2.826728,2.89-2.81h.18c.71612-.013384,1.408214.258321,1.923966.755318s.812895,1.178558.826034,1.894682c.004989.083259.004989.166741,0,.25.05,1.87-.06,3.71-.1,5.61Z" transform="translate(0 0.000004)" fill="#030202"/>
<script><![CDATA[
!function(t,n){"object"==typeof exports&&"undefined"!=typeof module?module.exports=n():"function"==typeof __SVGATOR_DEFINE__&&__SVGATOR_DEFINE__.amd?__SVGATOR_DEFINE__(n):((t="undefined"!=typeof globalThis?globalThis:t||self).__SVGATOR_PLAYER__=t.__SVGATOR_PLAYER__||{},t.__SVGATOR_PLAYER__["5c7f360c"]=n())}(this,(function(){"use strict";function t(t,n){var e=Object.keys(t);if(Object.getOwnPropertySymbols){var r=Object.getOwnPropertySymbols(t);n&&(r=r.filter((function(n){return Object.getOwnPropertyDescriptor(t,n).enumerable}))),e.push.apply(e,r)}return e}function n(n){for(var e=1;e<arguments.length;e++){var r=null!=arguments[e]?arguments[e]:{};e%2?t(Object(r),!0).forEach((function(t){u(n,t,r[t])})):Object.getOwnPropertyDescriptors?Object.defineProperties(n,Object.getOwnPropertyDescriptors(r)):t(Object(r)).forEach((function(t){Object.defineProperty(n,t,Object.getOwnPropertyDescriptor(r,t))}))}return n}function e(t){return(e="function"==typeof Symbol&&"symbol"==typeof Symbol.iterator?function(t){return typeof t}:function(t){return t&&"function"==typeof Symbol&&t.constructor===Symbol&&t!==Symbol.prototype?"symbol":typeof t})(t)}function r(t,n){if(!(t instanceof n))throw new TypeError("Cannot call a class as a function")}function i(t,n){for(var e=0;e<n.length;e++){var r=n[e];r.enumerable=r.enumerable||!1,r.configurable=!0,"value"in r&&(r.writable=!0),Object.defineProperty(t,r.key,r)}}function o(t,n,e){return n&&i(t.prototype,n),e&&i(t,e),t}function u(t,n,e){return n in t?Object.defineProperty(t,n,{value:e,enumerable:!0,configurable:!0,writable:!0}):t[n]=e,t}function a(t){return(a=Object.setPrototypeOf?Object.getPrototypeOf:function(t){return t.__proto__||Object.getPrototypeOf(t)})(t)}function l(t,n){return(l=Object.setPrototypeOf||function(t,n){return t.__proto__=n,t})(t,n)}function s(){if("undefined"==typeof Reflect||!Reflect.construct)return!1;if(Reflect.construct.sham)return!1;if("function"==typeof Proxy)return!0;try{return Boolean.prototype.valueOf.call(Reflect.construct(Boolean,[],(function(){}))),!0}catch(t){return!1}}function f(t,n,e){return(f=s()?Reflect.construct:function(t,n,e){var r=[null];r.push.apply(r,n);var i=new(Function.bind.apply(t,r));return e&&l(i,e.prototype),i}).apply(null,arguments)}function c(t,n){if(n&&("object"==typeof n||"function"==typeof n))return n;if(void 0!==n)throw new TypeError("Derived constructors may only return object or undefined");return function(t){if(void 0===t)throw new ReferenceError("this hasn't been initialised - super() hasn't been called");return t}(t)}function h(t,n,e){return(h="undefined"!=typeof Reflect&&Reflect.get?Reflect.get:function(t,n,e){var r=function(t,n){for(;!Object.prototype.hasOwnProperty.call(t,n)&&null!==(t=a(t)););return t}(t,n);if(r){var i=Object.getOwnPropertyDescriptor(r,n);return i.get?i.get.call(e):i.value}})(t,n,e||t)}function v(t){return function(t){if(Array.isArray(t))return y(t)}(t)||function(t){if("undefined"!=typeof Symbol&&null!=t[Symbol.iterator]||null!=t["@@iterator"])return Array.from(t)}(t)||function(t,n){if(!t)return;if("string"==typeof t)return y(t,n);var e=Object.prototype.toString.call(t).slice(8,-1);"Object"===e&&t.constructor&&(e=t.constructor.name);if("Map"===e||"Set"===e)return Array.from(t);if("Arguments"===e||/^(?:Ui|I)nt(?:8|16|32)(?:Clamped)?Array$/.test(e))return y(t,n)}(t)||function(){throw new TypeError("Invalid attempt to spread non-iterable instance.\nIn order to be iterable, non-array objects must have a [Symbol.iterator]() method.")}()}function y(t,n){(null==n||n>t.length)&&(n=t.length);for(var e=0,r=new Array(n);e<n;e++)r[e]=t[e];return r}function g(t,n,e){if(Number.isInteger(t))return t;var r=Math.pow(10,n);return Math[e]((+t+Number.EPSILON)*r)/r}Number.isInteger||(Number.isInteger=function(t){return"number"==typeof t&&isFinite(t)&&Math.floor(t)===t}),Number.EPSILON||(Number.EPSILON=2220446049250313e-31);var d=p(Math.pow(10,-6));function p(t){var n=arguments.length>1&&void 0!==arguments[1]?arguments[1]:6;return g(t,n,"round")}function m(t,n){var e=arguments.length>2&&void 0!==arguments[2]?arguments[2]:d;return Math.abs(t-n)<e}p(Math.pow(10,-2)),p(Math.pow(10,-4));var b=Math.PI/180;function w(t){return t}function A(t,n,e){var r=1-e;return 3*e*r*(t*r+n*e)+e*e*e}function _(){var t=arguments.length>0&&void 0!==arguments[0]?arguments[0]:0,n=arguments.length>1&&void 0!==arguments[1]?arguments[1]:0,e=arguments.length>2&&void 0!==arguments[2]?arguments[2]:1,r=arguments.length>3&&void 0!==arguments[3]?arguments[3]:1;return t<0||t>1||e<0||e>1?null:m(t,n)&&m(e,r)?w:function(i){if(i<=0)return t>0?i*n/t:0===n&&e>0?i*r/e:0;if(i>=1)return e<1?1+(i-1)*(r-1)/(e-1):1===e&&t<1?1+(i-1)*(n-1)/(t-1):1;for(var o,u=0,a=1;u<a;){var l=A(t,e,o=(u+a)/2);if(m(i,l))break;l<i?u=o:a=o}return A(n,r,o)}}function x(){return 1}function k(t){return 1===t?1:0}function S(){var t=arguments.length>0&&void 0!==arguments[0]?arguments[0]:1,n=arguments.length>1&&void 0!==arguments[1]?arguments[1]:0;if(1===t){if(0===n)return k;if(1===n)return x}var e=1/t;return function(t){return t>=1?1:(t+=n*e)-t%e}}var O=Math.sin,j=Math.cos,M=Math.acos,E=Math.asin,P=Math.tan,I=Math.atan2,R=Math.PI/180,F=180/Math.PI,N=Math.sqrt,T=function(){function t(){var n=arguments.length>0&&void 0!==arguments[0]?arguments[0]:1,e=arguments.length>1&&void 0!==arguments[1]?arguments[1]:0,i=arguments.length>2&&void 0!==arguments[2]?arguments[2]:0,o=arguments.length>3&&void 0!==arguments[3]?arguments[3]:1,u=arguments.length>4&&void 0!==arguments[4]?arguments[4]:0,a=arguments.length>5&&void 0!==arguments[5]?arguments[5]:0;r(this,t),this.m=[n,e,i,o,u,a],this.i=null,this.w=null,this.s=null}return o(t,[{key:"determinant",get:function(){var t=this.m;return t[0]*t[3]-t[1]*t[2]}},{key:"isIdentity",get:function(){if(null===this.i){var t=this.m;this.i=1===t[0]&&0===t[1]&&0===t[2]&&1===t[3]&&0===t[4]&&0===t[5]}return this.i}},{key:"point",value:function(t,n){var e=this.m;return{x:e[0]*t+e[2]*n+e[4],y:e[1]*t+e[3]*n+e[5]}}},{key:"translateSelf",value:function(){var t=arguments.length>0&&void 0!==arguments[0]?arguments[0]:0,n=arguments.length>1&&void 0!==arguments[1]?arguments[1]:0;if(!t&&!n)return this;var e=this.m;return e[4]+=e[0]*t+e[2]*n,e[5]+=e[1]*t+e[3]*n,this.w=this.s=this.i=null,this}},{key:"rotateSelf",value:function(){var t=arguments.length>0&&void 0!==arguments[0]?arguments[0]:0;if(t%=360){var n=O(t*=R),e=j(t),r=this.m,i=r[0],o=r[1];r[0]=i*e+r[2]*n,r[1]=o*e+r[3]*n,r[2]=r[2]*e-i*n,r[3]=r[3]*e-o*n,this.w=this.s=this.i=null}return this}},{key:"scaleSelf",value:function(){var t=arguments.length>0&&void 0!==arguments[0]?arguments[0]:1,n=arguments.length>1&&void 0!==arguments[1]?arguments[1]:1;if(1!==t||1!==n){var e=this.m;e[0]*=t,e[1]*=t,e[2]*=n,e[3]*=n,this.w=this.s=this.i=null}return this}},{key:"skewSelf",value:function(t,n){if(n%=360,(t%=360)||n){var e=this.m,r=e[0],i=e[1],o=e[2],u=e[3];t&&(t=P(t*R),e[2]+=r*t,e[3]+=i*t),n&&(n=P(n*R),e[0]+=o*n,e[1]+=u*n),this.w=this.s=this.i=null}return this}},{key:"resetSelf",value:function(){var t=arguments.length>0&&void 0!==arguments[0]?arguments[0]:1,n=arguments.length>1&&void 0!==arguments[1]?arguments[1]:0,e=arguments.length>2&&void 0!==arguments[2]?arguments[2]:0,r=arguments.length>3&&void 0!==arguments[3]?arguments[3]:1,i=arguments.length>4&&void 0!==arguments[4]?arguments[4]:0,o=arguments.length>5&&void 0!==arguments[5]?arguments[5]:0,u=this.m;return u[0]=t,u[1]=n,u[2]=e,u[3]=r,u[4]=i,u[5]=o,this.w=this.s=this.i=null,this}},{key:"recomposeSelf",value:function(){var t=arguments.length>0&&void 0!==arguments[0]?arguments[0]:null,n=arguments.length>1&&void 0!==arguments[1]?arguments[1]:null,e=arguments.length>2&&void 0!==arguments[2]?arguments[2]:null,r=arguments.length>3&&void 0!==arguments[3]?arguments[3]:null,i=arguments.length>4&&void 0!==arguments[4]?arguments[4]:null;return this.isIdentity||this.resetSelf(),t&&(t.x||t.y)&&this.translateSelf(t.x,t.y),n&&this.rotateSelf(n),e&&(e.x&&this.skewSelf(e.x,0),e.y&&this.skewSelf(0,e.y)),!r||1===r.x&&1===r.y||this.scaleSelf(r.x,r.y),i&&(i.x||i.y)&&this.translateSelf(i.x,i.y),this}},{key:"decompose",value:function(){var t=arguments.length>0&&void 0!==arguments[0]?arguments[0]:0,n=arguments.length>1&&void 0!==arguments[1]?arguments[1]:0,e=this.m,r=e[0]*e[0]+e[1]*e[1],i=[[e[0],e[1]],[e[2],e[3]]],o=N(r);if(0===o)return{origin:{x:p(e[4]),y:p(e[5])},translate:{x:p(t),y:p(n)},scale:{x:0,y:0},skew:{x:0,y:0},rotate:0};i[0][0]/=o,i[0][1]/=o;var u=e[0]*e[3]-e[1]*e[2]<0;u&&(o=-o);var a=i[0][0]*i[1][0]+i[0][1]*i[1][1];i[1][0]-=i[0][0]*a,i[1][1]-=i[0][1]*a;var l=N(i[1][0]*i[1][0]+i[1][1]*i[1][1]);if(0===l)return{origin:{x:p(e[4]),y:p(e[5])},translate:{x:p(t),y:p(n)},scale:{x:p(o),y:0},skew:{x:0,y:0},rotate:0};i[1][0]/=l,i[1][1]/=l,a/=l;var s=0;return i[1][1]<0?(s=M(i[1][1])*F,i[0][1]<0&&(s=360-s)):s=E(i[0][1])*F,u&&(s=-s),a=I(a,N(i[0][0]*i[0][0]+i[0][1]*i[0][1]))*F,u&&(a=-a),{origin:{x:p(e[4]),y:p(e[5])},translate:{x:p(t),y:p(n)},scale:{x:p(o),y:p(l)},skew:{x:p(a),y:0},rotate:p(s)}}},{key:"clone",value:function(){var t=this.m;return new this.constructor(t[0],t[1],t[2],t[3],t[4],t[5])}},{key:"toString",value:function(){var t=arguments.length>0&&void 0!==arguments[0]?arguments[0]:" ";if(null===this.s){var n=this.m.map((function(t){return p(t)}));1===n[0]&&0===n[1]&&0===n[2]&&1===n[3]?this.s="translate("+n[4]+t+n[5]+")":this.s="matrix("+n.join(t)+")"}return this.s}}],[{key:"create",value:function(t){return t?Array.isArray(t)?f(this,v(t)):t instanceof this?t.clone():(new this).recomposeSelf(t.origin,t.rotate,t.skew,t.scale,t.translate):new this}}]),t}();function q(t,n,e){return t>=.5?e:n}function B(t,n,e){return 0===t||n===e?n:t*(e-n)+n}function D(t,n,e){var r=B(t,n,e);return r<=0?0:r}function L(t,n,e){var r=B(t,n,e);return r<=0?0:r>=1?1:r}function C(t,n,e){return 0===t?n:1===t?e:{x:B(t,n.x,e.x),y:B(t,n.y,e.y)}}function V(t,n,e){var r=function(t,n,e){return Math.round(B(t,n,e))}(t,n,e);return r<=0?0:r>=255?255:r}function G(t,n,e){return 0===t?n:1===t?e:{r:V(t,n.r,e.r),g:V(t,n.g,e.g),b:V(t,n.b,e.b),a:B(t,null==n.a?1:n.a,null==e.a?1:e.a)}}function z(t,n){for(var e=[],r=0;r<t;r++)e.push(n);return e}function Y(t,n){if(--n<=0)return t;var e=(t=Object.assign([],t)).length;do{for(var r=0;r<e;r++)t.push(t[r])}while(--n>0);return t}var $,U=function(){function t(n){r(this,t),this.list=n,this.length=n.length}return o(t,[{key:"setAttribute",value:function(t,n){for(var e=this.list,r=0;r<this.length;r++)e[r].setAttribute(t,n)}},{key:"removeAttribute",value:function(t){for(var n=this.list,e=0;e<this.length;e++)n[e].removeAttribute(t)}},{key:"style",value:function(t,n){for(var e=this.list,r=0;r<this.length;r++)e[r].style[t]=n}}]),t}(),Q=/-./g,H=function(t,n){return n.toUpperCase()};function J(t){return"function"==typeof t?t:q}function Z(t){return t?"function"==typeof t?t:Array.isArray(t)?function(t){var n=arguments.length>1&&void 0!==arguments[1]?arguments[1]:w;if(!Array.isArray(t))return n;switch(t.length){case 1:return S(t[0])||n;case 2:return S(t[0],t[1])||n;case 4:return _(t[0],t[1],t[2],t[3])||n}return n}(t,null):function(t,n){var e=arguments.length>2&&void 0!==arguments[2]?arguments[2]:w;switch(t){case"linear":return w;case"steps":return S(n.steps||1,n.jump||0)||e;case"bezier":case"cubic-bezier":return _(n.x1||0,n.y1||0,n.x2||0,n.y2||0)||e}return e}(t.type,t.value,null):null}function K(t,n,e){var r=arguments.length>3&&void 0!==arguments[3]&&arguments[3],i=n.length-1;if(t<=n[0].t)return r?[0,0,n[0].v]:n[0].v;if(t>=n[i].t)return r?[i,1,n[i].v]:n[i].v;var o,u=n[0],a=null;for(o=1;o<=i;o++){if(!(t>n[o].t)){a=n[o];break}u=n[o]}return null==a?r?[i,1,n[i].v]:n[i].v:u.t===a.t?r?[o,1,a.v]:a.v:(t=(t-u.t)/(a.t-u.t),u.e&&(t=u.e(t)),r?[o,t,e(t,u.v,a.v)]:e(t,u.v,a.v))}function W(t,n){var e=arguments.length>2&&void 0!==arguments[2]?arguments[2]:null;return t&&t.length?"function"!=typeof n?null:("function"!=typeof e&&(e=null),function(r){var i=K(r,t,n);return null!=i&&e&&(i=e(i)),i}):null}function X(t,n){return t.t-n.t}function tt(t,n,r,i,o){var u,a="@"===r[0],l="#"===r[0],s=$[r],f=q;switch(a?(u=r.substr(1),r=u.replace(Q,H)):l&&(r=r.substr(1)),e(s)){case"function":if(f=s(i,o,K,Z,r,a,n,t),l)return f;break;case"string":f=W(i,J(s));break;case"object":if((f=W(i,J(s.i),s.f))&&"function"==typeof s.u)return s.u(n,f,r,a,t)}return f?function(t,n,e){if(arguments.length>3&&void 0!==arguments[3]&&arguments[3])return t instanceof U?function(r){return t.style(n,e(r))}:function(r){return t.style[n]=e(r)};if(Array.isArray(n)){var r=n.length;return function(i){var o=e(i);if(null==o)for(var u=0;u<r;u++)t[u].removeAttribute(n);else for(var a=0;a<r;a++)t[a].setAttribute(n,o)}}return function(r){var i=e(r);null==i?t.removeAttribute(n):t.setAttribute(n,i)}}(n,r,f,a):null}function nt(t,n,r,i){if(!i||"object"!==e(i))return null;var o=null,u=null;return Array.isArray(i)?u=function(t){if(!t||!t.length)return null;for(var n=0;n<t.length;n++)t[n].e&&(t[n].e=Z(t[n].e));return t.sort(X)}(i):(u=i.keys,o=i.data||null),u?tt(t,n,r,u,o):null}function et(t,n,e){if(!e)return null;var r=[];for(var i in e)if(e.hasOwnProperty(i)){var o=nt(t,n,i,e[i]);o&&r.push(o)}return r.length?r:null}function rt(t,n){if(!n.settings.duration||n.settings.duration<0)return null;var e,r,i,o,u,a=function(t,n){if(!n)return null;var e=[];if(Array.isArray(n))for(var r=n.length,i=0;i<r;i++){var o=n[i];if(2===o.length){var u=null;if("string"==typeof o[0])u=t.getElementById(o[0]);else if(Array.isArray(o[0])){u=[];for(var a=0;a<o[0].length;a++)if("string"==typeof o[0][a]){var l=t.getElementById(o[0][a]);l&&u.push(l)}u=u.length?1===u.length?u[0]:new U(u):null}if(u){var s=et(t,u,o[1]);s&&(e=e.concat(s))}}}else for(var f in n)if(n.hasOwnProperty(f)){var c=t.getElementById(f);if(c){var h=et(t,c,n[f]);h&&(e=e.concat(h))}}return e.length?e:null}(t,n.elements);return a?(e=a,r=n.settings,i=r.duration,o=e.length,u=null,function(t,n){var a=r.iterations||1/0,l=(r.alternate&&a%2==0)^r.direction>0?i:0,s=t%i,f=1+(t-s)/i;n*=r.direction,r.alternate&&f%2==0&&(n=-n);var c=!1;if(f>a)s=l,c=!0,-1===r.fill&&(s=r.direction>0?0:i);else if(n<0&&(s=i-s),s===u)return!1;u=s;for(var h=0;h<o;h++)e[h](s);return c}):null}function it(t,n){for(var e=n.querySelectorAll("svg"),r=0;r<e.length;r++)if(e[r].id===t.root&&!e[r].svgatorAnimation)return e[r].svgatorAnimation=!0,e[r];return null}function ot(t){var n=function(t){return t.shadowRoot};return document?Array.from(t.querySelectorAll(":not("+["a","area","audio","br","canvas","circle","datalist","embed","g","head","hr","iframe","img","input","link","object","path","polygon","rect","script","source","style","svg","title","track","video"].join()+")")).filter(n).map(n):[]}function ut(t){var n=arguments.length>1&&void 0!==arguments[1]?arguments[1]:document,e=arguments.length>2&&void 0!==arguments[2]?arguments[2]:0,r=it(t,n);if(r)return r;if(e>=20)return null;for(var i=ot(n),o=0;o<i.length;o++){var u=ut(t,i[o],e+1);if(u)return u}return null}function at(t,n){if($=n,!t||!t.root||!Array.isArray(t.animations))return null;var e=ut(t);if(!e)return null;var r=t.animations.map((function(t){return rt(e,t)})).filter((function(t){return!!t}));return r.length?{svg:e,animations:r,animationSettings:t.animationSettings,options:t.options||void 0}:null}function lt(t){var n=arguments.length>1&&void 0!==arguments[1]?arguments[1]:null,e=arguments.length>2&&void 0!==arguments[2]?arguments[2]:Number,r=arguments.length>3&&void 0!==arguments[3]?arguments[3]:"undefined"!=typeof BigInt&&BigInt,i="0x"+(t.replace(/[^0-9a-fA-F]+/g,"")||27);return n&&r&&e.isSafeInteger&&!e.isSafeInteger(+i)?e(r(i))%n+n:+i}function st(t,n,e){return!t||!e||n>t.length?t:t.substring(0,n)+st(t.substring(n+1),e,e)}function ft(t){var n=arguments.length>1&&void 0!==arguments[1]?arguments[1]:27;return!t||t%n?t%n:[0,1].includes(n)?n:ft(t/n,n)}function ct(t,n,e){if(t&&t.length){var r=lt(e),i=ft(r)+5,o=st(t,ft(r,5),i);return o=o.replace(/\x7c$/g,"==").replace(/\x2f$/g,"="),o=function(t,n,e){var r=+("0x"+t.substring(0,4));t=t.substring(4);for(var i=lt(n,r)%r+e%27,o=[],u=0;u<t.length;u+=2)if("|"!==t[u]){var a=+("0x"+t[u]+t[u+1])-i;o.push(a)}else{var l=+("0x"+t.substring(u+1,u+1+4))-i;u+=3,o.push(l)}return String.fromCharCode.apply(String,o)}(o=(o=atob(o)).replace(/[\x41-\x5A]/g,""),n,r),o=JSON.parse(o)}}var ht=[{key:"alternate",def:!1},{key:"fill",def:1},{key:"iterations",def:0},{key:"direction",def:1},{key:"speed",def:1},{key:"fps",def:100}],vt=function(){function t(n,e){var i=this,o=arguments.length>2&&void 0!==arguments[2]?arguments[2]:null;r(this,t),this._id=0,this._running=!1,this._rollingBack=!1,this._animations=n,this._settings=e,(!o||o<"2022-05-02")&&delete this._settings.speed,ht.forEach((function(t){i._settings[t.key]=i._settings[t.key]||t.def})),this.duration=e.duration,this.offset=e.offset||0,this.rollbackStartOffset=0}return o(t,[{key:"alternate",get:function(){return this._settings.alternate}},{key:"fill",get:function(){return this._settings.fill}},{key:"iterations",get:function(){return this._settings.iterations}},{key:"direction",get:function(){return this._settings.direction}},{key:"speed",get:function(){return this._settings.speed}},{key:"fps",get:function(){return this._settings.fps}},{key:"maxFiniteDuration",get:function(){return this.iterations>0?this.iterations*this.duration:this.duration}},{key:"_apply",value:function(t){for(var n=arguments.length>1&&void 0!==arguments[1]?arguments[1]:{},e=this._animations,r=e.length,i=0,o=0;o<r;o++)n[o]?i++:(n[o]=e[o](t,1),n[o]&&i++);return i}},{key:"_rollback",value:function(t){var n=this,e=1/0,r=null;this.rollbackStartOffset=t,this._rollingBack=!0,this._running=!0;this._id=window.requestAnimationFrame((function i(o){if(n._rollingBack){null==r&&(r=o);var u=Math.round(t-(o-r)*n.speed);if(u>n.duration&&e!==1/0){var a=!!n.alternate&&u/n.duration%2>1,l=u%n.duration;u=(l+=a?n.duration:0)||n.duration}var s=(n.fps?1e3/n.fps:0)*n.speed,f=Math.max(0,u);f<=e-s&&(n.offset=f,e=f,n._apply(f));var c=n.iterations>0&&-1===n.fill&&u>=n.maxFiniteDuration;(u<=0||n.offset<u||c)&&n.stop(),n._id=window.requestAnimationFrame(i)}}))}},{key:"_start",value:function(){var t=this,n=arguments.length>0&&void 0!==arguments[0]?arguments[0]:0,e=-1/0,r=null,i={};this._running=!0;var o=function o(u){null==r&&(r=u);var a=Math.round((u-r)*t.speed+n),l=(t.fps?1e3/t.fps:0)*t.speed;if(a>=e+l&&!t._rollingBack&&(t.offset=a,e=a,t._apply(a,i)===t._animations.length))return void t.pause(!0);t._id=window.requestAnimationFrame(o)};this._id=window.requestAnimationFrame(o)}},{key:"_pause",value:function(){this._id&&window.cancelAnimationFrame(this._id),this._running=!1}},{key:"play",value:function(){if(!this._running)return this._rollingBack?this._rollback(this.offset):this._start(this.offset)}},{key:"stop",value:function(){this._pause(),this.offset=0,this.rollbackStartOffset=0,this._rollingBack=!1,this._apply(0)}},{key:"reachedToEnd",value:function(){return this.iterations>0&&this.offset>=this.iterations*this.duration}},{key:"restart",value:function(){var t=arguments.length>0&&void 0!==arguments[0]&&arguments[0];this.stop(t),this.play(t)}},{key:"pause",value:function(){this._pause()}},{key:"reverse",value:function(){this.direction=-this.direction}}],[{key:"build",value:function(t,n){delete t.animationSettings,t.options=ct(t.options,t.root,"5c7f360c"),t.animations.map((function(n){n.settings=ct(n.s,t.root,"5c7f360c"),delete n.s,t.animationSettings||(t.animationSettings=n.settings)}));var e=t.version;if(!(t=at(t,n)))return null;var r=t.options||{},i=new this(t.animations,t.animationSettings,e);return{el:t.svg,options:r,player:i}}},{key:"push",value:function(t){return this.build(t)}},{key:"init",value:function(){var t=this,n=window.__SVGATOR_PLAYER__&&window.__SVGATOR_PLAYER__["5c7f360c"];Array.isArray(n)&&n.splice(0).forEach((function(n){return t.build(n)}))}}]),t}();function yt(t){return p(t)+""}function gt(t){var n=arguments.length>1&&void 0!==arguments[1]?arguments[1]:" ";return t&&t.length?t.map(yt).join(n):""}function dt(t){if(!t)return"transparent";if(null==t.a||t.a>=1){var n=function(t){return 1===(t=parseInt(t).toString(16)).length?"0"+t:t},e=function(t){return t.charAt(0)===t.charAt(1)},r=n(t.r),i=n(t.g),o=n(t.b);return e(r)&&e(i)&&e(o)&&(r=r.charAt(0),i=i.charAt(0),o=o.charAt(0)),"#"+r+i+o}return"rgba("+t.r+","+t.g+","+t.b+","+t.a+")"}function pt(t){return t?"url(#"+t+")":"none"}!function(){for(var t=0,n=["ms","moz","webkit","o"],e=0;e<n.length&&!window.requestAnimationFrame;++e)window.requestAnimationFrame=window[n[e]+"RequestAnimationFrame"],window.cancelAnimationFrame=window[n[e]+"CancelAnimationFrame"]||window[n[e]+"CancelRequestAnimationFrame"];window.requestAnimationFrame||(window.requestAnimationFrame=function(n){var e=Date.now(),r=Math.max(0,16-(e-t)),i=window.setTimeout((function(){n(e+r)}),r);return t=e+r,i},window.cancelAnimationFrame=window.clearTimeout)}();var mt={f:null,i:function(t,n,e){return 0===t?n:1===t?e:{x:D(t,n.x,e.x),y:D(t,n.y,e.y)}},u:function(t,n){return function(e){var r=n(e);t.setAttribute("rx",yt(r.x)),t.setAttribute("ry",yt(r.y))}}},bt={f:null,i:function(t,n,e){return 0===t?n:1===t?e:{width:D(t,n.width,e.width),height:D(t,n.height,e.height)}},u:function(t,n){return function(e){var r=n(e);t.setAttribute("width",yt(r.width)),t.setAttribute("height",yt(r.height))}}};Object.freeze({M:2,L:2,Z:0,H:1,V:1,C:6,Q:4,T:2,S:4,A:7});var wt={},At=null;function _t(t){var n=function(){if(At)return At;if("object"!==("undefined"==typeof document?"undefined":e(document))||!document.createElementNS)return{};var t=document.createElementNS("http://www.w3.org/2000/svg","svg");return t&&t.style?(t.style.position="absolute",t.style.opacity="0.01",t.style.zIndex="-9999",t.style.left="-9999px",t.style.width="1px",t.style.height="1px",At={svg:t}):{}}().svg;if(!n)return function(t){return null};var r=document.createElementNS(n.namespaceURI,"path");r.setAttributeNS(null,"d",t),r.setAttributeNS(null,"fill","none"),r.setAttributeNS(null,"stroke","none"),n.appendChild(r);var i=r.getTotalLength();return function(t){var n=r.getPointAtLength(i*t);return{x:n.x,y:n.y}}}function xt(t){return wt[t]?wt[t]:wt[t]=_t(t)}function kt(t,n,e,r){if(!t||!r)return!1;var i=["M",t.x,t.y];if(n&&e&&(i.push("C"),i.push(n.x),i.push(n.y),i.push(e.x),i.push(e.y)),n?!e:e){var o=n||e;i.push("Q"),i.push(o.x),i.push(o.y)}return n||e||i.push("L"),i.push(r.x),i.push(r.y),i.join(" ")}function St(t,n,e,r){var i=arguments.length>4&&void 0!==arguments[4]?arguments[4]:1,o=kt(t,n,e,r),u=xt(o);try{return u(i)}catch(t){return null}}function Ot(t,n,e){return t+(n-t)*e}function jt(t,n,e){var r=arguments.length>3&&void 0!==arguments[3]&&arguments[3],i={x:Ot(t.x,n.x,e),y:Ot(t.y,n.y,e)};return r&&(i.a=Mt(t,n)),i}function Mt(t,n){return Math.atan2(n.y-t.y,n.x-t.x)}function Et(t,n,e,r){var i=1-r;return i*i*t+2*i*r*n+r*r*e}function Pt(t,n,e,r){return 2*(1-r)*(n-t)+2*r*(e-n)}function It(t,n,e,r){var i=arguments.length>4&&void 0!==arguments[4]&&arguments[4],o=St(t,n,null,e,r);return o||(o={x:Et(t.x,n.x,e.x,r),y:Et(t.y,n.y,e.y,r)}),i&&(o.a=Rt(t,n,e,r)),o}function Rt(t,n,e,r){return Math.atan2(Pt(t.y,n.y,e.y,r),Pt(t.x,n.x,e.x,r))}function Ft(t,n,e,r,i){var o=i*i;return i*o*(r-t+3*(n-e))+3*o*(t+e-2*n)+3*i*(n-t)+t}function Nt(t,n,e,r,i){var o=1-i;return 3*(o*o*(n-t)+2*o*i*(e-n)+i*i*(r-e))}function Tt(t,n,e,r,i){var o=arguments.length>5&&void 0!==arguments[5]&&arguments[5],u=St(t,n,e,r,i);return u||(u={x:Ft(t.x,n.x,e.x,r.x,i),y:Ft(t.y,n.y,e.y,r.y,i)}),o&&(u.a=qt(t,n,e,r,i)),u}function qt(t,n,e,r,i){return Math.atan2(Nt(t.y,n.y,e.y,r.y,i),Nt(t.x,n.x,e.x,r.x,i))}function Bt(t,n,e){var r=arguments.length>3&&void 0!==arguments[3]&&arguments[3];if(Lt(n)){if(Ct(e))return It(n,e.start,e,t,r)}else if(Lt(e)){if(Vt(n))return It(n,n.end,e,t,r)}else{if(Vt(n))return Ct(e)?Tt(n,n.end,e.start,e,t,r):It(n,n.end,e,t,r);if(Ct(e))return It(n,e.start,e,t,r)}return jt(n,e,t,r)}function Dt(t,n,e){var r=Bt(t,n,e,!0);return r.a=function(t){return arguments.length>1&&void 0!==arguments[1]&&arguments[1]?t+Math.PI:t}(r.a)/b,r}function Lt(t){return!t.type||"corner"===t.type}function Ct(t){return null!=t.start&&!Lt(t)}function Vt(t){return null!=t.end&&!Lt(t)}var Gt=new T;var zt={f:yt,i:B},Yt={f:yt,i:L};function $t(t,n,e){return t.map((function(t){return function(t,n,e){var r=t.v;if(!r||"g"!==r.t||r.s||!r.v||!r.r)return t;var i=e.getElementById(r.r),o=i&&i.querySelectorAll("stop")||[];return r.s=r.v.map((function(t,n){var e=o[n]&&o[n].getAttribute("offset");return{c:t,o:e=p(parseInt(e)/100)}})),delete r.v,t}(t,0,e)}))}var Ut={gt:"gradientTransform",c:{x:"cx",y:"cy"},rd:"r",f:{x:"x1",y:"y1"},to:{x:"x2",y:"y2"}};function Qt(t,n,r,i,o,u,a,l){return $t(t,0,l),n=function(t,n,e){for(var r,i,o,u=t.length-1,a={},l=0;l<=u;l++)(r=t[l]).e&&(r.e=n(r.e)),r.v&&"g"===(i=r.v).t&&i.r&&(o=e.getElementById(i.r))&&(a[i.r]={e:o,s:o.querySelectorAll("stop")});return a}(t,i,l),function(i){var o=r(i,t,Ht);if(!o)return"none";if("c"===o.t)return dt(o.v);if("g"===o.t){if(!n[o.r])return pt(o.r);var u=n[o.r];return function(t,n){for(var e=t.s,r=e.length;r<n.length;r++){var i=e[e.length-1].cloneNode();i.id=Kt(i.id),t.e.appendChild(i),e=t.s=t.e.querySelectorAll("stop")}for(var o=0,u=e.length,a=n.length-1;o<u;o++)e[o].setAttribute("stop-color",dt(n[Math.min(o,a)].c)),e[o].setAttribute("offset",n[Math.min(o,a)].o)}(u,o.s),Object.keys(Ut).forEach((function(t){if(void 0!==o[t])if("object"!==e(Ut[t])){var n,r="gt"===t?(n=o[t],Array.isArray(n)?"matrix("+n.join(" ")+")":""):o[t],i=Ut[t];u.e.setAttribute(i,r)}else Object.keys(Ut[t]).forEach((function(n){if(void 0!==o[t][n]){var e=o[t][n],r=Ut[t][n];u.e.setAttribute(r,e)}}))})),pt(o.r)}return"none"}}function Ht(t,e,r){if(0===t)return e;if(1===t)return r;if(e&&r){var i=e.t;if(i===r.t)switch(e.t){case"c":return{t:i,v:G(t,e.v,r.v)};case"g":if(e.r===r.r){var o={t:i,s:Jt(t,e.s,r.s),r:e.r};return e.gt&&r.gt&&(o.gt=function(t,n,e){var r=n.length;if(r!==e.length)return q(t,n,e);for(var i=new Array(r),o=0;o<r;o++)i[o]=B(t,n[o],e[o]);return i}(t,e.gt,r.gt)),e.c?(o.c=C(t,e.c,r.c),o.rd=D(t,e.rd,r.rd)):e.f&&(o.f=C(t,e.f,r.f),o.to=C(t,e.to,r.to)),o}}if("c"===e.t&&"g"===r.t||"c"===r.t&&"g"===e.t){var u="c"===e.t?e:r,a="g"===e.t?n({},e):n({},r),l=a.s.map((function(t){return{c:u.v,o:t.o}}));return a.s="c"===e.t?Jt(t,l,a.s):Jt(t,a.s,l),a}}return q(t,e,r)}function Jt(t,n,e){if(n.length===e.length)return n.map((function(n,r){return Zt(t,n,e[r])}));for(var r=Math.max(n.length,e.length),i=[],o=0;o<r;o++){var u=Zt(t,n[Math.min(o,n.length-1)],e[Math.min(o,e.length-1)]);i.push(u)}return i}function Zt(t,n,e){return{o:L(t,n.o,e.o||0),c:G(t,n.c,e.c||{})}}function Kt(t){return t.replace(/-fill-([0-9]+)$/,(function(t,n){return"-fill-"+(+n+1)}))}var Wt={fill:Qt,"fill-opacity":Yt,stroke:Qt,"stroke-opacity":Yt,"stroke-width":zt,"stroke-dashoffset":{f:yt,i:B},"stroke-dasharray":{f:function(t){var n=arguments.length>1&&void 0!==arguments[1]?arguments[1]:" ";return t&&t.length>0&&(t=t.map((function(t){return p(t,4)}))),gt(t,n)},i:function(t,n,e){var r,i,o,u=n.length,a=e.length;if(u!==a)if(0===u)n=z(u=a,0);else if(0===a)a=u,e=z(u,0);else{var l=(o=(r=u)*(i=a)/function(t,n){for(var e;n;)e=n,n=t%n,t=e;return t||1}(r,i))<0?-o:o;n=Y(n,Math.floor(l/u)),e=Y(e,Math.floor(l/a)),u=a=l}for(var s=[],f=0;f<u;f++)s.push(p(D(t,n[f],e[f])));return s}},opacity:Yt,transform:function(t,n,r,i){if(!(t=function(t,n){if(!t||"object"!==e(t))return null;var r=!1;for(var i in t)t.hasOwnProperty(i)&&(t[i]&&t[i].length?(t[i].forEach((function(t){t.e&&(t.e=n(t.e))})),r=!0):delete t[i]);return r?t:null}(t,i)))return null;var o=function(e,i,o){var u=arguments.length>3&&void 0!==arguments[3]?arguments[3]:null;return t[e]?r(i,t[e],o):n&&n[e]?n[e]:u};return n&&n.a&&t.o?function(n){var e=r(n,t.o,Dt);return Gt.recomposeSelf(e,o("r",n,B,0)+e.a,o("k",n,C),o("s",n,C),o("t",n,C)).toString()}:function(t){return Gt.recomposeSelf(o("o",t,Bt,null),o("r",t,B,0),o("k",t,C),o("s",t,C),o("t",t,C)).toString()}},r:zt,"#size":bt,"#radius":mt,_:function(t,n){if(Array.isArray(t))for(var e=0;e<t.length;e++)this[t[e]]=n;else this[t]=n}},Xt=function(t){!function(t,n){if("function"!=typeof n&&null!==n)throw new TypeError("Super expression must either be null or a function");t.prototype=Object.create(n&&n.prototype,{constructor:{value:t,writable:!0,configurable:!0}}),n&&l(t,n)}(u,t);var n,e,i=(n=u,e=s(),function(){var t,r=a(n);if(e){var i=a(this).constructor;t=Reflect.construct(r,arguments,i)}else t=r.apply(this,arguments);return c(this,t)});function u(){return r(this,u),i.apply(this,arguments)}return o(u,null,[{key:"build",value:function(t){var n=h(a(u),"build",this).call(this,t,Wt);if(!n)return null;n.el,n.options,function(t,n,e){t.play()}(n.player)}}]),u}(vt);return Xt.init(),Xt}));
(function(s,i,o,w,d,a,b){w[o]=w[o]||{};w[o][s]=w[o][s]||[];w[o][s].push(i);})('5c7f360c',{"root":"squid","version":"2022-05-04","animations":[{"elements":{"squid-s-path24":{"transform":{"data":{"o":{"x":100.008297,"y":85.318951,"type":"corner"},"t":{"x":-100.008297,"y":-85.318951}},"keys":{"s":[{"t":2000,"v":{"x":1,"y":1}},{"t":2100,"v":{"x":1.2,"y":1.2}},{"t":2200,"v":{"x":1,"y":1}}]}}},"squid-s-path26":{"transform":{"data":{"o":{"x":75.628655,"y":82.631981,"type":"corner"},"t":{"x":-75.628655,"y":-82.631977}},"keys":{"s":[{"t":900,"v":{"x":1,"y":1}},{"t":1000,"v":{"x":0.2,"y":0.2}},{"t":1200,"v":{"x":1,"y":1}}]}}}},"s":"MADA1ZDk0M2I3ZDhlOGSI3YUI4ZDgyODg4NzNLiNTM0YzQ5NDk0OTQ1RM2I3ZDgyOGJXN2U3YX1g4ZDgyTzg4ODczYjOUzWTRhNDUzYjgyOGQD3ZThiN2E4ZDgyODg4RNzhjM2JINTM0OTQ1ML2JGSjdmODI4NTg1M2GI1MzRhNDUzYjdhODUA4ZDdlOGJZODc3YThkSN2UzYjUzN2Y3YTg1OUGM3ZU80NTNiOGNUODTk3ZTdlN2QzYlg1MzRVhNDUzYjdmODk4Y0YzXYjUzNGE0OTQ5OTY/"}],"options":"MQDAxMDk0M2I4YzhkN2CE4YjhkM2I1MzNiODUK4ODdhN2QzYkU5Ng|"},'__SVGATOR_PLAYER__',window,document)
]]></script>
</svg>
